<svg xmlns="http://www.w3.org/2000/svg" xmlns:xlink="http://www.w3.org/1999/xlink" viewBox="0 0 45 45"><defs><style>.cls-1{fill:url(#New_Gradient_Swatch);}.cls-2{fill:url(#New_Gradient_Swatch-2);}.cls-3{fill:url(#New_Gradient_Swatch-3);}.cls-4{fill:url(#New_Gradient_Swatch-4);}.cls-5{fill:url(#New_Gradient_Swatch-5);}.cls-6{fill:url(#New_Gradient_Swatch-6);}.cls-7{fill:url(#New_Gradient_Swatch-7);}.cls-8{fill:url(#New_Gradient_Swatch-8);}.cls-9{fill:url(#New_Gradient_Swatch-9);}.cls-10{fill:#00eaff;}</style><linearGradient id="New_Gradient_Swatch" x1="5.58" y1="-2481.84" x2="14.31" y2="-2481.84" gradientTransform="matrix(1, 0, 0, -1, 0, -2471.97)" gradientUnits="userSpaceOnUse"><stop offset="0" stop-color="#00d1ff"/><stop offset="1" stop-color="#0a00d1"/></linearGradient><linearGradient id="New_Gradient_Swatch-2" x1="18.16" y1="-2481.84" x2="26.89" y2="-2481.84" xlink:href="#New_Gradient_Swatch"/><linearGradient id="New_Gradient_Swatch-3" x1="30.74" y1="-2481.84" x2="39.47" y2="-2481.84" xlink:href="#New_Gradient_Swatch"/><linearGradient id="New_Gradient_Swatch-4" x1="5.58" y1="-2494.16" x2="14.31" y2="-2494.16" xlink:href="#New_Gradient_Swatch"/><linearGradient id="New_Gradient_Swatch-5" x1="18.16" y1="-2494.16" x2="26.89" y2="-2494.16" xlink:href="#New_Gradient_Swatch"/><linearGradient id="New_Gradient_Swatch-6" x1="30.74" y1="-2494.16" x2="39.47" y2="-2494.16" xlink:href="#New_Gradient_Swatch"/><linearGradient id="New_Gradient_Swatch-7" x1="5.58" y1="-2506.48" x2="14.31" y2="-2506.48" xlink:href="#New_Gradient_Swatch"/><linearGradient id="New_Gradient_Swatch-8" x1="18.16" y1="-2506.48" x2="26.89" y2="-2506.48" xlink:href="#New_Gradient_Swatch"/><linearGradient id="New_Gradient_Swatch-9" x1="30.74" y1="-2506.48" x2="39.47" y2="-2506.48" xlink:href="#New_Gradient_Swatch"/></defs><title>Asset 29</title><g id="Layer_2" data-name="Layer 2"><g id="Layer_1-2" data-name="Layer 1"><path class="cls-1" d="M13.31,14.12H6.57a1,1,0,0,1-1-1V6.63a1,1,0,0,1,1-1h6.69a1,1,0,0,1,1,1v6.54A.93.93,0,0,1,13.31,14.12Z"/><path class="cls-2" d="M25.89,14.12H19.16a1,1,0,0,1-1-1V6.63a1,1,0,0,1,1-1h6.68a1,1,0,0,1,1,1v6.54A.93.93,0,0,1,25.89,14.12Z"/><path class="cls-3" d="M38.47,14.12H31.74a1,1,0,0,1-1-1V6.63a1,1,0,0,1,1-1h6.68a1,1,0,0,1,1,1v6.54A.92.92,0,0,1,38.47,14.12Z"/><path class="cls-4" d="M13.31,26.44H6.57a1,1,0,0,1-1-1V19a1,1,0,0,1,1-1h6.69a1,1,0,0,1,1,1v6.53A.93.93,0,0,1,13.31,26.44Z"/><path class="cls-5" d="M25.89,26.44H19.16a1,1,0,0,1-1-1V19a1,1,0,0,1,1-1h6.68a1,1,0,0,1,1,1v6.53A.93.93,0,0,1,25.89,26.44Z"/><path class="cls-6" d="M38.47,26.44H31.74a1,1,0,0,1-1-1V19a1,1,0,0,1,1-1h6.68a1,1,0,0,1,1,1v6.53A.92.92,0,0,1,38.47,26.44Z"/><path class="cls-7" d="M13.31,38.76H6.57a1,1,0,0,1-1-1V31.27a1,1,0,0,1,1-1h6.69a1,1,0,0,1,1,1V37.8A.93.93,0,0,1,13.31,38.76Z"/><path class="cls-8" d="M25.89,38.76H19.16a1,1,0,0,1-1-1V31.27a1,1,0,0,1,1-1h6.68a1,1,0,0,1,1,1V37.8A.93.93,0,0,1,25.89,38.76Z"/><path class="cls-9" d="M38.47,38.76H31.74a1,1,0,0,1-1-1V31.27a1,1,0,0,1,1-1h6.68a1,1,0,0,1,1,1V37.8A.92.92,0,0,1,38.47,38.76Z"/><path class="cls-10" d="M38.63,45H6.38A6.32,6.32,0,0,1,0,38.63V6.38A6.32,6.32,0,0,1,6.38,0H38.63A6.32,6.32,0,0,1,45,6.38V38.63A6.32,6.32,0,0,1,38.63,45ZM6.38,2.63A3.75,3.75,0,0,0,2.63,6.38V38.63a3.76,3.76,0,0,0,3.75,3.75H38.63a3.76,3.76,0,0,0,3.75-3.75V6.38a3.76,3.76,0,0,0-3.75-3.75Z"/></g></g></svg>