<svg xmlns="http://www.w3.org/2000/svg" xmlns:xlink="http://www.w3.org/1999/xlink" viewBox="0 0 31.81 44.92"><defs><style>.cls-1,.cls-6{fill:#0a00d1;}.cls-2{fill:url(#linear-gradient);}.cls-3{fill:url(#linear-gradient-2);}.cls-4{fill:url(#linear-gradient-3);}.cls-5{fill:url(#linear-gradient-4);}.cls-6{opacity:0.2;}.cls-7{fill:#fff;}</style><linearGradient id="linear-gradient" x1="0.6" y1="12.05" x2="31.93" y2="12.05" gradientUnits="userSpaceOnUse"><stop offset="0" stop-color="#00d1ff"/><stop offset="1" stop-color="#0a00d1"/></linearGradient><linearGradient id="linear-gradient-2" x1="0" y1="30.78" x2="31.81" y2="30.78" xlink:href="#linear-gradient"/><linearGradient id="linear-gradient-3" x1="0" y1="36.94" x2="31.81" y2="36.94" xlink:href="#linear-gradient"/><linearGradient id="linear-gradient-4" x1="0" y1="43.1" x2="24.05" y2="43.1" xlink:href="#linear-gradient"/></defs><title>Asset 28</title><g id="Layer_2" data-name="Layer 2"><g id="Layer_1-2" data-name="Layer 1"><path class="cls-1" d="M27.59,25.16H4.81C2.47,25.16.6,23.9.6,22.33V4c0-1.67,1.87-2.93,4.21-2.93H27.59c2.34,0,4.21,1.26,4.21,2.83V22.23C32,23.9,30.08,25.16,27.59,25.16Z"/><path class="cls-2" d="M18,24.11H4.81C2.47,24.11.6,22.85.6,21.18V2.83C.6,1.25,2.47,0,4.81,0H27.59c2.34,0,4.21,1.25,4.21,2.83V21.26c.1,1.63-1.76,2.85-4.21,2.85H18Z"/><rect class="cls-3" y="28.97" width="31.81" height="3.63" rx="1.82"/><rect class="cls-4" y="35.13" width="31.81" height="3.63" rx="1.82"/><rect class="cls-5" y="41.29" width="24.05" height="3.63" rx="1.82"/><path class="cls-6" d="M27.45,0H4.8A5.11,5.11,0,0,0,1,1.67c27.47-1.56,30.83,21,30.83,21V4.21A4.22,4.22,0,0,0,27.45,0Z"/><path class="cls-7" d="M30.66,22.42a1.47,1.47,0,0,1-.5,1.07,2.42,2.42,0,0,1-1.61.62H3.93a2.43,2.43,0,0,1-1.76-.75,1.42,1.42,0,0,1,0-2l7.71-7.71a2,2,0,0,1,2.69,0l3.66,3.66,3.67-3.67a2,2,0,0,1,2.69,0l7.6,7.6A1.62,1.62,0,0,1,30.66,22.42Z"/><circle class="cls-7" cx="16.24" cy="8.36" r="2.34"/></g></g></svg>