<svg xmlns="http://www.w3.org/2000/svg" xmlns:xlink="http://www.w3.org/1999/xlink" viewBox="0 0 31.21 45.23"><defs><style>.cls-1,.cls-5{fill:#0a00d1;}.cls-2{fill:#00eaff;}.cls-3{fill:#fff;}.cls-4{fill:url(#linear-gradient);}.cls-5{opacity:0.2;}</style><linearGradient id="linear-gradient" y1="12.05" x2="31.34" y2="12.05" gradientUnits="userSpaceOnUse"><stop offset="0" stop-color="#00d1ff"/><stop offset="1" stop-color="#0a00d1"/></linearGradient></defs><title>Asset 27</title><g id="Layer_2" data-name="Layer 2"><g id="Layer_1-2" data-name="Layer 1"><path class="cls-1" d="M27,45.23H4.22C1.88,45.23,0,42.92,0,40V6.43C0,3.36,1.88,1.05,4.22,1.05H27c2.34,0,4.21,2.31,4.21,5.19V39.85C31.36,42.92,29.49,45.23,27,45.23Z"/><rect class="cls-2" x="2.48" y="27.64" width="16.33" height="2.63" rx="1.32"/><rect class="cls-2" x="20.89" y="27.64" width="9.01" height="2.63" rx="1.32"/><rect class="cls-3" x="5.82" y="35.01" width="19.57" height="4.72" rx="2.36"/><path class="cls-1" d="M27,25.16H4.22C1.88,25.16,0,23.91,0,22.33V4C0,2.31,1.88,1.05,4.22,1.05H27c2.34,0,4.21,1.26,4.21,2.83V22.23C31.36,23.91,29.49,25.16,27,25.16Z"/><path class="cls-4" d="M31.21,2.84V21.26a2.6,2.6,0,0,1-1.91,2.43,6,6,0,0,1-2.3.42H4.22a4.59,4.59,0,0,1-3.78-1.6A2.25,2.25,0,0,1,0,21.19V2.84C0,1.26,1.87,0,4.22,0H27C29.34,0,31.21,1.26,31.21,2.84Z"/><path class="cls-5" d="M26.86,0H4.2A5.14,5.14,0,0,0,.37,1.67c27.47-1.56,30.83,21,30.83,21V4.22A4.22,4.22,0,0,0,26.86,0Z"/><path class="cls-3" d="M30.06,22.42a1.47,1.47,0,0,1-.5,1.07l-.26.2a2.42,2.42,0,0,1-1.35.42H4.22a4.59,4.59,0,0,1-3.78-1.6c.45-.48.89-.91,1.13-1.15l7.71-7.71a2,2,0,0,1,2.69,0l3.66,3.66,3.67-3.67a2,2,0,0,1,2.69,0l7.6,7.6A1.62,1.62,0,0,1,30.06,22.42Z"/></g></g></svg>