<?xml version="1.0" encoding="UTF-8"?>
<svg width="50px" height="50px" viewBox="0 0 50 50" version="1.1" xmlns="http://www.w3.org/2000/svg" xmlns:xlink="http://www.w3.org/1999/xlink">
    <!-- Generator: sketchtool 54.1 (76490) - https://sketchapp.com -->
    <title>201724A8-FF34-49FA-8232-185D4998B42B</title>
    <desc>Created with sketchtool.</desc>
    <g id="Docent" stroke="none" stroke-width="1" fill="none" fill-rule="evenodd">
        <g id="home-333a" transform="translate(-975.000000, -2966.000000)">
            <g id="About" transform="translate(0.000000, 2710.000000)">
                <g id="Details" transform="translate(975.000000, 75.000000)">
                    <g id="Career">
                        <g id="Group-3" transform="translate(0.000000, 181.000000)">
                            <g id="1">
                                <g id="Icon">
                                    <rect id="Rectangle" fill="#FDF2F2" x="0" y="0" width="50" height="50" rx="3"></rect>
                                    <path d="M37.3459028,26.3978425 C37.2590017,26.3289704 37.1611966,26.2826204 37.0548006,26.2627095 C36.4263369,26.8815792 35.6594262,27.5334161 34.9784253,27.9714557 C34.6641935,28.1777455 34.2690081,28.2808905 34.0073135,28.2808905 C33.4049531,28.2808905 33.1432585,27.7135933 33.064618,26.8117279 C32.959874,25.6004276 32.8891636,24.1495439 32.8891636,21.9071206 C32.8891636,19.6072495 32.3608179,18.043755 30.9532179,17.9210256 C30.8937419,17.9158031 30.8336049,17.9122126 30.7708247,17.9122126 C29.9067697,17.9122126 29.4877939,18.3502522 28.9379708,19.4587339 C28.4667882,20.4121718 27.7335807,21.8039757 26.3722397,24.432866 C25.193953,26.7010755 23.8848189,28.7114226 22.7587389,30.1032266 C22.4451679,30.4890409 22.197351,30.7540842 21.9644031,30.9048847 C21.8087741,31.0060713 21.6594231,31.0566645 21.5021419,31.0566645 C21.0577236,31.0566645 20.7332487,30.6861914 20.6248701,29.8234949 C20.5990971,29.6185107 20.5855498,29.3857817 20.5855498,29.1236761 C20.5855498,27.345405 21.2665507,24.4586523 22.444507,20.2058819 C23.308562,17.1131657 22.9421234,15 21.0567324,15 C21.0537586,15 21.0507848,15 21.0478109,15 C21.0438459,15 21.0398808,15 21.0355853,15 L21.0342636,15.0003264 C20.6073577,15.0052225 20.2534752,15.1579815 19.9124791,15.4230248 C19.5767698,15.6841513 19.2407301,16.2481844 18.9271591,17.0064302 C18.573607,17.8606401 16.4238779,22.1202651 13.0023525,24.3147063 C12.9620409,25.1490053 13.4401624,25.9829778 14.4089613,26.0733929 C15.290859,26.1559741 15.9170097,25.7887651 16.7232407,25.2537823 C16.6627734,25.5198048 16.606932,25.7685278 16.5560469,25.9960342 C16.49591,26.264668 16.4446945,26.4964177 16.4037221,26.6834495 C16.3422635,26.9618756 16.3032737,27.1410736 16.2917089,27.1906876 C16.1796957,27.6982521 16.0997334,28.1803567 16.0478571,28.6379809 C15.5654401,32.8979322 17.5641661,35 19.9048794,35 C20.2960997,35 20.6836853,34.9539766 21.0686276,34.8573598 C23.6475755,34.2113982 26.1303705,31.289067 29.0691485,24.5617972 C29.0245415,25.2936041 29.0199156,25.9771025 29.0519666,26.6113133 C29.2455942,30.4668451 30.7893283,31.6236353 32.9704475,31.6236353 C34.6199168,31.6236353 36.1646422,30.7733423 36.9500566,29.716433 C37.5263135,28.9689586 37.7619048,28.1441254 37.7619048,27.499796 C37.7619048,26.9997389 37.6013195,26.6005419 37.3459028,26.3978425" id="Fill-4" fill="#EA5252" fill-rule="nonzero"></path>
                                </g>
                            </g>
                        </g>
                    </g>
                </g>
            </g>
        </g>
    </g>
</svg>