<?xml version="1.0" encoding="UTF-8"?>
<svg width="50px" height="50px" viewBox="0 0 50 50" version="1.1" xmlns="http://www.w3.org/2000/svg" xmlns:xlink="http://www.w3.org/1999/xlink">
    <!-- Generator: sketchtool 54.1 (76490) - https://sketchapp.com -->
    <title>FA1BA6DA-7102-4AF9-B272-A9E584A58D36</title>
    <desc>Created with sketchtool.</desc>
    <defs>
        <rect id="path-1" x="0" y="0" width="50" height="50" rx="3"></rect>
        <polygon id="path-3" points="0.0146531987 0.0960994709 1.65496104 0.0960994709 1.65496104 1.7989418 0.0146531987 1.7989418"></polygon>
    </defs>
    <g id="Docent" stroke="none" stroke-width="1" fill="none" fill-rule="evenodd">
        <g id="home-333a" transform="translate(-975.000000, -3220.000000)">
            <g id="About" transform="translate(0.000000, 2710.000000)">
                <g id="Details" transform="translate(975.000000, 75.000000)">
                    <g id="Career">
                        <g id="Group-3" transform="translate(0.000000, 181.000000)">
                            <g id="1-copy-3" transform="translate(0.000000, 254.000000)">
                                <g id="Icon">
                                    <mask id="mask-2" fill="white">
                                        <use xlink:href="#path-1"></use>
                                    </mask>
                                    <use id="Rectangle" fill="#4A90E2" xlink:href="#path-1"></use>
                                    <g id="Group-15" mask="url(#mask-2)">
                                        <g transform="translate(24.500000, 25.740741) scale(-1, 1) translate(-24.500000, -25.740741) translate(12.000000, 10.000000)">
                                            <path d="M14.7532147,27.8835979 C15.3709439,26.628369 16.0819459,25.5935019 17.1566576,24.6886089 C20.850043,21.5787404 20.5898896,16.1262765 16.7177162,13.224027 C16.4700112,13.0383252 16.1903732,12.8901715 15.917591,12.7199306 C15.7050661,13.0588832 15.7867926,13.345846 15.7860709,13.6181974 C15.7788545,16.2788476 15.7591896,18.9396677 15.7958132,21.5999781 C15.8051946,22.286718 15.4652992,22.5075894 14.8434205,22.5488753 C13.8706414,22.6134377 13.0642017,21.9171833 13.0634801,21.0094021 C13.0611347,18.1788508 13.0391245,15.3481297 13.0782738,12.5180882 C13.088016,11.8209843 12.8653882,11.5877101 12.1253399,11.5732686 C10.3318686,11.5386087 10.3333119,11.5081965 10.3336727,13.1514793 C10.3343944,15.9818606 10.3361985,18.8124118 10.3327707,21.6427931 C10.3316882,22.5057205 9.304966,23.2831876 8.38919692,23.1299369 C7.78644189,23.0291855 7.57517995,22.7175871 7.58185518,22.1248023 C7.61270556,19.3231343 7.59827263,16.5207867 7.59105617,13.7186089 C7.59015411,13.416355 7.67097849,13.100339 7.50427821,12.8075996 C7.17755287,12.7479643 7.00670312,12.985316 6.80283806,13.1304115 C2.83468576,15.9548463 2.51481607,21.4368731 6.1293617,24.6609151 C6.49848375,24.9901833 6.98649703,25.2341612 7.25945972,25.6184773 C7.74061735,26.2955329 8.09855389,27.0505731 8.51728913,27.788963 C5.40915875,27.6822652 1.88932918,23.2381638 1.80110793,19.3572844 C1.69195894,14.5608083 5.72199239,10.2701276 10.6611197,9.92471882 C16.2793161,9.53173773 20.7928526,12.9667968 21.5209936,18.1893847 C22.1019189,22.3584163 18.7845111,27.1584603 14.7532147,27.8835979" id="Fill-1" fill="#FFFFFF"></path>
                                            <g id="Group-5" stroke-width="1" fill="none" transform="translate(4.497354, 0.000000)">
                                                <path d="M19.6765914,4.89887735 C17.5394485,5.44409873 15.5932366,5.93950206 13.6479161,6.43768269 C13.2574971,6.53766599 13.0633572,6.39359284 13.1180872,6.00841415 C13.2246947,5.25697723 12.7504872,4.83760286 12.221728,4.43523955 C9.72679017,2.53677208 5.58799233,2.54788134 3.16008537,4.46231836 C2.66537638,4.85253093 2.21077892,5.25402633 2.31685166,5.97317699 C2.39707474,6.51735688 2.0669122,6.52568882 1.6590224,6.40452851 C1.17590119,6.26097611 0.809905668,6.07350744 1.02686453,6.9313502 C1.18713242,7.56492487 1.1562911,8.28095105 1.25202398,8.95583827 C1.31852,9.42572502 1.07909867,9.58576772 0.649637781,9.59288459 C0.234082225,9.60000145 -0.0529381283,9.48422219 0.00820968621,8.99610932 C0.26831074,6.9186787 0.415386387,4.83517272 0.339620144,2.74073106 C0.327319272,2.39929506 0.47546456,2.1699931 0.844669003,2.16339698 C3.15705472,2.12225802 5.07153396,0.91152285 7.13255403,0.135610848 C7.51067215,-0.00690005925 7.83245584,-0.0647028997 8.22733167,0.100026516 C11.8803342,1.62373022 15.5410025,3.1292078 19.1986401,4.64197583 C19.3056042,4.68606569 19.4034764,4.7509854 19.6765914,4.89887735" id="Fill-3" fill="#FFFFFF"></path>
                                            </g>
                                            <path d="M7.19838775,9.89417989 C7.19838775,8.43088128 7.20239137,7.12995283 7.19577669,5.82884557 C7.19403598,5.45188926 7.43199046,5.23801841 7.66733387,5.0178888 C9.71440381,3.10360166 13.7357822,3.12935199 15.7664895,5.06742243 C16.0028773,5.29309552 16.1960957,5.51644392 16.1903513,5.89554609 C16.1710295,7.17340653 16.1830404,8.4516246 16.1830404,9.87307892 C13.2066076,8.46074451 10.2745629,8.31339537 7.19838775,9.89417989" id="Fill-6" fill="#FFFFFF"></path>
                                            <path d="M15.2910053,24.7202691 C14.5656039,25.9939908 13.9103748,27.1514516 13.2440841,28.3029332 C13.1799612,28.4137133 13.0629498,28.5190125 12.94421,28.5744856 C11.8499722,29.0848711 10.3091209,28.6186647 9.73564418,27.6108484 C9.21471025,26.6955426 8.69706024,25.7784098 8.0952381,24.716283 C9.25619138,24.7588013 10.0652464,24.2416062 10.87361,23.6686058 C11.5371353,23.1982473 12.2485368,23.3558639 12.8522602,23.844492 C13.5104275,24.3774654 14.2417054,24.7059856 15.2910053,24.7202691" id="Fill-8" fill="#FFFFFF"></path>
                                            <path d="M0,5.35489284 C1.44424908,4.73158306 2.64508762,4.22660054 3.83386438,3.69412785 C4.34085434,3.46683592 4.42667089,3.65269339 4.45237631,4.14014594 C4.58011247,6.56226919 4.59177877,6.56366362 2.26029727,5.96525436 C1.60105214,5.79613004 0.946157154,5.61106938 0,5.35489284" id="Fill-10" fill="#FFFFFF"></path>
                                            <g id="Group-14" stroke-width="1" fill="none" transform="translate(10.793651, 29.682540)">
                                                <mask id="mask-4" fill="white">
                                                    <use xlink:href="#path-3"></use>
                                                </mask>
                                                <g id="Clip-13"></g>
                                                <path d="M0.851488215,1.79897778 C0.532748437,1.15063915 0.293162097,0.662946032 0.0146531987,0.0960994709 L1.65496104,0.0960994709 C1.49550938,0.676438095 1.20097354,1.15279788 0.851488215,1.79897778" id="Fill-12" fill="#FFFFFF" mask="url(#mask-4)"></path>
                                            </g>
                                        </g>
                                    </g>
                                </g>
                            </g>
                        </g>
                    </g>
                </g>
            </g>
        </g>
    </g>
</svg>