<?xml version="1.0" encoding="UTF-8"?>
<svg width="1245px" height="440px" viewBox="0 0 1245 440" version="1.1" xmlns="http://www.w3.org/2000/svg" xmlns:xlink="http://www.w3.org/1999/xlink">
    <!-- Generator: sketchtool 54.1 (76490) - https://sketchapp.com -->
    <title>2EAE18BF-52B2-468B-99D4-1CEA015A248D</title>
    <desc>Created with sketchtool.</desc>
    <defs>
        <rect id="path-1" x="0" y="0" width="1217" height="412" rx="7"></rect>
        <filter x="-1.8%" y="-4.9%" width="103.6%" height="110.7%" filterUnits="objectBoundingBox" id="filter-3">
            <feOffset dx="0" dy="2" in="SourceAlpha" result="shadowOffsetOuter1"></feOffset>
            <feGaussianBlur stdDeviation="7" in="shadowOffsetOuter1" result="shadowBlurOuter1"></feGaussianBlur>
            <feColorMatrix values="0 0 0 0 0.596034336   0 0 0 0 0.573521359   0 0 0 0 0.92408057  0 0 0 0.100543478 0" type="matrix" in="shadowBlurOuter1"></feColorMatrix>
        </filter>
        <polygon id="path-4" points="2.16783922 2.44572637 70.35975 2.44572637 70.35975 101.661023 2.16783922 101.661023"></polygon>
        <polygon id="path-6" points="0.474005216 0.945455148 48.0010134 0.945455148 48.0010134 79.2904682 0.474005216 79.2904682"></polygon>
        <polygon id="path-8" points="2.920051 1.3354554 60.7774343 1.3354554 60.7774343 90.5020969 2.920051 90.5020969"></polygon>
        <polygon id="path-10" points="1.226217 3.02896999 38.4186977 3.02896999 38.4186977 71.2390871 1.226217 71.2390871"></polygon>
        <polygon id="path-12" points="0.667567993 0.749017676 89.5243813 0.749017676 89.5243813 105.42304 0.667567993 105.42304"></polygon>
        <polygon id="path-14" points="3.11297496 1.50059064 102.300802 1.50059064 102.300802 106.174613 3.11297496 106.174613"></polygon>
        <polygon id="path-16" points="1.05852647 0.00351351575 79.9420656 0.00351351575 79.9420656 105.035276 1.05852647 105.035276"></polygon>
        <polygon id="path-18" points="2.361402 1.5267823 107.03223 1.5267823 107.03223 98.3094484 2.361402 98.3094484"></polygon>
        <polygon id="path-20" points="0.688329677 1.5267823 70.35975 1.5267823 70.35975 77.6445458 0.688329677 77.6445458"></polygon>
        <polygon id="path-22" points="2.38312191 1.5267823 92.7184866 1.5267823 92.7184866 87.9771568 2.38312191 87.9771568"></polygon>
        <polygon id="path-24" points="2.18732326 1.5267823 51.1951186 1.5267823 51.1951186 67.3122542 2.18732326 67.3122542"></polygon>
        <polygon id="path-26" points="1.46258078 1.5267823 66.2837523 1.5267823 66.2837523 56.9796432 1.46258078 56.9796432"></polygon>
        <polygon id="path-28" points="1.26997624 1.5267823 45.4252869 1.5267823 45.4252869 36.3147406 1.26997624 36.3147406"></polygon>
        <polygon id="path-30" points="1.074497 1.5267823 24.567141 1.5267823 24.567141 15.6511156 1.074497 15.6511156"></polygon>
        <polygon id="path-32" points="2.96508788 1.5267823 57.8110688 1.5267823 57.8110688 46.6470322 2.96508788 46.6470322"></polygon>
        <polygon id="path-34" points="2.76928923 1.5267823 36.5980577 1.5267823 36.5980577 25.9805325 2.76928923 25.9805325"></polygon>
        <polygon id="path-36" points="2.96955963 1.5267823 108.001322 1.5267823 108.001322 98.3100872 2.96955963 98.3100872"></polygon>
        <polygon id="path-38" points="1.65518533 1.5267823 87.1454118 1.5267823 87.1454118 77.6445458 1.65518533 77.6445458"></polygon>
        <polygon id="path-40" points="0.15906644 1.5267823 95.9758351 1.5267823 95.9758351 87.9771568 0.15906644 87.9771568"></polygon>
        <polygon id="path-42" points="3.15705361 1.5267823 78.3079614 1.5267823 78.3079614 67.6722298 3.15705361 67.6722298"></polygon>
        <polygon id="path-44" points="2.24034541 1.5267823 46.7533959 1.5267823 46.7533959 36.3147406 2.24034541 36.3147406"></polygon>
        <polygon id="path-46" points="2.04454676 1.5267823 25.5339966 1.5267823 25.5339966 15.6511156 2.04454676 15.6511156"></polygon>
        <polygon id="path-48" points="0.827273254 1.5267823 48.8378689 1.5267823 48.8378689 46.6470322 0.827273254 46.6470322"></polygon>
        <polygon id="path-50" points="0.545233762 1.5267823 34.367614 1.5267823 34.367614 25.9821296 0.545233762 25.9821296"></polygon>
    </defs>
    <g id="Docent" stroke="none" stroke-width="1" fill="none" fill-rule="evenodd">
        <g id="home-111a" transform="translate(-337.000000, -68.000000)">
            <g id="Header" transform="translate(-966.000000, 0.000000)">
                <g id="Banner" transform="translate(0.000000, 31.000000)">
                    <g id="Group-19" transform="translate(1227.000000, 34.000000)">
                        <g id="16953-[Converted]" transform="translate(90.000000, 15.000000)">
                            <mask id="mask-2" fill="white">
                                <use xlink:href="#path-1"></use>
                            </mask>
                            <g id="Mask">
                                <use fill="black" fill-opacity="1" filter="url(#filter-3)" xlink:href="#path-1"></use>
                                <use fill="#202D56" fill-rule="evenodd" xlink:href="#path-1"></use>
                            </g>
                            <g id="Group-2837" opacity="0.2" mask="url(#mask-2)">
                                <g transform="translate(-213.000000, -35.000000)">
                                    <g id="Group-23" transform="translate(183.959133, 0.098405)">
                                        <path d="M767.879506,59.7499117 C792.253723,74.420437 822.204848,82.0224074 850.054251,78.7452555 C845.029924,52.8730031 844.582749,26.2054186 849.405848,0.227760763 L704.396665,0.227760763 C722.4753,23.4520999 742.812168,44.6609586 767.879506,59.7499117" id="Fill-1" fill="#07BEFE"></path>
                                        <path d="M32.1780549,309.980268 C47.3245019,309.038007 62.4038727,303.908274 74.6532662,295.082961 C76.9210809,285.631603 78.6458977,276.122752 78.7353327,266.489331 C78.9716965,240.658602 66.7478558,214.993966 46.538752,198.905258 C33.3311269,188.38707 16.9006496,182.145788 0.0900737674,180.737188 L0.0900737674,306.552993 C10.5539625,309.347835 21.3596205,310.654224 32.1780549,309.980268" id="Fill-3" fill="#1043C0"></path>
                                        <path d="M78.7359715,266.488692 C78.6465366,276.122113 76.9217197,285.630965 74.653905,295.085516 C80.8313045,290.632933 86.3028068,285.257254 90.6755369,278.974449 C103.717069,260.228246 105.582426,233.499973 92.8571107,214.539765 C84.8431007,202.597005 72.2487438,194.662848 61.7976315,184.777092 C51.3497133,174.89453 42.4860713,160.917126 45.6067121,146.875839 C47.9959028,136.118093 56.9585621,127.70482 59.2519296,116.924715 C62.6983692,100.743378 49.3150683,84.820763 33.6607585,79.4642486 C22.9157885,75.7910276 11.48728,75.8069981 0.0907125885,76.9983993 L0.0907125885,180.736549 C16.9012884,182.145149 33.3317657,188.386431 46.5393908,198.904619 C66.7484946,214.993328 78.9723353,240.657963 78.7359715,266.488692" id="Fill-5" fill="#07BEFE"></path>
                                        <path d="M1101.74176,48.3958258 C1096.2479,75.0091106 1070.85795,99.5621975 1044.29258,93.8479432 C1025.3196,89.772265 1012.50804,72.6454727 1000.70582,57.2371091 C988.906797,41.8287455 973.913667,25.6985141 954.515866,25.1938455 C929.959585,24.5550244 913.053186,48.3958258 893.051699,62.6575057 C880.230561,71.7990348 865.461018,76.9319619 850.052654,78.7430196 C862.554382,143.145763 903.323941,202.517791 961.49818,233.392012 C989.871417,248.452219 1021.22156,257.079497 1050.12182,271.095231 C1079.02528,285.10777 1106.66707,306.271911 1117.543,336.494535 C1131.91966,376.427239 1113.96879,422.406383 1127.6747,462.572257 C1138.71033,494.906184 1168.48259,517.44379 1199.67302,531.38606 C1206.75436,534.551418 1213.9922,537.336678 1221.33864,539.783362 C1235.25536,520.465414 1252.51311,503.677197 1268.61459,486.055318 C1286.82738,466.124102 1304.04361,444.260451 1312.01929,418.464858 C1323.29448,381.994564 1314.65442,342.119354 1299.65171,307.019332 C1284.65219,271.91931 1263.51041,239.722729 1248.2362,204.740889 C1232.96199,169.759048 1223.70867,130.120202 1234.12784,93.4007685 C1246.1792,50.9479159 1282.08413,20.3260291 1322.2021,0.228718994 L1099.34299,0.228718994 C1103.19508,16.2088275 1105.04127,32.4189115 1101.74176,48.3958258" id="Fill-7" fill="#2C67F7"></path>
                                        <path d="M850.052974,78.7446167 C865.461337,76.9303649 880.23088,71.7974378 893.052018,62.6591027 C913.053505,48.3974229 929.959904,24.5534274 954.516185,25.1922484 C973.913986,25.7001111 988.907116,41.8271484 1000.70614,57.2355121 C1012.50517,72.6438757 1025.31992,89.7706679 1044.2929,93.8495403 C1070.85827,99.5606004 1096.24822,75.0075135 1101.74208,48.3974229 C1105.04159,32.4205085 1103.1954,16.2104245 1099.3433,0.227121942 L849.407764,0.227121942 C844.581471,26.2047798 845.03184,52.8723643 850.052974,78.7446167" id="Fill-9" fill="#79D8FF"></path>
                                        <path d="M1322.20337,0.228399584 C1282.08222,20.3257097 1246.17728,50.9475965 1234.12912,93.4004491 C1223.70675,130.123077 1232.96327,169.758729 1248.23748,204.740569 C1263.51169,239.72241 1284.65028,271.922184 1299.6498,307.019013 C1314.6557,342.119035 1323.29576,381.994245 1312.02057,418.464538 C1304.04169,444.260132 1286.82866,466.123782 1268.61587,486.058193 C1252.51438,503.676877 1235.25344,520.465095 1221.33992,539.783043 C1285.46158,561.142025 1358.48521,555.242512 1417.94987,522.911779 C1436.69927,512.719389 1453.97299,499.962133 1469.37816,485.224532 L1469.37816,0.228399584 L1322.20337,0.228399584 Z" id="Fill-13" fill="#1043C0"></path>
                                        <path d="M286.798708,486.992788 C262.453238,469.607273 232.537249,462.187367 203.224945,456.201614 C173.909447,450.219055 143.884858,445.140427 117.261991,431.49521 C90.6391241,417.843604 67.4020085,393.708945 63.4189593,364.06126 C60.2951244,340.795398 69.1300195,318.114057 74.6526274,295.084558 C62.4032338,303.906677 47.3238631,309.03641 32.1774161,309.981865 C21.3589817,310.652627 10.5565178,309.349432 0.0894349464,306.55459 L0.0894349464,586.335849 L316.417646,586.335849 C320.078091,579.107589 322.908068,571.569501 324.198487,563.529938 C328.941733,533.990853 311.144178,504.378303 286.798708,486.992788" id="Fill-17" fill="#2C67F7"></path>
                                        <path d="M1232.15691,342.058666 C1282.90166,347.341716 1296.88545,435.454303 1284.9906,469.797323 C1273.09576,504.140342 1204.4704,513.467129 1180.14729,466.194372 C1155.82099,418.918421 1189.6274,337.631637 1232.15691,342.058666" id="Fill-21" fill="#1043C0"></path>
                                    </g>
                                    <g id="Group-2836" opacity="0.204625" transform="translate(0.000000, 17.076503)">
                                        <path d="M1425.04494,347.006953 L1437.28794,359.249959 C1438.82111,359.451187 1440.36387,359.594922 1441.90342,359.732268 L1427.11152,344.940367 L1425.04494,347.006953 Z" id="Fill-24" fill="#231F20"></path>
                                        <g id="Group-28" transform="translate(1443.735563, 322.604628)"></g>
                                        <path d="M1435.37915,336.672745 L1435.02141,336.315005 L1435.01821,336.315005 L1458.78555,360.082342 C1460.07916,360.01846 1461.37597,359.938608 1462.66639,359.830008 L1437.44254,334.609353 L1435.37915,336.672745 Z" id="Fill-32" fill="#231F20"></path>
                                        <polygon id="Fill-37" fill="#231F20" points="1425.04494 347.006953 1427.11152 344.940367 1426.75059 344.579433 1424.6872 346.646019"></polygon>
                                        <path d="M1437.44381,334.607756 L1437.08607,334.250016 L1437.44381,334.607756 Z" id="Fill-45" fill="#231F20"></path>
                                        <polygon id="Fill-47" fill="#231F20" points="1435.02045 336.314047 1435.37819 336.671787 1437.44477 334.608395 1437.08384 334.250655"></polygon>
                                        <g id="Group-55" transform="translate(1402.212195, 156.511156)">
                                            <mask id="mask-5" fill="white">
                                                <use xlink:href="#path-4"></use>
                                            </mask>
                                            <g id="Clip-54"></g>
                                            <path d="M2.16783922,4.51231246 L99.3165497,101.661023 C99.3133556,100.271587 99.3037733,98.8981219 99.3005792,97.5118803 L4.2344253,2.44572637 L2.16783922,4.51231246 Z" id="Fill-53" fill="#231F20" mask="url(#mask-5)"></path>
                                        </g>
                                        <g id="Group-58" transform="translate(1424.570932, 137.346525)">
                                            <mask id="mask-7" fill="white">
                                                <use xlink:href="#path-6"></use>
                                            </mask>
                                            <g id="Clip-57"></g>
                                            <path d="M0.474005216,3.01204123 L76.7524322,79.2904682 C76.7428499,77.9010324 76.7332675,76.5147907 76.7236852,75.1285491 L2.5405913,0.945455148 L0.474005216,3.01204123 Z" id="Fill-56" fill="#231F20" mask="url(#mask-7)"></path>
                                        </g>
                                        <g id="Group-61" transform="translate(1443.735563, 114.987788)"></g>
                                        <g id="Group-67" transform="translate(1411.794511, 146.928840)">
                                            <mask id="mask-9" fill="white">
                                                <use xlink:href="#path-8"></use>
                                            </mask>
                                            <g id="Clip-66"></g>
                                            <path d="M4.62570319,1.3354554 L4.98344298,1.69638929 L2.920051,3.76297537 L89.6559785,90.5020969 C89.6495903,89.1094671 89.6400079,87.7296136 89.6304256,86.3433719 L4.62570319,1.3354554 Z" id="Fill-65" fill="#231F20" mask="url(#mask-9)"></path>
                                        </g>
                                        <g id="Group-70" transform="translate(1434.153247, 124.570104)">
                                            <mask id="mask-11" fill="white">
                                                <use xlink:href="#path-10"></use>
                                            </mask>
                                            <g id="Clip-69"></g>
                                            <path d="M2.93186919,3.02896999 L3.28960897,3.38990388 L1.226217,5.45329586 L67.0120083,71.2390871 C66.9992319,69.8496514 66.9864554,68.4602156 66.9768731,67.0707798 L2.93186919,3.02896999 Z" id="Fill-68" fill="#231F20" mask="url(#mask-11)"></path>
                                        </g>
                                        <polygon id="Fill-74" fill="#231F20" points="1406.4479 158.956883 1406.4479 158.956883 1406.08696 158.595949 1406.08696 158.599143"></polygon>
                                        <polygon id="Fill-76" fill="#231F20" points="1404.02134 160.663174 1404.37908 161.024107 1406.44886 158.957521 1406.08473 158.599782"></polygon>
                                        <path d="M1424.68624,139.998271 L1425.04398,140.359205 L1424.68624,139.998271 Z" id="Fill-78" fill="#231F20"></path>
                                        <polygon id="Fill-80" fill="#231F20" points="1425.04494 140.358566 1427.11152 138.29198 1426.75059 137.931046 1424.6872 139.997632"></polygon>
                                        <polygon id="Fill-88" fill="#231F20" points="1414.35235 150.330563 1414.71009 150.691496 1414.71328 150.691496"></polygon>
                                        <polygon id="Fill-90" fill="#231F20" points="1414.71392 150.690858 1416.77731 148.624272 1416.41958 148.263338 1414.35299 150.329924"></polygon>
                                        <polygon id="Fill-92" fill="#231F20" points="1435.37915 130.024358 1437.44254 127.960966 1437.0848 127.600032 1435.01821 129.666618"></polygon>
                                        <polygon id="Fill-102" fill="#231F20" points="1434.66143 335.956946 1435.01598 336.314686 1435.01917 336.314686"></polygon>
                                        <polygon id="Fill-106" fill="#231F20" points="1323.78509 241.615215 1321.7217 243.681801 1424.32594 346.289238 1426.39253 344.222652"></polygon>
                                        <polygon id="Fill-108" fill="#231F20" points="1424.32435 346.28796 1424.68528 346.6457 1426.75187 344.579114 1426.39093 344.221374"></polygon>
                                        <polygon id="Fill-110" fill="#231F20" points="1444.98925 325.622738 1447.05264 323.559346 1344.45159 220.95191 1342.38501 223.018496"></polygon>
                                        <polygon id="Fill-114" fill="#231F20" points="1465.65767 304.957835 1467.72106 302.894443 1365.11362 200.287007 1363.05023 202.353593 1466.01541 305.318769"></polygon>
                                        <g id="Group-120" transform="translate(1383.047564, 178.869893)">
                                            <mask id="mask-13" fill="white">
                                                <use xlink:href="#path-12"></use>
                                            </mask>
                                            <g id="Clip-119"></g>
                                            <polygon id="Fill-118" fill="#231F20" mask="url(#mask-13)" points="103.275004 105.42304 105.338396 103.356454 2.73095997 0.749017676 0.667567993 2.81560376"></polygon>
                                        </g>
                                        <path d="M1335.11107,277.737671 L1409.59441,352.221011 C1411.69613,353.029119 1413.82021,353.766957 1415.96026,354.456884 L1329.05185,267.542087 C1331.07053,270.937421 1333.0892,274.339143 1335.11107,277.737671" id="Fill-121" fill="#231F20"></path>
                                        <polygon id="Fill-123" fill="#231F20" points="1332.05399 233.34951 1434.66143 335.956946 1436.72482 333.89036 1437.08576 334.2481 1334.11739 231.282924"></polygon>
                                        <polygon id="Fill-125" fill="#231F20" points="1436.72354 333.888763 1434.66015 335.955349 1435.02109 336.313089 1437.08448 334.249697"></polygon>
                                        <polygon id="Fill-127" fill="#231F20" points="1354.42519 210.259323 1354.78293 210.620257 1352.71953 212.686843 1455.32378 315.291085 1457.39036 313.224499 1457.7513 313.585433"></polygon>
                                        <g id="Group-133" transform="translate(1370.271143, 188.452208)">
                                            <mask id="mask-15" fill="white">
                                                <use xlink:href="#path-14"></use>
                                            </mask>
                                            <g id="Clip-132"></g>
                                            <polygon id="Fill-131" fill="#231F20" mask="url(#mask-15)" points="3.11297496 3.56717672 105.717217 106.174613 107.783803 104.108027 108.141543 104.465767 108.144737 104.465767 5.17636693 1.50059064"></polygon>
                                        </g>
                                        <g id="Group-136" transform="translate(1392.629879, 169.287577)">
                                            <mask id="mask-17" fill="white">
                                                <use xlink:href="#path-16"></use>
                                            </mask>
                                            <g id="Clip-135"></g>
                                            <polygon id="Fill-134" fill="#231F20" mask="url(#mask-17)" points="104.023703 104.674342 106.087095 102.607756 3.48285234 0.00351351575 1.41626626 2.06690549 1.05852647 1.70916571 104.381442 105.035276 104.381442 105.032082"></polygon>
                                        </g>
                                        <polygon id="Fill-137" fill="#231F20" points="1323.4264 241.256517 1321.363 243.323103 1321.72074 243.680843 1323.78414 241.614257"></polygon>
                                        <polygon id="Fill-139" fill="#231F20" points="1344.45319 220.95191 1344.45319 220.95191 1344.09226 220.590976 1344.09226 220.59417"></polygon>
                                        <polygon id="Fill-141" fill="#231F20" points="1342.02631 222.658201 1342.38405 223.019135 1344.45383 220.952549 1344.0897 220.594809"></polygon>
                                        <path d="M1362.69121,201.993298 L1363.04895,202.354232 L1362.69121,201.993298 Z" id="Fill-143" fill="#231F20"></path>
                                        <polygon id="Fill-145" fill="#231F20" points="1363.04991 202.353593 1365.1133 200.287007 1364.75556 199.926073 1362.69217 201.992659"></polygon>
                                        <polygon id="Fill-147" fill="#231F20" points="1383.71513 181.686774 1385.77852 179.620188 1385.42078 179.262448 1383.35739 181.329034"></polygon>
                                        <polygon id="Fill-149" fill="#231F20" points="1334.11898 231.282924 1334.11898 231.282924 1333.76124 230.92199"></polygon>
                                        <polygon id="Fill-151" fill="#231F20" points="1331.6953 232.989215 1332.05303 233.350149 1334.11962 231.283563 1333.75869 230.922629"></polygon>
                                        <path d="M1352.35732,212.32559 L1352.71826,212.686524 L1352.35732,212.32559 Z" id="Fill-153" fill="#231F20"></path>
                                        <polygon id="Fill-155" fill="#231F20" points="1352.71922 212.685885 1354.78261 210.619299 1354.42487 210.258365 1352.35828 212.324951"></polygon>
                                        <polygon id="Fill-157" fill="#231F20" points="1373.38412 192.019385 1375.44751 189.952799 1375.08977 189.595059 1373.02318 191.661645"></polygon>
                                        <polygon id="Fill-159" fill="#231F20" points="1396.11401 169.291091 1396.11401 169.291091 1395.75627 168.930157 1395.75308 168.930157"></polygon>
                                        <polygon id="Fill-161" fill="#231F20" points="1393.68713 170.995785 1394.04487 171.356718 1396.11465 169.290132 1395.75052 168.932393"></polygon>
                                        <g id="Group-165" transform="translate(1443.735563, 0.000000)"></g>
                                        <polygon id="Fill-169" fill="#231F20" points="1416.42021 148.264296 1416.42021 148.264296 1416.05928 147.906556"></polygon>
                                        <path d="M1436.72354,127.240376 L1437.08448,127.598116 L1436.72354,127.240376 Z" id="Fill-171" fill="#231F20"></path>
                                        <path d="M1303.11987,55.6304531 L1302.76213,55.2727133 L1303.11987,55.6304531 Z" id="Fill-175" fill="#231F20"></path>
                                        <polygon id="Fill-177" fill="#231F20" points="1406.08633 158.598185 1406.08633 158.598185 1405.72859 158.240445"></polygon>
                                        <polygon id="Fill-179" fill="#231F20" points="1303.11987 55.6304531 1301.05648 57.6970392 1403.66392 160.304476 1405.72731 158.241084"></polygon>
                                        <polygon id="Fill-181" fill="#231F20" points="1405.72763 158.239487 1403.66424 160.302878 1404.02198 160.663812 1406.08537 158.597226"></polygon>
                                        <polygon id="Fill-183" fill="#231F20" points="1321.36141 36.6747162 1321.36141 36.6747162 1321.71915 37.032456"></polygon>
                                        <polygon id="Fill-185" fill="#231F20" points="1323.78509 34.9671476 1321.7217 37.0305396 1424.32914 139.64117 1426.39253 137.574584"></polygon>
                                        <path d="M1424.32754,139.64117 L1424.68528,139.99891 L1424.32754,139.64117 Z" id="Fill-187" fill="#231F20"></path>
                                        <polygon id="Fill-189" fill="#231F20" points="1424.32754 139.64117 1424.68528 139.99891 1426.75187 137.932324 1426.39093 137.574584"></polygon>
                                        <polygon id="Fill-191" fill="#231F20" points="1344.45319 14.3035226 1342.3866 16.3701087 1444.99085 118.974351 1447.05424 116.907765"></polygon>
                                        <g id="Group-199" transform="translate(1360.688827, 0.000000)">
                                            <mask id="mask-19" fill="white">
                                                <use xlink:href="#path-18"></use>
                                            </mask>
                                            <g id="Clip-198"></g>
                                            <polygon id="Fill-197" fill="#231F20" mask="url(#mask-19)" points="104.968838 98.3094484 107.03223 96.2460564 5.01570344 -5.77366461 3.83707861 -5.77366461 2.361402 -4.29798799"></polygon>
                                        </g>
                                        <g id="Group-204" transform="translate(1402.212195, 0.000000)">
                                            <mask id="mask-21" fill="white">
                                                <use xlink:href="#path-20"></use>
                                            </mask>
                                            <g id="Clip-203"></g>
                                            <polygon id="Fill-202" fill="#231F20" mask="url(#mask-21)" points="86.175362 75.5779597 4.82150184 -5.77590048 0.688329677 -5.77590048 84.11197 77.6445458"></polygon>
                                        </g>
                                        <polygon id="Fill-205" fill="#231F20" points="1414.35235 150.330563 1413.99461 149.972823 1416.058 147.906237 1313.45376 45.2988003 1311.38717 47.3653864 1311.02943 47.0044525 1311.02624 47.0076466"></polygon>
                                        <polygon id="Fill-207" fill="#231F20" points="1413.99333 149.971865 1414.35107 150.329604 1416.42085 148.263018 1416.05672 147.905278"></polygon>
                                        <polygon id="Fill-209" fill="#231F20" points="1334.11898 24.6345366 1332.05559 26.7011227 1434.65983 129.305365 1436.72322 127.241973"></polygon>
                                        <polygon id="Fill-211" fill="#231F20" points="1434.65855 129.305365 1435.01629 129.666299 1437.08607 127.599713 1436.72195 127.241973"></polygon>
                                        <polygon id="Fill-213" fill="#231F20" points="1354.78388 3.97123103 1352.72049 6.03781711 1455.32474 108.642059 1457.39132 106.578667 1457.74587 106.936407 1457.74906 106.933213 1354.42615 3.61029714"></polygon>
                                        <g id="Group-219" transform="translate(1379.853459, 0.000000)">
                                            <mask id="mask-23" fill="white">
                                                <use xlink:href="#path-22"></use>
                                            </mask>
                                            <g id="Clip-218"></g>
                                            <polygon id="Fill-217" fill="#231F20" mask="url(#mask-23)" points="98.1998905 85.9105707 6.51629408 -5.77621989 2.38312191 -5.77621989 96.1364986 87.9771568"></polygon>
                                        </g>
                                        <g id="Group-222" transform="translate(1421.376827, 0.000000)">
                                            <mask id="mask-25" fill="white">
                                                <use xlink:href="#path-24"></use>
                                            </mask>
                                            <g id="Clip-221"></g>
                                            <polygon id="Fill-220" fill="#231F20" mask="url(#mask-25)" points="77.3414252 65.2456681 6.32368953 -5.77526166 2.18732326 -5.77526166 75.2780332 67.3122542"></polygon>
                                        </g>
                                        <polygon id="Fill-223" fill="#231F20" points="1303.11987 55.6304531 1302.76213 55.2727133 1300.69555 57.3392994 1301.05648 57.6970392"></polygon>
                                        <polygon id="Fill-225" fill="#231F20" points="1321.7201 37.0321366 1323.7835 34.9687446 1323.42576 34.6078107 1321.36236 36.6743968"></polygon>
                                        <polygon id="Fill-227" fill="#231F20" points="1344.45319 14.3035226 1344.09226 13.9425887 1342.02567 16.0091748 1342.3866 16.3701087"></polygon>
                                        <polygon id="Fill-229" fill="#231F20" points="1313.09538 44.9407411 1313.09538 44.9407411 1313.45312 45.2984809"></polygon>
                                        <polygon id="Fill-231" fill="#231F20" points="1311.3859 47.3644282 1313.45248 45.3010362 1313.09474 44.9401023 1311.03135 47.0066884"></polygon>
                                        <polygon id="Fill-233" fill="#231F20" points="1334.11898 24.6345366 1334.11898 24.6345366 1333.76124 24.2736027"></polygon>
                                        <polygon id="Fill-235" fill="#231F20" points="1334.11898 24.6345366 1333.76124 24.2736027 1331.69466 26.3401888 1332.05559 26.7011227"></polygon>
                                        <path d="M1352.71922,6.0374977 L1352.35828,5.67656381 L1352.71922,6.0374977 Z" id="Fill-237" fill="#231F20"></path>
                                        <polygon id="Fill-239" fill="#231F20" points="1354.78388 3.97123103 1354.42615 3.61029714 1352.35636 5.67688322 1352.72049 6.03781711"></polygon>
                                        <polygon id="Fill-241" fill="#231F20" points="1354.42519 210.259323 1354.42519 210.259323 1354.06425 209.901583"></polygon>
                                        <polygon id="Fill-243" fill="#231F20" points="1393.68713 170.995785 1393.68713 170.995785 1393.32939 170.638045"></polygon>
                                        <path d="M1197.73005,161.023469 L1197.37231,160.662535 L1197.37231,160.665729 L1219.84284,183.133065 C1221.6539,183.548299 1223.46176,183.973115 1225.26004,184.423484 L1199.79664,158.960077 L1197.73005,161.023469 Z" id="Fill-245" fill="#231F20"></path>
                                        <polygon id="Fill-247" fill="#231F20" points="1220.46314 138.29198 1218.39655 140.358566 1321.00399 242.962808 1323.06738 240.896222"></polygon>
                                        <polygon id="Fill-249" fill="#231F20" points="1323.06738 240.896542 1321.00399 242.963128 1321.36173 243.324062 1323.42512 241.257476"></polygon>
                                        <polygon id="Fill-251" fill="#231F20" points="1341.66442 222.299503 1343.7342 220.236111 1241.12357 117.62548 1239.06017 119.692066"></polygon>
                                        <polygon id="Fill-253" fill="#231F20" points="1344.0913 220.593212 1344.0913 220.593212 1343.73675 220.235472"></polygon>
                                        <polygon id="Fill-255" fill="#231F20" points="1343.73579 220.234514 1341.66601 222.297906 1342.02695 222.65884 1344.09034 220.592253"></polygon>
                                        <path d="M1362.33251,201.635878 L1362.69025,201.993618 L1362.33251,201.635878 Z" id="Fill-257" fill="#231F20"></path>
                                        <polygon id="Fill-259" fill="#231F20" points="1259.36638 98.6697434 1259.36638 98.6697434 1259.72093 99.0274832"></polygon>
                                        <polygon id="Fill-261" fill="#231F20" points="1364.3975 199.568014 1261.79326 96.9605777 1259.72348 99.0271638 1362.33411 201.6346"></polygon>
                                        <polygon id="Fill-263" fill="#231F20" points="1362.33251 201.635878 1362.69025 201.993618 1364.75684 199.927031 1364.39591 199.569292"></polygon>
                                        <polygon id="Fill-265" fill="#231F20" points="1282.45816 76.2969528 1280.39158 78.3635388 1382.99901 180.967781 1385.06241 178.901195"></polygon>
                                        <polygon id="Fill-267" fill="#231F20" points="1382.99742 180.967781 1383.35516 181.328715 1385.42174 179.262129 1385.06081 178.901195"></polygon>
                                        <path d="M1208.06426,150.690858 L1249.23308,191.85968 C1251.59991,192.763612 1253.9348,193.73462 1256.25053,194.743957 L1210.12765,148.624272 L1208.06426,150.690858 Z" id="Fill-269" fill="#231F20"></path>
                                        <polygon id="Fill-271" fill="#231F20" points="1333.76028 230.922629 1333.76028 230.922629 1333.40574 230.564889"></polygon>
                                        <polygon id="Fill-273" fill="#231F20" points="1230.79734 127.959369 1228.73076 130.025955 1331.335 232.630197 1333.40478 230.566805 1230.43641 127.598435"></polygon>
                                        <polygon id="Fill-275" fill="#231F20" points="1333.40478 230.565528 1331.335 232.62892 1331.69593 232.989854 1333.75933 230.923267"></polygon>
                                        <polygon id="Fill-277" fill="#231F20" points="1352.0015 211.966892 1354.06489 209.900306 1251.45746 107.292869 1249.39087 109.359455 1249.03632 109.001716 1249.03313 109.001716 1352.35605 212.324632"></polygon>
                                        <polygon id="Fill-279" fill="#231F20" points="1352.0015 211.966892 1352.35605 212.324632 1354.42583 210.258045 1354.06489 209.900306"></polygon>
                                        <polygon id="Fill-281" fill="#231F20" points="1272.12396 86.6295638 1270.06056 88.6961498 1372.66481 191.300392 1374.73139 189.233806"></polygon>
                                        <polygon id="Fill-283" fill="#231F20" points="1372.66353 191.300392 1373.02127 191.661326 1375.09105 189.59474 1374.73011 189.233806"></polygon>
                                        <polygon id="Fill-285" fill="#231F20" points="1292.78918 65.9646612 1290.72579 68.0312473 1393.33003 170.638684 1395.39661 168.572098 1395.75116 168.929837 1395.75435 168.929837 1292.43144 65.6069214"></polygon>
                                        <polygon id="Fill-287" fill="#231F20" points="1395.39661 168.572098 1393.33003 170.635489 1393.68777 170.996423 1395.75116 168.929837"></polygon>
                                        <polygon id="Fill-289" fill="#231F20" points="1199.79823 158.95848 1199.79823 158.95848 1199.44049 158.597546 1199.4373 158.597546"></polygon>
                                        <polygon id="Fill-291" fill="#231F20" points="1197.37135 160.663174 1197.72909 161.024107 1199.79887 158.957521 1199.43474 158.599782"></polygon>
                                        <polygon id="Fill-293" fill="#231F20" points="1220.10444 137.931685 1218.03785 139.998271 1218.39559 140.359205 1220.46218 138.292619"></polygon>
                                        <polygon id="Fill-295" fill="#231F20" points="1241.12516 117.627077 1240.76742 117.269338 1238.70084 119.335924 1239.06177 119.693663"></polygon>
                                        <polygon id="Fill-297" fill="#231F20" points="1259.72188 99.0268444 1261.79166 96.9634524 1261.43073 96.6025185 1259.36734 98.6691046"></polygon>
                                        <polygon id="Fill-299" fill="#231F20" points="1282.45816 76.2969528 1282.10042 75.9360189 1280.03064 78.002605 1280.39158 78.3635388"></polygon>
                                        <polygon id="Fill-301" fill="#231F20" points="1208.06426 150.690858 1210.12765 148.624272 1209.76991 148.263338 1207.70652 150.329924"></polygon>
                                        <path d="M1228.72916,130.025955 L1228.37142,129.665021 L1228.72916,130.025955 Z" id="Fill-303" fill="#231F20"></path>
                                        <polygon id="Fill-305" fill="#231F20" points="1230.43545 127.599074 1228.37206 129.66566 1228.7298 130.026594 1230.79639 127.960008"></polygon>
                                        <polygon id="Fill-307" fill="#231F20" points="1251.10035 106.935768 1251.10035 106.935768 1251.45809 107.293508"></polygon>
                                        <polygon id="Fill-309" fill="#231F20" points="1249.39087 109.359455 1251.45746 107.296063 1251.09972 106.93513 1249.03632 109.001716"></polygon>
                                        <polygon id="Fill-311" fill="#231F20" points="1272.12396 86.6295638 1271.76622 86.2686299 1269.69963 88.335216 1270.06056 88.6961498"></polygon>
                                        <polygon id="Fill-313" fill="#231F20" points="1290.3623 67.6722298 1290.3623 67.6722298 1290.72323 68.0299696"></polygon>
                                        <polygon id="Fill-315" fill="#231F20" points="1292.78918 65.9646612 1292.43144 65.6069214 1290.36166 67.6735075 1290.72579 68.0312473"></polygon>
                                        <path d="M1187.39904,171.354483 L1187.0413,170.996743 L1187.0381,170.996743 L1194.38774,178.349573 C1196.02631,178.605101 1197.66489,178.857436 1199.30666,179.132129 L1189.46243,169.291091 L1187.39904,171.354483 Z" id="Fill-317" fill="#231F20"></path>
                                        <path d="M1189.46403,169.289494 L1189.10629,168.931754 L1189.46403,169.289494 Z" id="Fill-319" fill="#231F20"></path>
                                        <polygon id="Fill-321" fill="#231F20" points="1187.04034 170.995785 1187.39808 171.353524 1189.46466 169.290132 1189.10373 168.932393"></polygon>
                                        <path d="M1302.76117,55.2733522 L1302.40343,54.9124183 L1302.76117,55.2733522 Z" id="Fill-323" fill="#231F20"></path>
                                        <polygon id="Fill-325" fill="#231F20" points="1321.00271 36.3144212 1321.00271 36.3144212 1321.36045 36.6753551"></polygon>
                                        <polygon id="Fill-327" fill="#231F20" points="1310.6685 46.6470322 1310.6685 46.6470322 1311.02624 47.0079661 1311.02943 47.0047719"></polygon>
                                        <g id="Group-333" transform="translate(1236.118723, 0.000000)">
                                            <mask id="mask-27" fill="white">
                                                <use xlink:href="#path-26"></use>
                                            </mask>
                                            <g id="Clip-332"></g>
                                            <polygon id="Fill-331" fill="#231F20" mask="url(#mask-27)" points="66.2837523 54.9130571 5.59575295 -5.77494225 1.46258078 -5.77494225 64.2171662 56.9796432"></polygon>
                                        </g>
                                        <polygon id="Fill-334" fill="#231F20" points="1302.40248 54.9130571 1300.33589 56.9796432 1300.69682 57.3405771 1302.76022 55.273991"></polygon>
                                        <g id="Group-338" transform="translate(1277.642091, 0.000000)">
                                            <mask id="mask-29" fill="white">
                                                <use xlink:href="#path-28"></use>
                                            </mask>
                                            <g id="Clip-337"></g>
                                            <polygon id="Fill-336" fill="#231F20" mask="url(#mask-29)" points="45.4252869 34.2481545 5.4031484 -5.77398402 1.26997624 -5.77398402 43.3618949 36.3147406"></polygon>
                                        </g>
                                        <polygon id="Fill-339" fill="#231F20" points="1323.4264 34.6084496 1323.06866 34.2475157 1321.00207 36.3141017 1321.363 36.6750356"></polygon>
                                        <g id="Group-343" transform="translate(1319.165459, 0.000000)">
                                            <mask id="mask-31" fill="white">
                                                <use xlink:href="#path-30"></use>
                                            </mask>
                                            <g id="Clip-342"></g>
                                            <polygon id="Fill-341" fill="#231F20" mask="url(#mask-31)" points="24.567141 13.5845295 5.20447506 -5.77494225 1.074497 -5.77494225 22.5005549 15.6511156"></polygon>
                                        </g>
                                        <polygon id="Fill-344" fill="#231F20" points="1343.7326 13.5845295 1341.66601 15.6511156 1342.02695 16.0088554 1344.09034 13.9422693"></polygon>
                                        <g id="Group-348" transform="translate(1255.283355, 0.000000)">
                                            <mask id="mask-33" fill="white">
                                                <use xlink:href="#path-32"></use>
                                            </mask>
                                            <g id="Clip-347"></g>
                                            <polygon id="Fill-346" fill="#231F20" mask="url(#mask-33)" points="57.453329 44.5804461 57.8110688 44.94138 7.09506594 -5.77462284 2.96508788 -5.77462284 55.3867429 46.6470322"></polygon>
                                        </g>
                                        <polygon id="Fill-349" fill="#231F20" points="1313.09538 44.9407411 1312.73764 44.5798073 1310.66786 46.6463933 1311.03199 47.0041331"></polygon>
                                        <path d="M1333.76028,24.2742415 L1333.40574,23.9165017 L1333.76028,24.2742415 Z" id="Fill-351" fill="#231F20"></path>
                                        <g id="Group-355" transform="translate(1296.806723, 0.000000)">
                                            <mask id="mask-35" fill="white">
                                                <use xlink:href="#path-34"></use>
                                            </mask>
                                            <g id="Clip-354"></g>
                                            <polygon id="Fill-353" fill="#231F20" mask="url(#mask-35)" points="36.5980577 23.9171405 6.9056555 -5.77526166 2.76928923 -5.77526166 34.5282775 25.9805325"></polygon>
                                        </g>
                                        <polygon id="Fill-356" fill="#231F20" points="1333.40478 23.9171405 1331.335 25.9805325 1331.69593 26.3414664 1333.75933 24.2748803"></polygon>
                                        <g id="Group-360" transform="translate(1338.330091, 0.000000)"></g>
                                        <polygon id="Fill-361" fill="#231F20" points="1354.06361 3.25223794 1352.00022 5.31562992 1352.35796 5.67656381 1354.42455 3.60997773"></polygon>
                                        <polygon id="Fill-363" fill="#231F20" points="1197.00946 160.304476 1197.37039 160.665409 1197.37039 160.662215 1197.01265 160.304476"></polygon>
                                        <polygon id="Fill-365" fill="#231F20" points="1259.36638 98.6697434 1259.36638 98.6697434 1259.00545 98.3088095"></polygon>
                                        <polygon id="Fill-367" fill="#231F20" points="1230.43545 127.599074 1230.07771 127.23814 1230.07771 127.241334"></polygon>
                                        <polygon id="Fill-369" fill="#231F20" points="1248.67347 108.642059 1248.67347 108.642059 1249.03121 109.002993 1249.03441 108.999799"></polygon>
                                        <polygon id="Fill-371" fill="#231F20" points="1292.43048 65.6059632 1292.07274 65.2450293 1292.06955 65.2482234"></polygon>
                                        <polygon id="Fill-373" fill="#231F20" points="1094.40841 57.6986363 1197.01265 160.306073 1199.07924 158.239487 1199.43698 158.597226 1199.44017 158.597226 1096.4718 55.6320502"></polygon>
                                        <path d="M1096.47308,55.6304531 L1096.11534,55.2727133 L1096.47308,55.6304531 Z" id="Fill-375" fill="#231F20"></path>
                                        <polygon id="Fill-377" fill="#231F20" points="1199.07764 158.237889 1197.01425 160.304476 1197.37199 160.662215 1199.43538 158.598823"></polygon>
                                        <polygon id="Fill-379" fill="#231F20" points="1219.74255 137.572987 1117.1383 34.9655505 1115.06852 37.0321366 1114.71398 36.6743968 1114.71078 36.6743968 1217.67915 139.639573"></polygon>
                                        <polygon id="Fill-381" fill="#231F20" points="1219.74255 137.572987 1217.67915 139.639573 1218.03689 139.997313 1220.10348 137.930727"></polygon>
                                        <polygon id="Fill-383" fill="#231F20" points="1137.80321 14.3035226 1135.73662 16.3701087 1238.34406 118.974351 1240.40745 116.907765"></polygon>
                                        <polygon id="Fill-385" fill="#231F20" points="1240.40745 116.908084 1238.34406 118.97467 1238.7018 119.335604 1240.76519 117.269018"></polygon>
                                        <g id="Group-389" transform="translate(1153.071987, 0.000000)">
                                            <mask id="mask-37" fill="white">
                                                <use xlink:href="#path-36"></use>
                                            </mask>
                                            <g id="Clip-388"></g>
                                            <polygon id="Fill-387" fill="#231F20" mask="url(#mask-37)" points="2.96955963 -4.65508896 2.96955963 -4.65508896 105.931542 98.3100872 108.001322 96.2435011 5.98160086 -5.77621989 4.80617014 -5.77621989 3.32729942 -4.29734917"></polygon>
                                        </g>
                                        <polygon id="Fill-390" fill="#231F20" points="1261.43137 96.6031573 1261.07363 96.2422234 1259.00385 98.3088095 1259.36798 98.6697434"></polygon>
                                        <g id="Group-394" transform="translate(1194.595355, 0.000000)">
                                            <mask id="mask-39" fill="white">
                                                <use xlink:href="#path-38"></use>
                                            </mask>
                                            <g id="Clip-393"></g>
                                            <polygon id="Fill-392" fill="#231F20" mask="url(#mask-39)" points="87.1454118 75.5779597 5.7915516 -5.77590048 1.65518533 -5.77590048 85.0788257 77.6445458"></polygon>
                                        </g>
                                        <polygon id="Fill-395" fill="#231F20" points="1281.74077 75.5779597 1279.67418 77.6445458 1280.03192 78.0022855 1282.09851 75.9356995"></polygon>
                                        <polygon id="Fill-397" fill="#231F20" points="1207.34686 149.971865 1209.41025 147.905278 1106.80282 45.2978421 1104.73943 47.3644282"></polygon>
                                        <polygon id="Fill-399" fill="#231F20" points="1207.34686 149.971865 1207.7046 150.329604 1209.77119 148.263018 1209.41025 147.905278"></polygon>
                                        <polygon id="Fill-401" fill="#231F20" points="1125.04563 26.3424246 1125.04563 26.3424246 1125.40337 26.7001644"></polygon>
                                        <polygon id="Fill-403" fill="#231F20" points="1228.00857 129.305365 1230.07516 127.241973 1127.46772 24.6345366 1125.40433 26.6979285 1228.3695 129.666299"></polygon>
                                        <polygon id="Fill-405" fill="#231F20" points="1228.37046 129.66566 1230.43385 127.599074 1230.07612 127.241334 1228.00953 129.304726"></polygon>
                                        <polygon id="Fill-407" fill="#231F20" points="1148.13709 3.97123103 1146.07051 6.03781711 1248.67475 108.642059 1250.73814 106.575473 1251.09908 106.936407 1147.77616 3.61029714"></polygon>
                                        <polygon id="Fill-409" fill="#231F20" points="1251.10035 106.935768 1250.73942 106.574834 1248.67283 108.641421 1249.03696 108.99916"></polygon>
                                        <g id="Group-413" transform="translate(1175.430724, 0.000000)">
                                            <mask id="mask-41" fill="white">
                                                <use xlink:href="#path-40"></use>
                                            </mask>
                                            <g id="Clip-412"></g>
                                            <polygon id="Fill-411" fill="#231F20" mask="url(#mask-41)" points="95.9758351 85.9105707 4.2890445 -5.77621989 0.15906644 -5.77621989 93.909249 87.9771568"></polygon>
                                        </g>
                                        <polygon id="Fill-414" fill="#231F20" points="1271.40656 85.9105707 1269.33997 87.9771568 1269.70091 88.3348965 1271.7643 86.2683105"></polygon>
                                        <g id="Group-418" transform="translate(1213.759987, 0.000000)">
                                            <mask id="mask-43" fill="white">
                                                <use xlink:href="#path-42"></use>
                                            </mask>
                                            <g id="Clip-417"></g>
                                            <polygon id="Fill-416" fill="#231F20" mask="url(#mask-43)" points="76.6023092 67.6722298 76.2445694 67.3112959 78.3079614 65.247904 7.28703167 -5.77621989 3.15705361 -5.77621989"></polygon>
                                        </g>
                                        <polygon id="Fill-419" fill="#231F20" points="1292.06859 65.2472651 1290.00519 67.3106571 1290.36293 67.671591 1292.42952 65.6050049"></polygon>
                                        <polygon id="Fill-421" fill="#231F20" points="1096.47308 55.6304531 1096.11534 55.2727133 1094.04556 57.3392994 1094.40969 57.6970392"></polygon>
                                        <polygon id="Fill-423" fill="#231F20" points="1116.77961 34.6084496 1116.77961 34.6084496 1117.13735 34.9661893"></polygon>
                                        <polygon id="Fill-425" fill="#231F20" points="1115.07012 37.0321366 1117.13671 34.9687446 1116.77897 34.6078107 1114.71557 36.6743968"></polygon>
                                        <polygon id="Fill-427" fill="#231F20" points="1137.80321 14.3035226 1137.44547 13.9425887 1135.37569 16.0091748 1135.73662 16.3701087"></polygon>
                                        <polygon id="Fill-429" fill="#231F20" points="1106.8041 45.2994392 1106.44636 44.9416994 1104.37977 47.0082855 1104.7407 47.3660252"></polygon>
                                        <polygon id="Fill-431" fill="#231F20" points="1125.40433 26.6995256 1127.46772 24.6361336 1127.10998 24.2751997 1125.04659 26.3417858"></polygon>
                                        <path d="M1146.06923,6.0374977 L1145.71149,5.67656381 L1146.06923,6.0374977 Z" id="Fill-433" fill="#231F20"></path>
                                        <polygon id="Fill-435" fill="#231F20" points="1148.13709 3.97123103 1147.77616 3.61029714 1145.70957 5.67688322 1146.07051 6.03781711"></polygon>
                                        <polygon id="Fill-437" fill="#231F20" points="1186.67877 170.637087 1187.03651 170.99802 1187.0397 170.994826"></polygon>
                                        <path d="M1053.07509,99.0268444 L1052.72055,98.6691046 L1052.71735,98.6691046 L1120.40364,166.355388 C1122.18914,166.783399 1123.97784,167.198632 1125.77293,167.591507 L1055.14168,96.9634524 L1053.07509,99.0268444 Z" id="Fill-439" fill="#231F20"></path>
                                        <path d="M1073.74319,78.3635388 L1073.38545,78.002605 L1073.38226,78.0057991 L1170.30099,174.92134 C1171.89485,175.138539 1173.4919,175.358932 1175.08895,175.576131 L1075.80658,76.3001469 L1073.74319,78.3635388 Z" id="Fill-441" fill="#231F20"></path>
                                        <path d="M1042.7444,109.361052 L1089.94369,156.560345 C1091.22133,157.103343 1092.49259,157.659118 1093.77662,158.157398 C1094.77637,158.547079 1095.78252,158.901625 1096.78866,159.272141 L1044.80779,107.294466 L1042.7444,109.361052 Z" id="Fill-443" fill="#231F20"></path>
                                        <path d="M1065.11559,86.2708657 L1065.47653,86.6286055 L1063.40994,88.6951916 L1146.1181,171.403352 C1147.75029,171.668463 1149.38886,171.927186 1151.02425,172.176326 L1065.11559,86.2708657 Z" id="Fill-445" fill="#231F20"></path>
                                        <polygon id="Fill-447" fill="#231F20" points="1085.78049 65.6059632 1086.13823 65.9637029 1084.07484 68.030289 1186.67908 170.637725 1188.74248 168.571139 1189.1066 168.932073"></polygon>
                                        <polygon id="Fill-449" fill="#231F20" points="1188.74344 168.5705 1186.68004 170.637087 1187.04098 170.994826 1189.10437 168.931434"></polygon>
                                        <path d="M1055.14328,96.9621748 L1054.78554,96.604435 L1055.14328,96.9621748 Z" id="Fill-451" fill="#231F20"></path>
                                        <polygon id="Fill-453" fill="#231F20" points="1052.71959 98.6681464 1053.07413 99.0258862 1055.14392 96.9624942 1054.78298 96.6047544"></polygon>
                                        <polygon id="Fill-455" fill="#231F20" points="1075.80818 76.2985498 1075.80818 76.2985498 1075.45044 75.9376159 1075.45044 75.9376159"></polygon>
                                        <polygon id="Fill-457" fill="#231F20" points="1073.38449 78.0032438 1073.74223 78.3641777 1075.80882 76.2975916 1075.44788 75.9398518"></polygon>
                                        <polygon id="Fill-459" fill="#231F20" points="1042.7444 109.361052 1044.80779 107.294466 1044.45005 106.936727 1042.38666 109.003313"></polygon>
                                        <path d="M1063.0506,88.3374518 L1063.40834,88.6951916 L1063.0506,88.3374518 Z" id="Fill-461" fill="#231F20"></path>
                                        <polygon id="Fill-463" fill="#231F20" points="1063.4093 88.6945528 1065.47589 86.6311608 1065.11495 86.2702269 1063.05156 88.336813"></polygon>
                                        <path d="M1083.71551,67.6722298 L1084.07325,68.0299696 L1083.71551,67.6722298 Z" id="Fill-465" fill="#231F20"></path>
                                        <polygon id="Fill-467" fill="#231F20" points="1085.78049 65.6059632 1083.7171 67.6725492 1084.07484 68.030289 1086.13823 65.9637029"></polygon>
                                        <path d="M1096.11438,55.2733522 L1095.75345,54.9124183 L1096.11438,55.2733522 Z" id="Fill-469" fill="#231F20"></path>
                                        <polygon id="Fill-471" fill="#231F20" points="1114.35272 36.3144212 1114.35272 36.3144212 1114.71046 36.6753551 1114.71366 36.6721609"></polygon>
                                        <polygon id="Fill-473" fill="#231F20" points="1124.68693 25.9821296 1124.68693 25.9821296 1125.04467 26.3430635"></polygon>
                                        <path d="M1095.75281,54.9130571 L1049.92698,9.08722937 C1049.28497,9.82187358 1048.66212,10.5788765 1048.03927,11.3294912 L1093.68942,56.9796432 L1095.75281,54.9130571 Z" id="Fill-477" fill="#231F20"></path>
                                        <polygon id="Fill-479" fill="#231F20" points="1095.75281 54.9130571 1093.68942 56.9796432 1094.04716 57.3405771 1096.11374 55.273991"></polygon>
                                        <g id="Group-483" transform="translate(1070.025251, 0.000000)">
                                            <mask id="mask-45" fill="white">
                                                <use xlink:href="#path-44"></use>
                                            </mask>
                                            <g id="Clip-482"></g>
                                            <polygon id="Fill-481" fill="#231F20" mask="url(#mask-45)" points="46.3956561 34.2481545 46.7533959 34.6090884 6.37351757 -5.77398402 2.24034541 -5.77398402 44.32907 36.3147406"></polygon>
                                        </g>
                                        <polygon id="Fill-484" fill="#231F20" points="1116.77961 34.6084496 1116.42187 34.2475157 1114.35209 36.3141017 1114.71621 36.6718415"></polygon>
                                        <g id="Group-488" transform="translate(1111.548619, 0.000000)">
                                            <mask id="mask-47" fill="white">
                                                <use xlink:href="#path-46"></use>
                                            </mask>
                                            <g id="Clip-487"></g>
                                            <polygon id="Fill-486" fill="#231F20" mask="url(#mask-47)" points="25.5339966 13.5845295 6.17452482 -5.77494225 2.04454676 -5.77494225 23.4706046 15.6511156"></polygon>
                                        </g>
                                        <polygon id="Fill-489" fill="#231F20" points="1137.08262 13.5845295 1135.01922 15.6511156 1135.37696 16.0088554 1137.44355 13.9422693"></polygon>
                                        <g id="Group-493" transform="translate(1057.248831, 0.000000)">
                                            <mask id="mask-49" fill="white">
                                                <use xlink:href="#path-48"></use>
                                            </mask>
                                            <g id="Clip-492"></g>
                                            <path d="M48.8378689,44.5804461 L2.96093555,-1.29648731 C2.23267955,-0.651278056 1.53636461,0.0386486733 0.827273254,0.703022561 L46.7712829,46.6470322 L48.8378689,44.5804461 Z" id="Fill-491" fill="#231F20" mask="url(#mask-49)"></path>
                                        </g>
                                        <polygon id="Fill-494" fill="#231F20" points="1106.0867 44.5804461 1104.02011 46.6470322 1104.38105 47.0079661 1106.44444 44.94138"></polygon>
                                        <g id="Group-498" transform="translate(1092.383988, 0.000000)">
                                            <mask id="mask-51" fill="white">
                                                <use xlink:href="#path-50"></use>
                                            </mask>
                                            <g id="Clip-497"></g>
                                            <polygon id="Fill-496" fill="#231F20" mask="url(#mask-51)" points="34.367614 23.9155435 4.67521182 -5.77366461 0.545233762 -5.77366461 32.304222 25.9821296"></polygon>
                                        </g>
                                        <polygon id="Fill-499" fill="#231F20" points="1127.1103 24.2758386 1126.75256 23.9149047 1124.68597 25.9814907 1125.04691 26.3424246"></polygon>
                                        <g id="Group-503" transform="translate(1133.907356, 0.000000)"></g>
                                        <polygon id="Fill-504" fill="#231F20" points="1147.41682 3.253835 1145.35343 5.31722697 1145.71117 5.67816086 1147.77456 3.61157478"></polygon>
                                        <polygon id="Fill-506" fill="#231F20" points="1052.3577 98.3094484 1052.71544 98.6703822 1052.71863 98.6671881"></polygon>
                                        <polygon id="Fill-508" fill="#231F20" points="1073.0226 77.6461428 1073.38034 78.0038826 1073.38353 78.0038826 1073.02579 77.6461428"></polygon>
                                        <polygon id="Fill-510" fill="#231F20" points="1065.11559 86.2708657 1065.11559 86.2708657 1064.75785 85.9099319"></polygon>
                                        <polygon id="Fill-512" fill="#231F20" points="1085.78049 65.6059632 1085.42595 65.2482234 1085.42276 65.2482234"></polygon>
                                        <path d="M1054.42588,96.2431817 L1054.78362,96.6041156 L1024.3949,66.2122043 C1024.2895,67.5122052 1024.20964,68.8154001 1024.16812,70.1217891 L1052.35929,98.3097678 L1054.42588,96.2431817 Z" id="Fill-514" fill="#231F20"></path>
                                        <polygon id="Fill-516" fill="#231F20" points="1054.42588 96.2431817 1052.35929 98.3097678 1052.72023 98.6675075 1054.78362 96.6041156"></polygon>
                                        <path d="M1075.08759,75.5779597 L1075.44852,75.9388936 L1075.44852,75.9356995 L1033.42368,33.910857 C1032.97331,34.8403416 1032.49739,35.7570498 1032.07577,36.6993108 L1073.0242,77.6445458 L1075.08759,75.5779597 Z" id="Fill-518" fill="#231F20"></path>
                                        <polygon id="Fill-520" fill="#231F20" points="1075.08759 75.5779597 1073.0242 77.6445458 1073.38513 78.0022855 1075.44852 75.9388936"></polygon>
                                        <path d="M1044.09167,106.575473 L1025.79264,88.2764444 C1025.79584,88.2956091 1025.79903,88.3147737 1025.80223,88.3371324 C1026.21746,90.2184604 1026.72532,92.0678473 1027.27471,93.8948755 L1042.02828,108.642059 L1044.09167,106.575473 Z" id="Fill-522" fill="#231F20"></path>
                                        <polygon id="Fill-524" fill="#231F20" points="1042.02668 108.642059 1042.38442 109.002993 1044.45101 106.936407 1044.09008 106.575473"></polygon>
                                        <path d="M1063.0506,88.3358548 L1062.69286,87.978115 L1064.75626,85.9115289 L1027.60881,48.7640851 C1027.2894,49.8500809 1027.04346,50.9520472 1026.76237,52.0476253 L1063.0506,88.3358548 Z" id="Fill-526" fill="#231F20"></path>
                                        <polygon id="Fill-528" fill="#231F20" points="1062.69191 87.9771568 1063.04965 88.3348965 1065.11623 86.2715046 1064.7553 85.9105707"></polygon>
                                        <path d="M1083.71551,67.6722298 L1083.35457,67.3112959 L1085.42116,65.247904 L1040.95602,20.7827651 C1040.40344,21.6100383 1039.85086,22.4373116 1039.32064,23.2773613 L1083.71551,67.6722298 Z" id="Fill-530" fill="#231F20"></path>
                                        <polygon id="Fill-532" fill="#231F20" points="1085.4218 65.2485428 1083.35521 67.3119348 1083.71614 67.6728686 1085.77954 65.6062826"></polygon>
                                        <path d="M303.343215,11.260818 L303.343215,11.260818 C303.343215,9.67973589 302.062379,8.3988997 300.481297,8.3988997 L300.481297,11.260818 L303.343215,11.260818 Z" id="Fill-1858" fill="#000000"></path>
                                        <path d="M303.343215,30.353582 L303.343215,30.353582 C303.343215,28.7693058 302.062379,27.4884696 300.481297,27.4884696 L300.481297,30.353582 L303.343215,30.353582 Z" id="Fill-1860" fill="#000000"></path>
                                        <path d="M300.4797,14.1243333 C302.060782,14.1243333 303.341618,12.8434971 303.341618,11.262415 L300.4797,11.262415 L300.4797,14.1243333 Z" id="Fill-1862" fill="#000000"></path>
                                        <path d="M300.4797,33.2170973 C302.060782,33.2170973 303.341618,31.9362611 303.341618,30.355179 L300.4797,30.355179 L300.4797,33.2170973 Z" id="Fill-1864" fill="#000000"></path>
                                        <path d="M300.4797,11.260818 L300.4797,8.3988997 C298.898618,8.3988997 297.617782,9.67973589 297.617782,11.260818 L300.4797,11.260818 Z" id="Fill-1866" fill="#000000"></path>
                                        <g id="Group-1870" transform="translate(287.469471, 0.000000)"></g>
                                        <path d="M281.386936,11.260818 L284.248854,11.260818 C284.248854,9.67973589 282.968018,8.3988997 281.386936,8.3988997 L281.386936,11.260818 Z" id="Fill-1871" fill="#000000"></path>
                                        <path d="M281.386936,27.488789 L281.386936,30.3539014 L284.248854,30.3539014 C284.248854,28.7696252 282.968018,27.488789 281.386936,27.488789" id="Fill-1873" fill="#000000"></path>
                                        <path d="M284.250451,11.260818 L281.388533,11.260818 L281.388533,14.1227363 C282.969615,14.1227363 284.250451,12.8419001 284.250451,11.260818" id="Fill-1875" fill="#000000"></path>
                                        <path d="M293.798271,20.8073597 C293.798271,19.2230835 292.517434,17.9422473 290.936352,17.9422473 C289.352076,17.9422473 288.068046,19.2230835 288.068046,20.8073597 C288.068046,22.3884418 289.352076,23.669278 290.936352,23.669278 C292.517434,23.669278 293.798271,22.3884418 293.798271,20.8073597" id="Fill-1877" fill="#000000"></path>
                                        <path d="M297.616185,11.260818 C297.616185,12.8419001 298.897021,14.1227363 300.478103,14.1227363 L300.478103,11.260818 L297.616185,11.260818 Z" id="Fill-1879" fill="#000000"></path>
                                        <path d="M297.616185,30.353582 L297.616185,30.353582 L300.478103,30.353582 L300.478103,27.4884696 C298.897021,27.4884696 297.616185,28.7693058 297.616185,30.353582" id="Fill-1881" fill="#000000"></path>
                                        <path d="M284.250451,49.4450683 L284.250451,49.4450683 C284.250451,47.8639863 282.969615,46.5831501 281.388533,46.5831501 L281.388533,49.4450683 L284.250451,49.4450683 Z" id="Fill-1883" fill="#000000"></path>
                                        <path d="M297.616185,30.353582 C297.616185,31.9346641 298.897021,33.2155003 300.478103,33.2155003 L300.478103,30.353582 L297.616185,30.353582 Z" id="Fill-1885" fill="#000000"></path>
                                        <path d="M290.934755,37.0350113 C289.353673,37.0350113 288.069643,38.3158475 288.069643,39.8969296 C288.069643,41.4812058 289.353673,42.762042 290.934755,42.762042 C292.515837,42.762042 293.796674,41.4812058 293.796674,39.8969296 C293.796674,38.3158475 292.515837,37.0350113 290.934755,37.0350113" id="Fill-1887" fill="#000000"></path>
                                        <path d="M281.386936,30.353582 L281.386936,33.2155003 C282.968018,33.2155003 284.248854,31.9346641 284.248854,30.353582 L281.386936,30.353582 Z" id="Fill-1889" fill="#000000"></path>
                                        <path d="M281.386936,52.3085837 C282.968018,52.3085837 284.248854,51.0277475 284.248854,49.4466654 L281.386936,49.4466654 L281.386936,52.3085837 Z" id="Fill-1891" fill="#000000"></path>
                                        <path d="M288.068365,58.99161 C288.068365,59.5952959 288.298341,60.1255174 288.617751,60.5886627 C289.818735,59.2311679 290.920701,57.7906265 292.019473,56.3468909 C291.684092,56.2095444 291.319964,56.1296918 290.933478,56.1296918 C289.352396,56.1296918 288.068365,57.410528 288.068365,58.99161" id="Fill-1893" fill="#000000"></path>
                                        <path d="M281.386936,67.6754239 C281.936322,67.1995023 282.511261,66.7555216 283.044677,66.2636294 C282.571949,65.9186661 282.016175,65.67272 281.386936,65.67272 L281.386936,67.6754239 Z" id="Fill-1895" fill="#000000"></path>
                                        <path d="M281.386936,11.260818 L281.386936,8.3988997 C279.805854,8.3988997 278.525018,9.67973589 278.525018,11.260818 L281.386936,11.260818 Z" id="Fill-1897" fill="#000000"></path>
                                        <path d="M262.297047,11.260818 L265.158965,11.260818 C265.158965,9.67973589 263.878129,8.3988997 262.297047,8.3988997 L262.297047,11.260818 Z" id="Fill-1899" fill="#000000"></path>
                                        <g id="Group-1903" transform="translate(268.304839, 0.000000)"></g>
                                        <path d="M278.523421,11.260818 C278.523421,12.8419001 279.804257,14.1227363 281.385339,14.1227363 L281.385339,11.260818 L278.523421,11.260818 Z" id="Fill-1904" fill="#000000"></path>
                                        <path d="M265.160562,11.260818 L262.298644,11.260818 L262.298644,14.1227363 C263.879726,14.1227363 265.160562,12.8419001 265.160562,11.260818" id="Fill-1906" fill="#000000"></path>
                                        <path d="M281.386936,30.353582 L281.386936,27.4884696 C279.805854,27.4884696 278.525018,28.7693058 278.525018,30.353582 L281.386936,30.353582 Z" id="Fill-1908" fill="#000000"></path>
                                        <path d="M265.160562,30.353582 L265.160562,30.353582 C265.160562,28.7693058 263.879726,27.4884696 262.298644,27.4884696 L262.298644,30.353582 L265.160562,30.353582 Z" id="Fill-1910" fill="#000000"></path>
                                        <path d="M271.841991,17.9422473 C270.260909,17.9422473 268.980073,19.2230835 268.980073,20.8073597 C268.980073,22.3884418 270.260909,23.669278 271.841991,23.669278 C273.423073,23.669278 274.70391,22.3884418 274.70391,20.8073597 C274.70391,19.2230835 273.423073,17.9422473 271.841991,17.9422473" id="Fill-1912" fill="#000000"></path>
                                        <path d="M274.705507,39.8985266 C274.705507,38.3174445 273.42467,37.0366084 271.843588,37.0366084 C270.259312,37.0366084 268.978476,38.3174445 268.978476,39.8985266 C268.978476,41.4828028 270.259312,42.763639 271.843588,42.763639 C273.42467,42.763639 274.705507,41.4828028 274.705507,39.8985266" id="Fill-1914" fill="#000000"></path>
                                        <path d="M262.297047,49.4450683 L265.158965,49.4450683 C265.158965,47.8639863 263.878129,46.5831501 262.297047,46.5831501 L262.297047,49.4450683 Z" id="Fill-1916" fill="#000000"></path>
                                        <path d="M278.523421,30.353582 C278.523421,31.9346641 279.804257,33.2155003 281.385339,33.2155003 L281.385339,30.353582 L278.523421,30.353582 Z" id="Fill-1918" fill="#000000"></path>
                                        <path d="M262.297047,33.2170973 C263.878129,33.2170973 265.158965,31.9362611 265.158965,30.355179 L262.297047,30.355179 L262.297047,33.2170973 Z" id="Fill-1920" fill="#000000"></path>
                                        <path d="M278.523421,49.4450683 L278.523421,49.4450683 L281.385339,49.4450683 L281.385339,46.5831501 C279.804257,46.5831501 278.523421,47.8639863 278.523421,49.4450683" id="Fill-1922" fill="#000000"></path>
                                        <path d="M278.523421,68.5378323 L278.523421,68.5378323 L280.372808,68.5378323 C280.714577,68.2503629 281.053152,67.9660875 281.385339,67.6754239 L281.385339,65.67272 C279.804257,65.67272 278.523421,66.9567503 278.523421,68.5378323" id="Fill-1924" fill="#000000"></path>
                                        <path d="M262.297047,65.6730394 L262.297047,68.5381518 L265.158965,68.5381518 C265.158965,66.9570697 263.878129,65.6730394 262.297047,65.6730394" id="Fill-1926" fill="#000000"></path>
                                        <path d="M278.523421,49.4450683 C278.523421,51.0261504 279.804257,52.3069866 281.385339,52.3069866 L281.385339,49.4450683 L278.523421,49.4450683 Z" id="Fill-1928" fill="#000000"></path>
                                        <path d="M271.841991,56.1280947 C270.260909,56.1280947 268.980073,57.4089309 268.980073,58.990013 C268.980073,60.5742892 270.260909,61.8551254 271.841991,61.8551254 C273.423073,61.8551254 274.70391,60.5742892 274.70391,58.990013 C274.70391,57.4089309 273.423073,56.1280947 271.841991,56.1280947" id="Fill-1930" fill="#000000"></path>
                                        <path d="M262.297047,49.4450683 L262.297047,52.3069866 C263.878129,52.3069866 265.158965,51.0261504 265.158965,49.4450683 L262.297047,49.4450683 Z" id="Fill-1932" fill="#000000"></path>
                                        <path d="M278.863273,69.8231403 C279.380718,69.4079066 279.866222,68.963926 280.374085,68.53911 L278.524698,68.53911 C278.524698,69.0086435 278.665239,69.4302653 278.863273,69.8231403" id="Fill-1934" fill="#000000"></path>
                                        <path d="M262.297047,71.4013477 C263.878129,71.4013477 265.158965,70.1205115 265.158965,68.5394294 L262.297047,68.5394294 L262.297047,71.4013477 Z" id="Fill-1936" fill="#000000"></path>
                                        <path d="M269.661695,76.2892869 C270.195111,75.9634882 270.747691,75.6728246 271.271524,75.3342494 C270.623121,75.471596 270.067346,75.7973947 269.661695,76.2892869" id="Fill-1938" fill="#000000"></path>
                                        <path d="M246.067798,11.260818 L246.067798,11.260818 C246.067798,9.67973589 244.786962,8.3988997 243.20588,8.3988997 L243.20588,11.260818 L246.067798,11.260818 Z" id="Fill-1940" fill="#000000"></path>
                                        <g id="Group-1944" transform="translate(249.140208, 0.000000)"></g>
                                        <path d="M259.430337,11.260818 L259.430337,11.260818 L262.29545,11.260818 L262.29545,8.3988997 C260.711173,8.3988997 259.430337,9.67973589 259.430337,11.260818" id="Fill-1945" fill="#000000"></path>
                                        <path d="M243.204283,30.353582 L246.066201,30.353582 C246.066201,28.7693058 244.785365,27.4884696 243.204283,27.4884696 L243.204283,30.353582 Z" id="Fill-1947" fill="#000000"></path>
                                        <path d="M249.885712,20.8073597 C249.885712,22.3884418 251.166548,23.669278 252.74763,23.669278 C254.331906,23.669278 255.612743,22.3884418 255.612743,20.8073597 C255.612743,19.2230835 254.331906,17.9422473 252.74763,17.9422473 C251.166548,17.9422473 249.885712,19.2230835 249.885712,20.8073597" id="Fill-1949" fill="#000000"></path>
                                        <path d="M259.430337,30.353582 L259.430337,30.353582 L262.29545,30.353582 L262.29545,27.4884696 C260.711173,27.4884696 259.430337,28.7693058 259.430337,30.353582" id="Fill-1951" fill="#000000"></path>
                                        <path d="M262.297047,14.1243333 L262.297047,11.262415 L259.431934,11.262415 C259.435128,12.8434971 260.71277,14.1243333 262.297047,14.1243333" id="Fill-1953" fill="#000000"></path>
                                        <path d="M246.067798,11.260818 L243.20588,11.260818 L243.20588,14.1227363 C244.786962,14.1227363 246.067798,12.8419001 246.067798,11.260818" id="Fill-1955" fill="#000000"></path>
                                        <path d="M243.204283,46.581553 L243.204283,49.4434713 L246.066201,49.4434713 C246.066201,47.8623892 244.785365,46.581553 243.204283,46.581553" id="Fill-1957" fill="#000000"></path>
                                        <path d="M259.430337,49.4450683 L259.430337,49.4450683 L262.29545,49.4450683 L262.29545,46.5831501 C260.711173,46.5831501 259.430337,47.8639863 259.430337,49.4450683" id="Fill-1959" fill="#000000"></path>
                                        <path d="M243.204283,30.353582 L243.204283,33.2155003 C244.785365,33.2155003 246.066201,31.9346641 246.066201,30.353582 L243.204283,30.353582 Z" id="Fill-1961" fill="#000000"></path>
                                        <path d="M252.749227,37.0350113 C251.168145,37.0350113 249.887309,38.3158475 249.887309,39.8969296 C249.887309,41.4812058 251.168145,42.762042 252.749227,42.762042 C254.330309,42.762042 255.611146,41.4812058 255.611146,39.8969296 C255.611146,38.3158475 254.330309,37.0350113 252.749227,37.0350113" id="Fill-1963" fill="#000000"></path>
                                        <path d="M262.297047,30.353582 L259.431934,30.353582 C259.435128,31.9346641 260.71277,33.2155003 262.297047,33.2155003 L262.297047,30.353582 Z" id="Fill-1965" fill="#000000"></path>
                                        <path d="M262.297047,68.5378323 L262.297047,65.67272 C260.71277,65.67272 259.431934,66.9567503 259.431934,68.5378323 L262.297047,68.5378323 Z" id="Fill-1967" fill="#000000"></path>
                                        <path d="M243.204283,52.3085837 C244.785365,52.3085837 246.066201,51.0277475 246.066201,49.4466654 L243.204283,49.4466654 L243.204283,52.3085837 Z" id="Fill-1969" fill="#000000"></path>
                                        <path d="M262.297047,49.4450683 L259.431934,49.4450683 C259.435128,51.0261504 260.71277,52.3069866 262.297047,52.3069866 L262.297047,49.4450683 Z" id="Fill-1971" fill="#000000"></path>
                                        <path d="M243.204283,65.6730394 L243.204283,68.5381518 L246.066201,68.5381518 C246.066201,66.9570697 244.785365,65.6730394 243.204283,65.6730394" id="Fill-1973" fill="#000000"></path>
                                        <path d="M252.749227,56.1280947 C251.168145,56.1280947 249.887309,57.4089309 249.887309,58.990013 C249.887309,60.5742892 251.168145,61.8551254 252.749227,61.8551254 C254.330309,61.8551254 255.611146,60.5742892 255.611146,58.990013 C255.611146,57.4089309 254.330309,56.1280947 252.749227,56.1280947" id="Fill-1975" fill="#000000"></path>
                                        <path d="M243.204283,84.7658034 L243.204283,87.4935692 C244.101826,87.2572054 244.992982,86.9793183 245.884137,86.7205958 C245.500844,85.5898825 244.46276,84.7658034 243.204283,84.7658034" id="Fill-1977" fill="#000000"></path>
                                        <path d="M255.612423,78.084374 C255.612423,76.5000979 254.331587,75.2192617 252.750505,75.2192617 C251.166229,75.2192617 249.885393,76.5000979 249.885393,78.084374 C249.885393,79.6654561 251.166229,80.9462923 252.750505,80.9462923 C254.331587,80.9462923 255.612423,79.6654561 255.612423,78.084374" id="Fill-1979" fill="#000000"></path>
                                        <path d="M262.297047,68.5378323 L259.431934,68.5378323 C259.435128,70.1189144 260.71277,71.3997506 262.297047,71.3997506 L262.297047,68.5378323 Z" id="Fill-1981" fill="#000000"></path>
                                        <path d="M243.204283,71.4013477 C244.785365,71.4013477 246.066201,70.1205115 246.066201,68.5394294 L243.204283,68.5394294 L243.204283,71.4013477 Z" id="Fill-1983" fill="#000000"></path>
                                        <path d="M243.204283,11.260818 L243.204283,8.3988997 C241.623201,8.3988997 240.342364,9.67973589 240.342364,11.260818 L243.204283,11.260818 Z" id="Fill-1985" fill="#000000"></path>
                                        <path d="M224.111199,11.260818 L226.973118,11.260818 C226.973118,9.67973589 225.692281,8.3988997 224.111199,8.3988997 L224.111199,11.260818 Z" id="Fill-1987" fill="#000000"></path>
                                        <g id="Group-1991" transform="translate(229.975576, 0.000000)"></g>
                                        <path d="M226.974715,30.353582 L226.974715,30.353582 C226.974715,28.7693058 225.693878,27.4884696 224.112796,27.4884696 L224.112796,30.353582 L226.974715,30.353582 Z" id="Fill-1992" fill="#000000"></path>
                                        <path d="M243.204283,30.353582 L243.204283,27.4884696 C241.623201,27.4884696 240.342364,28.7693058 240.342364,30.353582 L243.204283,30.353582 Z" id="Fill-1994" fill="#000000"></path>
                                        <path d="M243.204283,11.260818 L240.342364,11.260818 C240.342364,12.8419001 241.623201,14.1227363 243.204283,14.1227363 L243.204283,11.260818 Z" id="Fill-1996" fill="#000000"></path>
                                        <path d="M226.974715,11.260818 L224.112796,11.260818 L224.112796,14.1227363 C225.693878,14.1227363 226.974715,12.8419001 226.974715,11.260818" id="Fill-1998" fill="#000000"></path>
                                        <path d="M230.792629,20.8073597 C230.792629,22.3884418 232.073465,23.669278 233.654547,23.669278 C235.238823,23.669278 236.522853,22.3884418 236.522853,20.8073597 C236.522853,19.2230835 235.238823,17.9422473 233.654547,17.9422473 C232.073465,17.9422473 230.792629,19.2230835 230.792629,20.8073597" id="Fill-2000" fill="#000000"></path>
                                        <path d="M240.340767,49.4450683 L240.340767,49.4450683 L243.202686,49.4450683 L243.202686,46.5831501 C241.621603,46.5831501 240.340767,47.8639863 240.340767,49.4450683" id="Fill-2002" fill="#000000"></path>
                                        <path d="M243.204283,30.353582 L240.342364,30.353582 C240.342364,31.9346641 241.623201,33.2155003 243.204283,33.2155003 L243.204283,30.353582 Z" id="Fill-2004" fill="#000000"></path>
                                        <path d="M233.656144,42.763639 C235.237226,42.763639 236.521256,41.4828028 236.521256,39.8985266 C236.521256,38.3174445 235.237226,37.0366084 233.656144,37.0366084 C232.075062,37.0366084 230.794226,38.3174445 230.794226,39.8985266 C230.794226,41.4828028 232.075062,42.763639 233.656144,42.763639" id="Fill-2006" fill="#000000"></path>
                                        <path d="M224.111199,46.581553 L224.111199,49.4434713 L226.973118,49.4434713 C226.973118,47.8623892 225.692281,46.581553 224.111199,46.581553" id="Fill-2008" fill="#000000"></path>
                                        <path d="M226.974715,30.353582 L224.112796,30.353582 L224.112796,33.2155003 C225.693878,33.2155003 226.974715,31.9346641 226.974715,30.353582" id="Fill-2010" fill="#000000"></path>
                                        <path d="M240.340767,68.5378323 L240.340767,68.5378323 L243.202686,68.5378323 L243.202686,65.67272 C241.621603,65.67272 240.340767,66.9567503 240.340767,68.5378323" id="Fill-2012" fill="#000000"></path>
                                        <path d="M233.656144,56.1280947 C232.075062,56.1280947 230.794226,57.4089309 230.794226,58.990013 C230.794226,60.5742892 232.075062,61.8551254 233.656144,61.8551254 C235.237226,61.8551254 236.521256,60.5742892 236.521256,58.990013 C236.521256,57.4089309 235.237226,56.1280947 233.656144,56.1280947" id="Fill-2014" fill="#000000"></path>
                                        <path d="M224.111199,65.6730394 L224.111199,68.5381518 L226.973118,68.5381518 C226.973118,66.9570697 225.692281,65.6730394 224.111199,65.6730394" id="Fill-2016" fill="#000000"></path>
                                        <path d="M224.111199,52.3085837 C225.692281,52.3085837 226.973118,51.0277475 226.973118,49.4466654 L224.111199,49.4466654 L224.111199,52.3085837 Z" id="Fill-2018" fill="#000000"></path>
                                        <path d="M240.340767,49.4450683 C240.340767,51.0261504 241.621603,52.3069866 243.202686,52.3069866 L243.202686,49.4450683 L240.340767,49.4450683 Z" id="Fill-2020" fill="#000000"></path>
                                        <path d="M240.340767,87.6293187 L240.340767,87.6293187 L242.733152,87.6293187 C242.892857,87.5877953 243.046174,87.5366897 243.202686,87.4951663 L243.202686,84.7674004 C241.621603,84.7674004 240.340767,86.0482366 240.340767,87.6293187" id="Fill-2022" fill="#000000"></path>
                                        <path d="M240.340767,68.5378323 C240.340767,70.1189144 241.621603,71.3997506 243.202686,71.3997506 L243.202686,68.5378323 L240.340767,68.5378323 Z" id="Fill-2024" fill="#000000"></path>
                                        <path d="M224.111199,84.7658034 L224.111199,87.6277216 L226.973118,87.6277216 C226.973118,86.0466396 225.692281,84.7658034 224.111199,84.7658034" id="Fill-2026" fill="#000000"></path>
                                        <path d="M224.111199,71.4013477 C225.692281,71.4013477 226.973118,70.1205115 226.973118,68.5394294 L224.111199,68.5394294 L224.111199,71.4013477 Z" id="Fill-2028" fill="#000000"></path>
                                        <path d="M233.656144,75.2192617 C232.075062,75.2192617 230.794226,76.5000979 230.794226,78.084374 C230.794226,79.6654561 232.075062,80.9462923 233.656144,80.9462923 C235.237226,80.9462923 236.521256,79.6654561 236.521256,78.084374 C236.521256,76.5000979 235.237226,75.2192617 233.656144,75.2192617" id="Fill-2030" fill="#000000"></path>
                                        <path d="M224.111199,90.492834 C225.692281,90.492834 226.973118,89.2119978 226.973118,87.6309158 L224.111199,87.6309158 L224.111199,90.492834 Z" id="Fill-2032" fill="#000000"></path>
                                        <path d="M240.45288,88.1969112 C240.848949,88.1042821 241.248213,88.0435941 241.641088,87.9445769 C242.00841,87.8551419 242.369344,87.7241836 242.733472,87.6283605 L240.341087,87.6283605 C240.341087,87.8295891 240.414551,88.008459 240.45288,88.1969112" id="Fill-2034" fill="#000000"></path>
                                        <g id="Group-2038" transform="translate(210.810945, 0.000000)"></g>
                                        <path d="M207.881951,11.260818 L207.885145,11.260818 C207.885145,9.67973589 206.601114,8.3988997 205.020032,8.3988997 L205.020032,11.260818 L207.881951,11.260818 Z" id="Fill-2039" fill="#000000"></path>
                                        <path d="M224.111199,11.260818 L224.111199,8.3988997 C222.530117,8.3988997 221.249281,9.67973589 221.249281,11.260818 L224.111199,11.260818 Z" id="Fill-2041" fill="#000000"></path>
                                        <path d="M224.111199,11.260818 L221.249281,11.260818 C221.249281,12.8419001 222.530117,14.1227363 224.111199,14.1227363 L224.111199,11.260818 Z" id="Fill-2043" fill="#000000"></path>
                                        <path d="M207.881951,11.260818 L205.020032,11.260818 L205.020032,14.1227363 C206.601114,14.1227363 207.881951,12.8419001 207.881951,11.260818" id="Fill-2045" fill="#000000"></path>
                                        <path d="M214.566574,23.670875 C216.147656,23.670875 217.428492,22.3900388 217.428492,20.8089567 C217.428492,19.2246805 216.147656,17.9438444 214.566574,17.9438444 C212.985492,17.9438444 211.704656,19.2246805 211.704656,20.8089567 C211.704656,22.3900388 212.985492,23.670875 214.566574,23.670875" id="Fill-2047" fill="#000000"></path>
                                        <path d="M224.111199,30.353582 L224.111199,27.4884696 C222.530117,27.4884696 221.249281,28.7693058 221.249281,30.353582 L224.111199,30.353582 Z" id="Fill-2049" fill="#000000"></path>
                                        <path d="M207.881951,30.353582 L207.885145,30.353582 C207.885145,28.7693058 206.601114,27.4884696 205.020032,27.4884696 L205.020032,30.353582 L207.881951,30.353582 Z" id="Fill-2051" fill="#000000"></path>
                                        <path d="M214.566574,42.763639 C216.147656,42.763639 217.428492,41.4828028 217.428492,39.8985266 C217.428492,38.3174445 216.147656,37.0366084 214.566574,37.0366084 C212.985492,37.0366084 211.704656,38.3174445 211.704656,39.8985266 C211.704656,41.4828028 212.985492,42.763639 214.566574,42.763639" id="Fill-2053" fill="#000000"></path>
                                        <path d="M221.247684,30.353582 C221.247684,31.9346641 222.52852,33.2155003 224.109602,33.2155003 L224.109602,30.353582 L221.247684,30.353582 Z" id="Fill-2055" fill="#000000"></path>
                                        <path d="M205.018435,46.581553 L205.018435,49.4434713 L207.880354,49.4434713 L207.883548,49.4434713 C207.883548,47.8623892 206.599517,46.581553 205.018435,46.581553" id="Fill-2057" fill="#000000"></path>
                                        <path d="M207.881951,30.353582 L205.020032,30.353582 L205.020032,33.2155003 C206.601114,33.2155003 207.881951,31.9346641 207.881951,30.353582" id="Fill-2059" fill="#000000"></path>
                                        <path d="M224.111199,46.581553 C222.530117,46.581553 221.249281,47.8623892 221.249281,49.4434713 L224.111199,49.4434713 L224.111199,46.581553 Z" id="Fill-2061" fill="#000000"></path>
                                        <path d="M205.018435,52.3085837 C206.599517,52.3085837 207.880354,51.0277475 207.880354,49.4466654 L205.018435,49.4466654 L205.018435,52.3085837 Z" id="Fill-2063" fill="#000000"></path>
                                        <path d="M205.018435,65.6730394 L205.018435,68.5381518 L207.880354,68.5381518 L207.883548,68.5381518 C207.883548,66.9570697 206.599517,65.6730394 205.018435,65.6730394" id="Fill-2065" fill="#000000"></path>
                                        <path d="M214.566574,56.1280947 C212.985492,56.1280947 211.704656,57.4089309 211.704656,58.990013 C211.704656,60.5742892 212.985492,61.8551254 214.566574,61.8551254 C216.147656,61.8551254 217.428492,60.5742892 217.428492,58.990013 C217.428492,57.4089309 216.147656,56.1280947 214.566574,56.1280947" id="Fill-2067" fill="#000000"></path>
                                        <path d="M221.247684,49.4450683 C221.247684,51.0261504 222.52852,52.3069866 224.109602,52.3069866 L224.109602,49.4450683 L221.247684,49.4450683 Z" id="Fill-2069" fill="#000000"></path>
                                        <path d="M224.111199,65.6730394 C222.530117,65.6730394 221.249281,66.9570697 221.249281,68.5381518 L224.111199,68.5381518 L224.111199,65.6730394 Z" id="Fill-2071" fill="#000000"></path>
                                        <path d="M214.566574,75.2192617 C212.985492,75.2192617 211.704656,76.5000979 211.704656,78.084374 C211.704656,79.6654561 212.985492,80.9462923 214.566574,80.9462923 C216.147656,80.9462923 217.428492,79.6654561 217.428492,78.084374 C217.428492,76.5000979 216.147656,75.2192617 214.566574,75.2192617" id="Fill-2073" fill="#000000"></path>
                                        <path d="M224.111199,84.7658034 C222.530117,84.7658034 221.249281,86.0466396 221.249281,87.6277216 L224.111199,87.6277216 L224.111199,84.7658034 Z" id="Fill-2075" fill="#000000"></path>
                                        <path d="M205.018435,84.7658034 L205.018435,87.6277216 L207.880354,87.6277216 L207.883548,87.6277216 C207.883548,86.0466396 206.599517,84.7658034 205.018435,84.7658034" id="Fill-2077" fill="#000000"></path>
                                        <path d="M221.247684,68.5378323 C221.247684,70.1189144 222.52852,71.3997506 224.109602,71.3997506 L224.109602,68.5378323 L221.247684,68.5378323 Z" id="Fill-2079" fill="#000000"></path>
                                        <path d="M205.018435,71.4013477 C206.599517,71.4013477 207.880354,70.1205115 207.880354,68.5394294 L205.018435,68.5394294 L205.018435,71.4013477 Z" id="Fill-2081" fill="#000000"></path>
                                        <path d="M205.018435,90.492834 C206.599517,90.492834 207.880354,89.2119978 207.880354,87.6309158 L205.018435,87.6309158 L205.018435,90.492834 Z" id="Fill-2083" fill="#000000"></path>
                                        <path d="M221.247684,87.6293187 C221.247684,89.2104008 222.52852,90.491237 224.109602,90.491237 L224.109602,87.6293187 L221.247684,87.6293187 Z" id="Fill-2085" fill="#000000"></path>
                                        <g id="Group-2091" transform="translate(191.646314, 0.000000)"></g>
                                        <path d="M205.018435,11.260818 L205.018435,8.3988997 C203.437353,8.3988997 202.156517,9.67973589 202.156517,11.260818 L205.018435,11.260818 Z" id="Fill-2092" fill="#000000"></path>
                                        <path d="M205.018435,30.353582 L205.018435,27.4884696 C203.437353,27.4884696 202.156517,28.7693058 202.156517,30.353582 L205.018435,30.353582 Z" id="Fill-2100" fill="#000000"></path>
                                        <path d="M202.15492,11.260818 C202.15492,12.8419001 203.435756,14.1227363 205.016838,14.1227363 L205.016838,11.260818 L202.15492,11.260818 Z" id="Fill-2102" fill="#000000"></path>
                                        <path d="M202.15492,30.353582 C202.15492,31.9346641 203.435756,33.2155003 205.016838,33.2155003 L205.016838,30.353582 L202.15492,30.353582 Z" id="Fill-2110" fill="#000000"></path>
                                        <path d="M205.018435,46.581553 C203.437353,46.581553 202.156517,47.8623892 202.156517,49.4434713 L205.018435,49.4434713 L205.018435,46.581553 Z" id="Fill-2112" fill="#000000"></path>
                                        <path d="M202.15492,49.4450683 C202.15492,51.0261504 203.435756,52.3069866 205.016838,52.3069866 L205.016838,49.4450683 L202.15492,49.4450683 Z" id="Fill-2114" fill="#000000"></path>
                                        <path d="M205.018435,65.6730394 C203.437353,65.6730394 202.156517,66.9570697 202.156517,68.5381518 L205.018435,68.5381518 L205.018435,65.6730394 Z" id="Fill-2122" fill="#000000"></path>
                                        <path d="M202.15492,68.5378323 C202.15492,70.1189144 203.435756,71.3997506 205.016838,71.3997506 L205.016838,68.5378323 L202.15492,68.5378323 Z" id="Fill-2128" fill="#000000"></path>
                                        <path d="M205.018435,84.7658034 C203.437353,84.7658034 202.156517,86.0466396 202.156517,87.6277216 L205.018435,87.6277216 L205.018435,84.7658034 Z" id="Fill-2132" fill="#000000"></path>
                                        <path d="M202.15492,87.6293187 C202.15492,89.2104008 203.435756,90.491237 205.016838,90.491237 L205.016838,87.6293187 L202.15492,87.6293187 Z" id="Fill-2136" fill="#000000"></path>
                                    </g>
                                </g>
                            </g>
                        </g>
                    </g>
                </g>
            </g>
        </g>
    </g>
</svg>