<?xml version="1.0" encoding="UTF-8"?>
<svg width="79px" height="80px" viewBox="0 0 79 80" version="1.1" xmlns="http://www.w3.org/2000/svg" xmlns:xlink="http://www.w3.org/1999/xlink">
    <!-- Generator: sketchtool 54.1 (76490) - https://sketchapp.com -->
    <title>7E1D02F7-D9EF-4548-99A1-6521CA5AA7C2</title>
    <desc>Created with sketchtool.</desc>
    <defs>
        <path d="M0.323708609,43.4468874 C1.27364238,43.0198675 2.19655629,42.5462252 3.09086093,42.0270199 C3.23761589,42.2235762 3.39708609,42.4137748 3.56927152,42.5970861 C3.57880795,42.6071523 3.58887417,42.6172185 3.5984106,42.6278146 C2.53403974,42.967947 1.4410596,43.2423841 0.323708609,43.4468874 L0.323708609,43.4468874 Z M15.3939073,4.82331126 C14.6802649,3.20953642 13.8235762,1.66569536 12.8376159,0.208211921 L14.5843709,0.208211921 C14.8842384,0.692980132 15.1284768,1.18463576 15.2699338,1.65774834 C15.778543,3.34728477 15.7504636,4.26013245 15.3939073,4.82331126 L15.3939073,4.82331126 Z" id="path-1"></path>
    </defs>
    <g id="Docent" stroke="none" stroke-width="1" fill="none" fill-rule="evenodd">
        <g id="home-333a" transform="translate(-1349.000000, -3727.000000)">
            <g id="Features" transform="translate(405.000000, 3541.000000)">
                <g id="Group-14-Copy-9" transform="translate(0.000000, 136.000000)">
                    <g id="Group-4">
                        <g id="Group-15" transform="translate(856.000000, 0.000000)">
                            <g id="emotionless_man_twus3e__1_-removebg-hd-copy-4" transform="translate(0.000000, 50.000000)">
                                <g id="Group-3" transform="translate(88.000000, 0.000000)">
                                    <path d="M64.5107285,50.7486093 C64.5107285,66.015894 52.1345695,78.3909934 36.8678146,78.3909934 C21.5989404,78.3909934 9.22490066,66.015894 9.22490066,50.7486093 C9.22490066,35.4802649 21.5989404,23.1030464 36.8678146,23.1030464 C52.1345695,23.1030464 64.5107285,35.4802649 64.5107285,50.7486093" id="Fill-185" fill="#4779B0"></path>
                                    <path d="M36.8678146,24.2378808 C22.2511258,24.2378808 10.3597351,36.1303311 10.3597351,50.7486093 C10.3597351,65.3647682 22.2511258,77.2561589 36.8678146,77.2561589 C51.4839735,77.2561589 63.375894,65.3647682 63.375894,50.7486093 C63.375894,36.1303311 51.4839735,24.2378808 36.8678146,24.2378808 M36.8678146,79.5258278 C20.9997351,79.5258278 8.09059603,66.6161589 8.09059603,50.7486093 C8.09059603,34.8789404 20.9997351,21.9682119 36.8678146,21.9682119 C52.7364238,21.9682119 65.6455629,34.8789404 65.6455629,50.7486093 C65.6455629,66.6161589 52.7364238,79.5258278 36.8678146,79.5258278" id="Fill-186" fill="#1F2C46"></path>
                                    <path d="M21.1634437,63.4882119 C19.2556291,63.1719205 18.6193377,62.4296689 18.6193377,61.2635762 C18.6193377,58.9292715 20.7396026,59.1417219 20.7396026,59.1417219 C20.7396026,59.1417219 21.9062252,59.1417219 23.0733775,59.0357616 C24.5849007,58.8969536 26.7851656,58.082649 26.7851656,55.112053 C26.7851656,53.3112583 25.6217219,51.9777483 23.1788079,51.8256954 C21.4829139,51.7181457 17.9290066,51.8717881 16.9223841,51.8256954 C14.6935099,51.7181457 14.9080795,47.9019868 17.5586755,47.9019868 C17.9618543,47.9019868 28.8487417,47.6890066 28.8487417,47.6890066 C32.7539073,47.6890066 35.9321854,44.5213245 35.9321854,40.6172185 L35.9321854,40.3353642 C35.9321854,36.4301987 33.7308609,32.7968212 29.8256954,32.7968212 C29.8256954,32.7968212 26.8577483,32.7968212 24.7343046,32.7968212 C23.8521854,32.7968212 23.0664901,32.1769536 23.1798675,31.4770861 C23.3366887,30.4895364 23.7933775,30.0137748 24.735894,30.0381457 C26.2548344,30.0725828 26.7501987,30.0762914 28.482649,29.9194702 C30.8153642,29.7070199 32.1923179,25.282649 29.3298013,24.2203974 C27.5274172,24.4164238 22.0556291,25.6492715 15.8606623,31.9782781 C10.9838411,36.9605298 9.22543046,44.1075497 9.22543046,50.7427815 C9.22543046,57.5835762 12.890596,66.8815894 18.087947,70.9107285 C19.4686093,71.0150993 21.5178808,70.485298 22.5435762,69.0034437 C23.4982781,67.6249007 23.5978808,63.8961589 21.1634437,63.4882119" id="Fill-187" fill="#47B48F"></path>
                                    <path d="M29.1592053,25.3870199 C27.6238411,25.618543 22.5038411,26.813245 16.6717881,32.7719205 C12.6018543,36.9303311 10.3597351,43.3128477 10.3597351,50.7427815 C10.3597351,57.6254305 13.986755,66.0619868 18.5011921,69.7875497 C19.5793377,69.7700662 20.9398675,69.3260927 21.6100662,68.3570861 C22.0270199,67.7557616 22.2124503,66.2770861 21.8177483,65.3430464 C21.5788079,64.7761589 21.2418543,64.6521854 20.9753642,64.6071523 C18.6596026,64.2235762 17.4845033,63.0988079 17.4845033,61.2635762 C17.4845033,59.0103311 19.0511258,58.0015894 20.6039735,58.0015894 C20.6781457,58.0015894 20.7369536,58.0037086 20.7788079,58.0063576 C20.9891391,58.005298 21.9883444,57.994702 22.970596,57.9051656 C24.7480795,57.7425166 25.6503311,56.802649 25.6503311,55.112053 C25.6503311,53.7880795 24.794702,53.0633113 23.1083444,52.9589404 C22.1192053,52.8964238 20.4874172,52.9255629 19.1242384,52.9488742 C18.1356291,52.965298 17.2948344,52.978543 16.8704636,52.96 C15.3186755,52.8847682 14.2230464,51.6376159 14.2627815,49.9941722 C14.3003974,48.4291391 15.4680795,46.7671523 17.5586755,46.7671523 C17.8802649,46.7671523 25.8018543,46.6135099 28.8264901,46.5541722 C32.1292715,46.5541722 34.797351,43.8908609 34.797351,40.6172185 L34.797351,40.3353642 C34.797351,37.1533775 33.0898013,33.9316556 29.8256954,33.9316556 L24.7343046,33.9316556 C23.8802649,33.9316556 23.0638411,33.5719205 22.5509934,32.9700662 C22.1377483,32.4837086 21.9629139,31.8892715 22.0588079,31.295894 C22.3899338,29.2137748 23.8368212,28.9022517 24.6691391,28.9022517 L24.7645033,28.9033113 C26.2188079,28.9377483 26.7009272,28.9419868 28.3798675,28.7888742 C29.0145695,28.7316556 29.6577483,27.8792053 29.7838411,26.9292715 C29.8527152,26.4068874 29.7907285,25.7419868 29.1592053,25.3870199 Z M18.4349669,72.0588079 L18.4339073,72.0588079 C18.2860927,72.0588079 18.141457,72.0529801 18.002649,72.0423841 L17.6619868,72.0169536 L17.3928477,71.8082119 C11.6466225,67.3536424 8.09059603,57.4050331 8.09059603,50.7427815 C8.09059603,42.7157616 10.5621192,35.7690066 15.0495364,31.184106 C21.7091391,24.3803974 27.5692715,23.2704636 29.2068874,23.0919205 L29.4733775,23.0627815 L29.7250331,23.1560265 C31.4007947,23.778543 32.2860927,25.3388079 32.0344371,27.2280795 C31.8055629,28.9488742 30.5186755,30.8736424 28.5859603,31.050596 C26.8254305,31.2095364 26.2993377,31.2084768 24.7104636,31.1724503 L24.7046358,31.1724503 C24.5001325,31.1724503 24.4445033,31.2021192 24.4429139,31.2031788 C24.4434437,31.2031788 24.3772185,31.274702 24.322649,31.5374834 C24.3941722,31.5904636 24.5393377,31.6619868 24.7343046,31.6619868 L29.8256954,31.6619868 C34.5801325,31.6619868 37.0670199,36.0254305 37.0670199,40.3353642 L37.0670199,40.6172185 C37.0670199,45.1422517 33.3801325,48.8238411 28.8487417,48.8238411 C28.4259603,48.8328477 17.9682119,49.0368212 17.5586755,49.0368212 C16.5849007,49.0368212 16.5345695,49.9449007 16.5324503,50.0482119 C16.5255629,50.3321854 16.5970861,50.6739073 16.9774834,50.6919205 C17.3589404,50.7109934 18.1727152,50.6940397 19.0860927,50.6797351 C20.5144371,50.6548344 22.2177483,50.6262252 23.2503311,50.6924503 C26.1308609,50.8715232 27.92,52.5658278 27.92,55.112053 C27.92,58.5176159 25.4696689,59.9554967 23.1766887,60.1663576 C21.9713907,60.2760265 20.789404,60.2765563 20.7396026,60.2765563 L20.6262252,60.2707285 C19.8988079,60.2717881 19.7541722,60.6680795 19.7541722,61.2635762 C19.7541722,61.6577483 19.7541722,62.1038411 21.3488742,62.3676821 C22.5139073,62.5631788 23.4219868,63.3054305 23.9088742,64.4593377 C24.6490066,66.2113907 24.2606623,68.5181457 23.4760265,69.6492715 C22.2463576,71.4272848 19.9915232,72.0588079 18.4349669,72.0588079 L18.4349669,72.0588079 Z" id="Fill-188" fill="#1F2C46"></path>
                                    <path d="M64.7941722,51.112053 C64.7941722,41.7992053 60.5992053,33.7509934 53.44,28.8815894 C53.1427815,28.8227815 56.8333775,31.8797351 57.6815894,34.7083444 C58.3459603,36.9170861 58.4577483,38.8222517 56.5197351,39.8246358 L53.8177483,39.8246358 C50.8354967,39.8246358 48.4206623,41.3642384 48.4206623,44.3433113 C48.4206623,47.3276821 50.8354967,48.8625166 53.8177483,48.8625166 L55.1830464,48.8625166 C58.8,49.8675497 57.9724503,54.8884768 55.1952318,54.8884768 L42.6023841,54.8884768 C40.3099338,54.8884768 38.4513907,56.6119205 38.4513907,58.9059603 C38.4513907,61.1984106 40.3099338,62.9223841 42.6023841,62.9223841 L53.2635762,62.9223841 C55.8802649,62.9223841 55.9205298,67.0113907 52.570596,67.1501987 L48.9721854,67.3239735 C46.3422517,67.4627815 44.5398675,69.6969536 44.402649,71.9109934 C44.245298,74.4609272 46.8943046,76.6262252 47.7875497,76.234702 C57.754702,72.2447682 64.7941722,62.5033113 64.7941722,51.112053" id="Fill-189" fill="#47B48F"></path>
                                    <path d="M42.6023841,56.0233113 C40.9117881,56.0233113 39.5862252,57.2895364 39.5862252,58.9059603 C39.5862252,60.5213245 40.9117881,61.7875497 42.6023841,61.7875497 L53.2635762,61.7875497 C54.9854305,61.7875497 56.2606623,63.0315232 56.2956291,64.7449007 C56.3300662,66.4264901 55.0781457,68.1822517 52.6172185,68.2839735 L49.0272848,68.4577483 C46.9737748,68.5663576 45.6376159,70.3343046 45.535894,71.9803974 C45.437351,73.5703311 46.9006623,74.9446358 47.4945695,75.1295364 C57.3329801,71.1152318 63.6593377,61.7128477 63.6593377,51.112053 C63.6593377,45.5364238 62.0837086,40.3888742 59.1883444,36.170596 C59.4050331,37.7340397 59.2047682,39.7139073 57.0410596,40.8328477 L56.7957616,40.9594702 L53.8177483,40.9594702 C51.757351,40.9594702 49.5549669,41.8484768 49.5549669,44.3433113 C49.5549669,46.8386755 51.757351,47.7276821 53.8177483,47.7276821 L55.4866225,47.7690066 C58.0445033,48.48 58.9393377,50.784106 58.6882119,52.6246358 C58.415894,54.6256954 56.9796026,56.0233113 55.1952318,56.0233113 L42.6023841,56.0233113 M47.5443709,77.4156291 C46.733245,77.4156291 45.7419868,76.8768212 44.8937748,75.9745695 C43.773245,74.7819868 43.1809272,73.2757616 43.2699338,71.8410596 C43.4331126,69.2010596 45.5883444,66.3660927 48.9123179,66.1912583 L52.5154967,66.015894 C53.6498013,65.9692715 54.0370861,65.3271523 54.0259603,64.7915232 C54.0206623,64.5176159 53.9136424,64.0572185 53.2635762,64.0572185 L42.6023841,64.0572185 C39.6381457,64.0572185 37.3165563,61.7949669 37.3165563,58.9059603 C37.3165563,56.0169536 39.6381457,53.7536424 42.6023841,53.7536424 L55.1952318,53.7536424 C55.9194702,53.7536424 56.3417219,53.0325828 56.4392053,52.317351 C56.4805298,52.0164238 56.5986755,50.5202649 55.0156291,49.997351 L53.8177483,49.997351 C49.9109934,49.997351 47.2858278,47.7250331 47.2858278,44.3433113 C47.2858278,40.9621192 49.9109934,38.6898013 53.8177483,38.6898013 L56.2182781,38.6898013 C56.9859603,38.1923179 57.285298,37.3292715 56.5944371,35.0352318 C56.0476821,33.210596 53.9735099,31.1046358 53.0876821,30.2055629 C52.5202649,29.6291391 52.072053,29.1740397 52.3766887,28.4466225 L52.6680795,27.7504636 L53.5443709,27.7462252 L53.8871523,27.8135099 L54.0778808,27.9433113 C61.6100662,33.0654305 65.9290066,41.5104636 65.9290066,51.112053 C65.9290066,62.7046358 58.973245,72.9796026 48.2092715,77.2884768 C48.0286093,77.367947 47.7939073,77.4156291 47.5443709,77.4156291" id="Fill-190" fill="#1F2C46"></path>
                                    <g id="Group-193" transform="translate(41.324503, 33.377483)">
                                        <mask id="mask-2" fill="white">
                                            <use xlink:href="#path-1"></use>
                                        </mask>
                                        <g id="Clip-192"></g>
                                        <polygon id="Fill-191" fill="#2D5A98" mask="url(#mask-2)" points="0.323708609 43.4468874 15.778543 43.4468874 15.778543 0.208211921 0.323708609 0.208211921"></polygon>
                                    </g>
                                    <path d="M41.3154967,76.9711258 C41.426755,76.9229139 41.5374834,76.8741722 41.6482119,76.8243709 C42.7655629,76.6198675 43.858543,76.3454305 44.9229139,76.005298 C44.9451656,76.0286093 44.9674172,76.0519205 44.9901987,76.074702 C43.7992053,76.4561589 42.5727152,76.7570861 41.3154967,76.9711258" id="Fill-194" fill="#101928"></path>
                                    <path d="M47.4945695,75.1295364 C47.2164238,75.0431788 46.7480795,74.6961589 46.338543,74.1886093 C48.7470199,72.5350993 50.898543,70.541457 52.7210596,68.2786755 C55.1131126,68.1324503 56.3295364,66.402649 56.2956291,64.7449007 C56.2850331,64.226755 56.1610596,63.7515232 55.9454305,63.3403974 C58.0301987,59.3181457 59.2074172,54.7645033 59.2074172,49.9443709 C59.2074172,46.6654305 58.650596,43.4776159 57.6164238,40.4842384 C58.9976159,39.5056954 59.3080795,38.0916556 59.2498013,36.8222517 C61.9189404,40.9229139 63.4696689,45.7912583 63.4696689,50.9965563 C63.4696689,61.7324503 56.9313907,70.9896689 47.5782781,75.0950993 C47.5501987,75.106755 47.522649,75.1178808 47.4945695,75.1295364" id="Fill-195" fill="#248769"></path>
                                    <path d="M44.9901987,76.074702 C44.9674172,76.0519205 44.9451656,76.0286093 44.9229139,76.005298 C44.9133775,75.994702 44.9033113,75.9846358 44.8937748,75.9745695 C44.7215894,75.7912583 44.5621192,75.6010596 44.4153642,75.4045033 C45.0723179,75.0230464 45.7149669,74.6166887 46.338543,74.1886093 C46.7480795,74.6961589 47.2164238,75.0431788 47.4945695,75.1295364 C47.522649,75.1178808 47.5501987,75.106755 47.5782781,75.0950993 C46.7374834,75.4643709 45.8733775,75.7917881 44.9901987,76.074702 M52.7210596,68.2786755 C53.9539073,66.7480795 55.0357616,65.0950993 55.9454305,63.3403974 C56.1610596,63.7515232 56.2850331,64.226755 56.2956291,64.7449007 C56.3295364,66.402649 55.1131126,68.1324503 52.7210596,68.2786755 M57.6164238,40.4842384 C57.3483444,39.7096689 57.0484768,38.9472848 56.7184106,38.2007947 C57.0749669,37.6376159 57.1030464,36.7247682 56.5944371,35.0352318 C56.4529801,34.5621192 56.2087417,34.0704636 55.9088742,33.5856954 L56.2643709,33.5856954 L56.6654305,33.4696689 C57.613245,34.5160265 58.4784106,35.6370861 59.2498013,36.8222517 C59.3080795,38.0916556 58.9976159,39.5056954 57.6164238,40.4842384" id="Fill-196" fill="#101928"></path>
                                    <polyline id="Fill-197" fill="#46585B" points="77.3223841 47.4500662 70.8577483 47.4500662 73.0124503 36.9515232 75.1676821 36.9515232 77.3223841 47.4500662"></polyline>
                                    <path d="M72.2495364,46.3152318 L75.930596,46.3152318 L74.2415894,38.0863576 L73.938543,38.0863576 L72.2495364,46.3152318 Z M78.7141722,48.5849007 L69.4659603,48.5849007 L72.0863576,35.8166887 L76.0943046,35.8166887 L78.7141722,48.5849007 L78.7141722,48.5849007 Z" id="Fill-198" fill="#1F2C46"></path>
                                    <polyline id="Fill-199" fill="#46585B" points="19.6762914 32.4513907 0.828609272 21.2291391 37.8256954 1.34781457 74.461457 20.9303311 56.2643709 32.4513907 19.6762914 32.4513907"></polyline>
                                    <path d="M19.9883444,31.3165563 L55.9353642,31.3165563 L72.2087417,21.0129801 L37.8272848,2.63576159 L3.13271523,21.28 L19.9883444,31.3165563 M56.2643709,33.5856954 L19.6762914,33.5856954 L19.0956291,33.426755 L0.24794702,22.2045033 L0.291390728,20.2288742 L37.2890066,0.34807947 L38.3613245,0.347019868 L74.9970861,19.9290066 L75.0686093,21.8892715 L56.8709934,33.4103311 L56.2643709,33.5856954" id="Fill-200" fill="#1F2C46"></path>
                                    <path d="M55.7430464,30.9515232 L51.0982781,30.9515232 L66.175894,21.8060927 C66.5133775,21.5978808 66.7136424,21.3817219 66.701457,20.9843709 C66.6876821,20.5880795 66.464106,20.2156291 66.1112583,20.0301987 L35.767947,3.92741722 L37.8272848,2.78675497 L59.8458278,14.405298 L72.1578808,20.9859603 L55.7430464,30.9515232" id="Fill-201" fill="#364548"></path>
                                    <polyline id="Fill-202" fill="#152033" points="72.1578808 20.9859603 59.8458278 14.405298 72.2325828 20.9409272 72.1578808 20.9859603"></polyline>
                                    <path d="M37.5592053,32.3788079 C24.9933775,32.7480795 13.5772185,34.2675497 13.5772185,34.2675497 L13.5772185,22.4153642 C13.5772185,22.4153642 24.5970861,18.4635762 37.5284768,18.4635762 C47.8262252,18.4635762 59.3239735,22.4153642 59.3239735,22.4153642 L59.3239735,34.2675497 C59.3239735,34.2675497 50.8625166,31.9872848 37.5592053,32.3788079" id="Fill-203" fill="#46585B"></path>
                                    <path d="M14.7115232,23.2333775 L14.7115232,32.9822517 C18.0577483,32.5801325 27.4749669,31.5396026 37.525298,31.2439735 C47.8463576,30.9409272 55.2264901,32.2087417 58.1891391,32.8376159 L58.1891391,23.2397351 C55.4723179,22.3809272 46.0121854,19.5984106 37.5284768,19.5984106 C26.8535099,19.5984106 17.3886093,22.3735099 14.7115232,23.2333775 Z M60.4588079,35.746755 L59.0288742,35.3637086 C58.9525828,35.3430464 50.5552318,33.1242384 37.5925828,33.5136424 C25.2344371,33.8765563 13.8405298,35.3774834 13.7266225,35.3923179 L12.4423841,35.5629139 L12.4423841,21.6164238 L13.1936424,21.3472848 C13.6519205,21.1830464 24.5483444,17.3287417 37.5284768,17.3287417 C47.8966887,17.3287417 59.2164238,21.1782781 59.6927152,21.3425166 L60.4588079,21.605298 L60.4588079,35.746755 L60.4588079,35.746755 Z" id="Fill-204" fill="#1F2C46"></path>
                                    <polygon id="Fill-205" fill="#1F2C46" points="72.8137748 35.0760265 75.0834437 35.0760265 75.0834437 20.8259603 72.8137748 20.8259603"></polygon>
                                    <path d="M76.005298,36.2256954 C76.005298,37.4161589 75.0405298,38.3819868 73.8516556,38.3819868 C72.6617219,38.3819868 71.6953642,37.4161589 71.6953642,36.2256954 C71.6953642,35.0378808 72.6617219,34.072053 73.8516556,34.072053 C75.0405298,34.072053 76.005298,35.0378808 76.005298,36.2256954" id="Fill-206" fill="#46585B"></path>
                                    <path d="M73.8516556,35.2068874 C73.2884768,35.2068874 72.8301987,35.664106 72.8301987,36.2256954 C72.8301987,36.7888742 73.2884768,37.2471523 73.8516556,37.2471523 C74.413245,37.2471523 74.8704636,36.7888742 74.8704636,36.2256954 C74.8704636,35.664106 74.413245,35.2068874 73.8516556,35.2068874 Z M73.8516556,39.5168212 C72.0370861,39.5168212 70.5605298,38.0402649 70.5605298,36.2256954 C70.5605298,34.4116556 72.0370861,32.9372185 73.8516556,32.9372185 C75.6656954,32.9372185 77.1401325,34.4116556 77.1401325,36.2256954 C77.1401325,38.0402649 75.6656954,39.5168212 73.8516556,39.5168212 L73.8516556,39.5168212 Z" id="Fill-207" fill="#1F2C46"></path>
                                    <path d="M18.064106,26.0434437 C17.5766887,26.0434437 17.1258278,25.7255629 16.9780132,25.2333775 C16.7984106,24.6331126 17.1380132,24.0005298 17.7393377,23.8203974 C18.0900662,23.7154967 26.4625166,21.2482119 37.8643709,21.6397351 C38.4911258,21.6619868 38.9817219,22.1864901 38.9605298,22.813245 C38.9382781,23.4394702 38.3915232,23.9109934 37.7870199,23.909404 C26.7427815,23.52 18.4731126,25.9703311 18.3909934,25.994702 C18.2829139,26.0275497 18.1727152,26.0434437 18.064106,26.0434437" id="Fill-208" fill="#1F2C46"></path>
                                    <path d="M28.2055629,11.4686093 C27.8045033,11.4686093 27.4140397,11.2545695 27.207947,10.8768212 C26.9086093,10.3263576 27.1115232,9.63655629 27.661457,9.33615894 L35.5613245,5.02622517 C36.1091391,4.72635762 36.8,4.92821192 37.101457,5.4792053 C37.4013245,6.02913907 37.1984106,6.7189404 36.6484768,7.01933775 L28.7486093,11.3298013 C28.5764238,11.4235762 28.3899338,11.4686093 28.2055629,11.4686093" id="Fill-209" fill="#1F2C46"></path>
                                    <path d="M22.9377483,14.3417219 C22.5298013,14.3417219 22.1345695,14.1207947 21.9316556,13.7340397 C21.6402649,13.1788079 21.8537748,12.4927152 22.4090066,12.2013245 L24.8021192,10.944106 C25.3557616,10.6527152 26.0439735,10.8662252 26.3353642,11.4209272 C26.626755,11.9761589 26.413245,12.6627815 25.858543,12.9541722 L23.4649007,14.2113907 C23.2964238,14.2998675 23.1157616,14.3417219 22.9377483,14.3417219" id="Fill-210" fill="#1F2C46"></path>
                                    <path d="M16.6839735,76.6786755 C16.4598675,76.6786755 16.2331126,76.6124503 16.0354967,76.474702 C10.32,72.4895364 6.73589404,66.6262252 4.75602649,58.0217219 C4.61562914,57.4108609 4.99655629,56.8015894 5.60741722,56.6611921 C6.22092715,56.5192053 6.82754967,56.9027815 6.96794702,57.5125828 C8.81377483,65.5348344 12.1080795,70.9690066 17.3345695,74.6124503 C17.8484768,74.9711258 17.9750993,75.6778808 17.615894,76.1928477 C17.3949669,76.5091391 17.0431788,76.6786755 16.6839735,76.6786755" id="Fill-211" fill="#1F2C46"></path>
                                    <path d="M21.3743046,79.5634437 C21.2476821,79.5634437 21.1189404,79.5422517 20.9933775,79.4972185 C20.8996026,79.4633113 20.0524503,79.1496689 18.9197351,78.3729801 C18.402649,78.0180132 18.2712583,77.3112583 18.6262252,76.794702 C18.9817219,76.2776159 19.687947,76.1462252 20.2039735,76.5006623 C21.0950993,77.1115232 21.7552318,77.3589404 21.7615894,77.3605298 C22.3486093,77.5761589 22.6527152,78.226755 22.4392053,78.8137748 C22.2717881,79.2752318 21.8384106,79.5634437 21.3743046,79.5634437" id="Fill-212" fill="#1F2C46"></path>
                                </g>
                            </g>
                        </g>
                    </g>
                </g>
            </g>
        </g>
    </g>
</svg>