<?xml version="1.0" encoding="UTF-8"?>
<svg width="87px" height="80px" viewBox="0 0 87 80" version="1.1" xmlns="http://www.w3.org/2000/svg" xmlns:xlink="http://www.w3.org/1999/xlink">
    <!-- Generator: sketchtool 54.1 (76490) - https://sketchapp.com -->
    <title>EA20EE29-723F-40E6-8222-3100659976EE</title>
    <desc>Created with sketchtool.</desc>
    <g id="Docent" stroke="none" stroke-width="1" fill="none" fill-rule="evenodd">
        <g id="home-333a" transform="translate(-1060.000000, -3726.000000)">
            <g id="Features" transform="translate(405.000000, 3541.000000)">
                <g id="Group-14-Copy-9" transform="translate(0.000000, 136.000000)">
                    <g id="Group-4">
                        <g id="Group-8" transform="translate(570.000000, 0.000000)">
                            <g id="emotionless_man_twus3e__1_-removebg-hd-copy-3" transform="translate(1.000000, 49.000000)">
                                <g id="Group-2" transform="translate(84.000000, 0.000000)">
                                    <g id="Group">
                                        <path d="M68.56,34.1687356 C66.0183908,22.1811494 55.3383908,13.0974713 42.5429885,13.0974713 C29.7494253,13.0974713 19.0698851,22.1811494 16.5264368,34.1687356 L68.56,34.1687356" id="Fill-112" fill="#47B48F"></path>
                                        <path d="M17.7728736,33.183908 L67.3135632,33.183908 C64.3843678,22.0450575 54.1577011,14.0827586 42.5429885,14.0827586 C30.9301149,14.0827586 20.703908,22.0450575 17.7728736,33.183908 Z M69.7756322,35.154023 L15.3103448,35.154023 L15.5627586,33.9641379 C18.2491954,21.3025287 29.5958621,12.1126437 42.5429885,12.1126437 C55.4924138,12.1126437 66.8390805,21.3029885 69.5232184,33.9645977 L69.7756322,35.154023 L69.7756322,35.154023 Z" id="Fill-113" fill="#1F2C46"></path>
                                        <path d="M44.2436782,14.1724138 C52.2321839,17.4777011 60.1052874,21.9186207 63.9668966,33.1581609 L67.2795402,33.1581609 C64.4864368,23.0422989 55.1209195,14.9052874 44.2436782,14.1724138" id="Fill-114" fill="#31B08E"></path>
                                        <path d="M23.8367816,28.0050575 C23.6694253,28.0050575 23.4997701,27.9622989 23.3443678,27.8726437 C22.8735632,27.6 22.7131034,26.9977011 22.9852874,26.5264368 C23.3990805,25.8114943 23.8551724,25.1190805 24.3406897,24.468046 C24.6657471,24.0317241 25.2827586,23.9425287 25.7190805,24.2675862 C26.1554023,24.5921839 26.2450575,25.2096552 25.92,25.645977 C25.48,26.2358621 25.0666667,26.8643678 24.6905747,27.5135632 C24.508046,27.8289655 24.1770115,28.0050575 23.8367816,28.0050575" id="Fill-115" fill="#1F2C46"></path>
                                        <path d="M27.04,23.8285057 C26.7885057,23.8285057 26.5370115,23.7324138 26.3448276,23.5411494 C25.9595402,23.1577011 25.9581609,22.5337931 26.342069,22.1485057 C30.2974713,18.1765517 35.7701149,15.8983908 41.3563218,15.8983908 L41.3595402,15.8983908 C41.903908,15.8983908 42.3448276,16.3393103 42.343908,16.8832184 C42.343908,17.4275862 41.9029885,17.8685057 41.3595402,17.8685057 L41.3563218,17.8685057 C36.2896552,17.8685057 31.3268966,19.9351724 27.737931,23.5383908 C27.5452874,23.7314943 27.2924138,23.8285057 27.04,23.8285057" id="Fill-116" fill="#1F2C46"></path>
                                        <path d="M70.5581609,34.1687356 C70.5581609,35.2147126 69.7094253,36.0625287 68.6652874,36.0625287 L16.9268966,36.0625287 C15.8813793,36.0625287 15.0344828,35.2147126 15.0344828,34.1687356 C15.0344828,33.1236782 15.8813793,32.2763218 16.9268966,32.2763218 L68.6652874,32.2763218 C69.7094253,32.2763218 70.5581609,33.1236782 70.5581609,34.1687356" id="Fill-117" fill="#E2ECF2"></path>
                                        <path d="M16.9268966,33.2616092 C16.4262069,33.2616092 16.0193103,33.668046 16.0193103,34.1687356 C16.0193103,34.6698851 16.4262069,35.0772414 16.9268966,35.0772414 L68.6652874,35.0772414 C69.1655172,35.0772414 69.5733333,34.6698851 69.5733333,34.1687356 C69.5733333,33.668046 69.1655172,33.2616092 68.6652874,33.2616092 L16.9268966,33.2616092 Z M68.6652874,37.0478161 L16.9268966,37.0478161 C15.3397701,37.0478161 14.0491954,35.7563218 14.0491954,34.1687356 C14.0491954,32.582069 15.3397701,31.2910345 16.9268966,31.2910345 L68.6652874,31.2910345 C70.2524138,31.2910345 71.5429885,32.582069 71.5429885,34.1687356 C71.5429885,35.7563218 70.2524138,37.0478161 68.6652874,37.0478161 L68.6652874,37.0478161 Z" id="Fill-118" fill="#1F2C46"></path>
                                        <polyline id="Fill-119" fill="#E2ECF2" points="67.0165517 39.8478161 18.1149425 39.8478161 17.5944828 36.0625287 67.536092 36.0625287 67.0165517 39.8478161"></polyline>
                                        <path d="M18.9742529,38.8629885 L66.1572414,38.8629885 L66.4068966,37.0478161 L18.7241379,37.0478161 L18.9742529,38.8629885 Z M67.0165517,40.8331034 L18.1149425,40.8331034 C17.6229885,40.8331034 17.205977,40.4698851 17.1393103,39.9825287 L16.6188506,36.1967816 C16.5797701,35.9144828 16.6648276,35.6294253 16.851954,35.4151724 C17.0390805,35.2004598 17.3098851,35.0772414 17.5944828,35.0772414 L67.536092,35.0772414 C67.8202299,35.0772414 68.0910345,35.2004598 68.2786207,35.4151724 C68.4652874,35.6294253 68.5508046,35.9144828 68.5121839,36.1963218 L67.9931034,39.982069 C67.925977,40.4698851 67.5089655,40.8331034 67.0165517,40.8331034 L67.0165517,40.8331034 Z" id="Fill-120" fill="#1F2C46"></path>
                                        <path d="M41.6321839,77.7498851 C41.5737931,77.7498851 41.5154023,77.7452874 41.456092,77.7342529 C39.9062069,77.4556322 38.3402299,77.0882759 36.8022989,76.6427586 C16.4354023,72.3282759 2.43264368,53.177931 4.99356322,33.0625287 C5.06252874,32.5232184 5.55494253,32.1383908 6.09517241,32.2096552 C6.63494253,32.2786207 7.01655172,32.7714943 6.94804598,33.3112644 C4.5154023,52.4174713 17.8390805,70.611954 37.2813793,74.7328736 C38.8234483,75.1770115 40.3218391,75.5287356 41.8055172,75.7954023 C42.3406897,75.8914943 42.6970115,76.4041379 42.6004598,76.9393103 C42.5144828,77.416092 42.0997701,77.7498851 41.6321839,77.7498851" id="Fill-121" fill="#1F2C46"></path>
                                        <g id="Group-12" transform="translate(1.000000, 34.000000)" fill="#47B48F">
                                            <path d="M16.6275862,38.7636782 C17.9986207,35.9898851 22.4822989,34.794023 23.9774713,37.4845977 C24.5756322,38.68 22.9305747,40.1747126 20.7636782,40.2501149 C19.1305747,40.3052874 17.5825287,39.5057471 16.6275862,38.7636782" id="Fill-122"></path>
                                            <path d="M22.9393103,29.0068966 C25.7714943,30.3098851 28.1618391,35.0924138 25.171954,36.2896552 C23.9774713,36.8868966 21.5857471,35.0924138 21.7622989,32.943908 C21.5866667,31.4257471 22.1558621,29.8666667 22.9393103,29.0068966" id="Fill-124"></path>
                                            <path d="M8.47034483,31.5954023 C10.2262069,30.3098851 12.6170115,28.5158621 15.0087356,30.3098851 C17.4009195,32.7016092 13.8128736,33.8974713 12.2836782,33.6133333 C10.7213793,33.3963218 9.22528736,32.5089655 8.47034483,31.5954023" id="Fill-126"></path>
                                            <path d="M16.5034483,22.9857471 C19.2133333,24.2045977 20.3894253,30.3098851 16.8027586,30.9075862 C14.5609195,30.1609195 14.485977,27.8436782 14.5094253,26.8367816 C14.6942529,25.2804598 15.5885057,23.6997701 16.5034483,22.9857471" id="Fill-128"></path>
                                            <path d="M3.05149425,22.2390805 C5.57149425,20.1889655 9.3291954,21.5416092 9.62850575,24.3314943 C9.3291954,25.2285057 7.43632184,25.6262069 5.84275862,25.1287356 C4.50068966,24.7098851 3.4983908,23.2422989 3.05149425,22.2390805" id="Fill-130"></path>
                                            <path d="M12.2188506,16.56 C13.7521839,19.0142529 13.8128736,23.1351724 10.2262069,23.7324138 C9.62850575,23.0363218 8.9462069,20.9282759 9.72827586,19.3489655 C10.2593103,17.9296552 11.2735632,17.0298851 12.2188506,16.56" id="Fill-132"></path>
                                            <path d="M0.546666667,10.7783908 C3.6491954,9.98252874 6.34022989,12.7728736 5.24505747,15.2648276 C4.44643678,15.4634483 3.25195402,15.3632184 2.15448276,14.6666667 C0.76091954,13.7696552 0.56091954,11.9765517 0.546666667,10.7783908" id="Fill-134"></path>
                                            <path d="M10.0271264,8.68735632 C10.4262069,9.38528736 10.6845977,10.9641379 10.0271264,12.3742529 C9.37103448,13.7852874 7.73517241,14.6666667 6.53931034,14.4675862 C5.98390805,14.4367816 6.03770115,11.6698851 6.93701149,10.4818391 C7.79494253,9.30344828 9.05517241,8.8445977 10.0271264,8.68735632" id="Fill-136"></path>
                                            <path d="M0.31954023,0.637241379 C2.35310345,1.21425287 5.04413793,2.80781609 4.24781609,6.19586207 C3.15172414,6.39586207 2.07816092,5.97747126 1.15908046,4.80183908 C0.27862069,3.6754023 0.122298851,1.67448276 0.31954023,0.637241379" id="Fill-138"></path>
                                            <path d="M26.4602299,43.6625287 C28.1618391,40.474023 31.1521839,39.2772414 34.7388506,41.0717241 C33.6928736,43.0891954 33.1016092,44.1535632 30.851954,44.7328736 C29.2478161,44.9627586 27.4537931,44.3434483 26.4602299,43.6625287" id="Fill-140"></path>
                                            <path d="M32.1227586,33.0386207 C35.3370115,34.4947126 37.7278161,39.2772414 34.7388506,40.474023 C33.5429885,41.0717241 31.1521839,39.2772414 31.2574713,37.1567816 C30.9756322,35.6147126 31.4101149,33.9811494 32.1227586,33.0386207" id="Fill-142"></path>
                                            <path d="M67.736092,38.7636782 C66.3664368,35.9898851 61.8832184,34.794023 60.388046,37.4845977 C59.7903448,38.68 61.4349425,40.1747126 63.6018391,40.2501149 C65.2358621,40.3052874 66.7834483,39.5057471 67.736092,38.7636782" id="Fill-145"></path>
                                            <path d="M61.4248276,29.0068966 C58.5944828,30.3098851 56.2036782,35.0924138 59.1931034,36.2896552 C60.388046,36.8868966 62.7802299,35.0924138 62.6032184,32.943908 C62.7793103,31.4257471 62.2091954,29.8666667 61.4248276,29.0068966" id="Fill-147"></path>
                                            <path d="M75.8951724,31.5954023 C74.1393103,30.3098851 71.7471264,28.5158621 69.3572414,30.3098851 C66.9641379,32.7016092 70.5512644,33.8974713 72.0804598,33.6133333 C73.6445977,33.3963218 75.1402299,32.5089655 75.8951724,31.5954023" id="Fill-149"></path>
                                            <path d="M67.8616092,22.9857471 C65.1521839,24.2045977 63.9765517,30.3098851 67.5622989,30.9075862 C69.8041379,30.1609195 69.8795402,27.8436782 69.8551724,26.8367816 C69.6712644,25.2804598 68.7770115,23.6997701 67.8616092,22.9857471" id="Fill-151"></path>
                                            <path d="M81.314023,22.2390805 C78.7931034,20.1889655 75.0363218,21.5416092 74.737931,24.3314943 C75.0363218,25.2285057 76.9287356,25.6262069 78.5213793,25.1287356 C79.8652874,24.7098851 80.8671264,23.2422989 81.314023,22.2390805" id="Fill-153"></path>
                                            <path d="M72.1466667,16.56 C70.6133333,19.0142529 70.5512644,23.1351724 74.1393103,23.7324138 C74.737931,23.0363218 75.4197701,20.9282759 74.6372414,19.3489655 C74.1062069,17.9296552 73.0924138,17.0298851 72.1466667,16.56" id="Fill-155"></path>
                                            <path d="M83.8193103,10.7783908 C80.7163218,9.98252874 78.0248276,12.7728736 79.1209195,15.2648276 C79.9181609,15.4634483 81.1135632,15.3632184 82.2110345,14.6666667 C83.6041379,13.7696552 83.8036782,11.9765517 83.8193103,10.7783908" id="Fill-157"></path>
                                            <path d="M74.3365517,8.68735632 C73.9388506,9.38528736 73.6804598,10.9641379 74.3365517,12.3742529 C74.9944828,13.7852874 76.6289655,14.6666667 77.8266667,14.4675862 C78.3816092,14.4367816 78.3278161,11.6698851 77.4271264,10.4818391 C76.5710345,9.30344828 75.3089655,8.8445977 74.3365517,8.68735632" id="Fill-159"></path>
                                            <path d="M84.045977,0.637241379 C82.0110345,1.21425287 79.3209195,2.80781609 80.1181609,6.19586207 C81.2128736,6.39586207 82.2873563,5.97747126 83.2073563,4.80183908 C84.0850575,3.6754023 84.2432184,1.67448276 84.045977,0.637241379" id="Fill-161"></path>
                                            <path d="M57.9057471,43.6625287 C56.2036782,40.474023 53.2133333,39.2772414 49.6262069,41.0717241 C50.6721839,43.0891954 51.262069,44.1535632 53.514023,44.7328736 C55.1177011,44.9627586 56.9121839,44.3434483 57.9057471,43.6625287" id="Fill-163"></path>
                                            <path d="M52.2436782,33.0386207 C49.0289655,34.4947126 46.6386207,39.2772414 49.6262069,40.474023 C50.8225287,41.0717241 53.2133333,39.2772414 53.1085057,37.1567816 C53.3894253,35.6147126 52.9554023,33.9811494 52.2436782,33.0386207" id="Fill-165"></path>
                                        </g>
                                        <path d="M18.9857471,72.4887356 C19.6289655,72.8588506 20.571954,73.2675862 21.6032184,73.2675862 L21.7305747,73.2657471 C22.862069,73.2262069 23.7489655,72.7108046 24.0395402,72.222069 C24.1508046,72.034023 24.1112644,71.9549425 24.0965517,71.9250575 C23.6547126,71.1324138 22.8257471,70.9581609 22.2114943,70.9581609 C21.023908,70.9581609 19.7627586,71.5806897 18.9857471,72.4887356 Z M21.6032184,75.2377011 C19.4395402,75.2377011 17.6795402,74.0514943 17.0229885,73.5411494 L16.388046,73.0478161 L16.7443678,72.3268966 C17.7011494,70.3921839 20,68.988046 22.2114943,68.988046 C23.8036782,68.988046 25.125977,69.7232184 25.8386207,71.005977 C26.1990805,71.7245977 26.1535632,72.5209195 25.7333333,73.2285057 C25.0441379,74.388046 23.4997701,75.1751724 21.7981609,75.2344828 L21.6032184,75.2377011 L21.6032184,75.2377011 Z" id="Fill-123" fill="#1F2C46"></path>
                                        <path d="M24.2248276,64.3163218 C23.8744828,64.9788506 23.6317241,65.8891954 23.7406897,66.8308046 L23.7517241,66.9273563 L23.743908,67.0243678 C23.6974713,67.5903448 23.9365517,68.2036782 24.3995402,68.7062069 C24.8514943,69.1972414 25.3613793,69.4206897 25.6436782,69.4206897 C25.7062069,69.4206897 25.7305747,69.4087356 25.7314943,69.4082759 L25.805977,69.3751724 C26.3172414,69.1701149 26.5517241,68.8275862 26.565977,68.2648276 C26.5977011,67.0073563 25.5149425,65.2570115 24.2248276,64.3163218 Z M25.6436782,71.3908046 C24.736092,71.3908046 23.7291954,70.8864368 22.9503448,70.0413793 C22.1402299,69.1618391 21.7144828,68.0450575 21.7733333,66.9627586 C21.6124138,65.3158621 22.1843678,63.4708046 23.2114943,62.3434483 L23.6970115,61.8105747 L24.3512644,62.1117241 C26.6372414,63.1636782 28.5926437,66.062069 28.5356322,68.3144828 C28.502069,69.6436782 27.7871264,70.6896552 26.5724138,71.1903448 C26.2905747,71.3232184 25.9783908,71.3908046 25.6436782,71.3908046 L25.6436782,71.3908046 Z" id="Fill-125" fill="#1F2C46"></path>
                                        <path d="M11.0363218,65.6868966 C11.6643678,66.1250575 12.5052874,66.5108046 13.4193103,66.6381609 C13.5572414,66.6625287 13.6643678,66.6698851 13.7783908,66.6698851 C14.6965517,66.6698851 15.6629885,66.2367816 15.8091954,65.8827586 C15.8735632,65.7273563 15.6988506,65.4064368 15.3613793,65.0570115 C14.8777011,64.708046 14.3857471,64.5383908 13.8588506,64.5383908 C12.9181609,64.5383908 11.9301149,65.0804598 11.0363218,65.6868966 Z M13.7783908,68.6395402 C13.5370115,68.6395402 13.3098851,68.6202299 13.1034483,68.582069 C11.4708046,68.3554023 9.68735632,67.4050575 8.7108046,66.2229885 L8.04551724,65.417931 L8.95218391,64.754023 C10.2818391,63.7802299 11.9365517,62.5687356 13.8588506,62.5687356 C14.834023,62.5687356 15.7563218,62.8891954 16.6,63.5218391 L16.7052874,63.6133333 C17.9770115,64.8855172 17.9098851,65.9590805 17.6294253,66.6367816 C17.0211494,68.1062069 14.9931034,68.6395402 13.7783908,68.6395402 L13.7783908,68.6395402 Z" id="Fill-127" fill="#1F2C46"></path>
                                        <path d="M16.4933333,60.9075862 C16.4652874,62.4993103 16.9085057,63.4537931 17.8832184,63.8841379 C18.2721839,63.7728736 18.8786207,63.4418391 19.0298851,62.274023 C19.2137931,60.8556322 18.56,59.0841379 17.6344828,58.2450575 C17.1131034,58.8937931 16.6234483,59.9006897 16.4933333,60.9075862 Z M17.7236782,65.9195402 L17.4914943,65.8418391 C16.0956322,65.3770115 14.4473563,64.1273563 14.5245977,60.8133333 L14.5310345,60.7204598 C14.7365517,58.9912644 15.7094253,57.136092 16.8974713,56.2091954 L17.365977,55.8441379 L17.9075862,56.0878161 C20.1181609,57.0818391 21.2822989,60.2197701 20.983908,62.5268966 C20.743908,64.377931 19.6436782,65.5995402 17.9645977,65.8790805 L17.7236782,65.9195402 L17.7236782,65.9195402 Z" id="Fill-129" fill="#1F2C46"></path>
                                        <path d="M5.34574713,56.5724138 C5.80643678,57.302069 6.45103448,57.9751724 7.13609195,58.1885057 C7.49655172,58.3011494 7.89701149,58.3604598 8.2937931,58.3604598 C8.91816092,58.3604598 9.37103448,58.2137931 9.58436782,58.0891954 C9.25701149,56.8822989 7.96551724,56.2354023 6.81011494,56.2354023 C6.42206897,56.2354023 5.89747126,56.3034483 5.34574713,56.5724138 Z M8.2937931,60.3305747 C7.70022989,60.3305747 7.09701149,60.24 6.54896552,60.0694253 C4.94758621,59.5691954 3.74390805,57.9701149 3.15172414,56.64 L2.8445977,55.9508046 L3.42988506,55.4749425 C4.40229885,54.6836782 5.57149425,54.2652874 6.81011494,54.2652874 C9.30298851,54.2652874 11.3655172,55.9682759 11.6078161,58.2266667 L11.6308046,58.44 L11.5632184,58.6432184 C11.2156322,59.6841379 9.96321839,60.3305747 8.2937931,60.3305747 L8.2937931,60.3305747 Z" id="Fill-131" fill="#1F2C46"></path>
                                        <path d="M12.8358621,51.988046 C12.4013793,52.3595402 11.9452874,52.9071264 11.6510345,53.6942529 L11.6110345,53.7862069 C11.1627586,54.6914943 11.3944828,55.8878161 11.6933333,56.5949425 C12.2818391,56.3714943 12.696092,55.982069 12.9512644,55.416092 C13.3618391,54.5052874 13.2993103,53.176092 12.8358621,51.988046 Z M10.8409195,58.7949425 L10.4790805,58.3742529 C9.62068966,57.3751724 8.90114943,54.8822989 9.82298851,52.9586207 C10.565977,51.0151724 11.9926437,50.0694253 12.7806897,49.6777011 L13.5811494,49.28 L14.0547126,50.0381609 C15.0616092,51.6501149 15.6662069,54.1889655 14.7471264,56.2262069 C14.3204598,57.1724138 13.3912644,58.3705747 11.388046,58.703908 L10.8409195,58.7949425 L10.8409195,58.7949425 Z" id="Fill-133" fill="#1F2C46"></path>
                                        <path d="M2.58344828,45.6257471 C2.71218391,46.7177011 3.07678161,47.4450575 3.68781609,47.8386207 C4.43448276,48.3126437 5.12505747,48.3710345 5.48873563,48.3696552 C5.58298851,47.7416092 5.33057471,47.2211494 5.14390805,46.9351724 C4.6091954,46.1158621 3.62666667,45.6091954 2.58344828,45.6257471 Z M5.46068966,50.3397701 C4.48781609,50.3397701 3.48137931,50.0409195 2.6262069,49.4983908 C1.28137931,48.6326437 0.588505747,47.0491954 0.56137931,44.7898851 L0.552643678,44.016092 L1.3016092,43.8243678 C3.40781609,43.2845977 5.67402299,44.1425287 6.79402299,45.857931 C7.56275862,47.0363218 7.69149425,48.4225287 7.14666667,49.6611494 L6.95218391,50.1034483 L6.48275862,50.2206897 C6.16413793,50.2997701 5.82022989,50.3397701 5.46068966,50.3397701 L5.46068966,50.3397701 Z" id="Fill-135" fill="#1F2C46"></path>
                                        <path d="M10.3885057,43.8616092 C9.80965517,44.0666667 9.19448276,44.428046 8.73333333,45.0616092 C8.29931034,45.6358621 8.13931034,46.8285057 8.16643678,47.4855172 C8.86942529,47.3622989 9.74206897,46.8018391 10.1337931,45.9590805 C10.474023,45.2289655 10.4882759,44.4377011 10.3885057,43.8616092 Z M7.88873563,49.4804598 C7.72321839,49.4804598 7.56183908,49.4685057 7.40505747,49.4436782 C7.15724138,49.4114943 6.70252874,49.2698851 6.43126437,48.6845977 C5.94896552,47.6427586 6.21149425,45.1296552 7.15172414,43.8873563 C8.22022989,42.4183908 9.7645977,41.8937931 10.8698851,41.7149425 L11.5434483,41.6055172 L11.8822989,42.1986207 C12.4786207,43.2413793 12.6832184,45.154023 11.92,46.7903448 C11.1958621,48.3489655 9.50022989,49.4804598 7.88873563,49.4804598 L7.88873563,49.4804598 Z" id="Fill-137" fill="#1F2C46"></path>
                                        <path d="M2.24643678,36.0349425 C2.30712644,36.805977 2.51816092,37.662069 2.93471264,38.1949425 C3.3908046,38.777931 3.88137931,39.1236782 4.39724138,39.2262069 C4.48321839,37.5517241 3.37701149,36.583908 2.24643678,36.0349425 Z M4.72689655,41.2289655 C3.85057471,41.2289655 2.55908046,40.9131034 1.38298851,39.4082759 C0.226666667,37.9287356 0.136551724,35.5834483 0.351724138,34.4533333 L0.553103448,33.3963218 L1.58804598,33.6896552 C4.39862069,34.4864368 7.08781609,36.674023 6.20643678,40.4211494 L6.05885057,41.0491954 L5.42482759,41.1650575 C5.19218391,41.2073563 4.95724138,41.2289655 4.72689655,41.2289655 L4.72689655,41.2289655 Z" id="Fill-139" fill="#1F2C46"></path>
                                        <path d="M28.8418391,77.2947126 C29.6491954,77.6427586 30.7425287,77.8827586 31.6606897,77.7650575 C33.096092,77.3857471 33.6331034,76.8611494 34.3645977,75.5549425 C33.7287356,75.3328736 33.1154023,75.2202299 32.5324138,75.2202299 C30.7894253,75.2202299 29.6087356,76.2193103 28.8418391,77.2947126 Z M31.1448276,79.7668966 C29.4055172,79.7668966 27.7728736,79.0708046 26.9034483,78.4749425 L26.1765517,77.9765517 L26.5912644,77.1986207 C27.9503448,74.6524138 30.0602299,73.2501149 32.5324138,73.2501149 C33.7043678,73.2501149 34.9314943,73.5664368 36.1793103,74.1908046 L37.0731034,74.6381609 L36.6133333,75.5250575 C35.5714943,77.5347126 34.8188506,78.9862069 32.0974713,79.6868966 L31.9917241,79.708046 C31.7195402,79.7471264 31.4344828,79.7668966 31.1448276,79.7668966 L31.1448276,79.7668966 Z" id="Fill-141" fill="#1F2C46"></path>
                                        <path d="M33.4988506,68.3783908 C33.2128736,69.0841379 33.0524138,70.0266667 33.2266667,70.9797701 L33.2468966,71.0914943 L33.2409195,71.2055172 C33.2128736,71.7751724 33.4731034,72.3921839 33.9549425,72.8983908 C34.4170115,73.3843678 34.9291954,73.6055172 35.2087356,73.6055172 C35.2726437,73.6055172 35.2970115,73.5935632 35.2983908,73.5931034 L35.3724138,73.5595402 C35.8767816,73.3577011 36.1071264,73.0248276 36.1195402,72.48 C36.1457471,71.296092 35.0514943,69.4367816 33.4988506,68.3783908 Z M35.2087356,75.5756322 C34.3158621,75.5756322 33.3135632,75.0827586 32.5278161,74.2565517 C31.7062069,73.3931034 31.2514943,72.2951724 31.2698851,71.2257471 C30.9931034,69.5406897 31.4068966,67.6749425 32.3370115,66.4445977 L32.8114943,65.816092 L33.5291954,66.1411494 C36.0524138,67.2841379 38.1406897,70.2073563 38.0887356,72.5236782 C38.0593103,73.8386207 37.3498851,74.8758621 36.1388506,75.3747126 C35.8570115,75.508046 35.543908,75.5756322 35.2087356,75.5756322 L35.2087356,75.5756322 Z" id="Fill-143" fill="#1F2C46"></path>
                                        <path d="M44.7333333,77.7498851 C44.2657471,77.7498851 43.8510345,77.416092 43.7650575,76.9397701 C43.6685057,76.4041379 44.0248276,75.891954 44.56,75.7954023 C46.0473563,75.5278161 47.5452874,75.176092 49.0128736,74.7503448 C68.525977,70.6124138 81.8501149,52.4174713 79.4174713,33.3112644 C79.3485057,32.771954 79.7301149,32.2786207 80.2698851,32.2096552 C80.8211494,32.1457471 81.302069,32.5232184 81.3710345,33.0625287 C83.9328736,53.1783908 69.9296552,72.3282759 49.491954,76.6602299 C48.028046,77.0873563 46.4634483,77.4547126 44.9094253,77.7342529 C44.8501149,77.7452874 44.7917241,77.7498851 44.7333333,77.7498851" id="Fill-144" fill="#1F2C46"></path>
                                        <path d="M62.2496552,71.9622989 C62.2510345,71.9622989 62.2197701,72.0427586 62.3264368,72.2225287 C62.6165517,72.7112644 63.5034483,73.2262069 64.6358621,73.2657471 L64.7627586,73.2675862 C65.7944828,73.2675862 66.7365517,72.8593103 67.3788506,72.4887356 C66.6018391,71.5806897 65.3416092,70.9581609 64.1535632,70.9581609 C63.5393103,70.9581609 62.7108046,71.1324138 62.2487356,71.9632184 L62.2496552,71.9622989 Z M64.7627586,75.2377011 L64.7627586,75.2377011 L64.5682759,75.2344828 C62.8666667,75.1751724 61.3218391,74.388046 60.6326437,73.2289655 C60.2124138,72.5213793 60.1668966,71.7250575 60.5075862,71.0441379 C61.24,69.7232184 62.5618391,68.988046 64.1535632,68.988046 C66.3655172,68.988046 68.663908,70.3926437 69.6197701,72.3273563 L69.9747126,73.0473563 L69.3416092,73.5406897 C68.6864368,74.0505747 66.9291954,75.2377011 64.7627586,75.2377011 L64.7627586,75.2377011 Z" id="Fill-146" fill="#1F2C46"></path>
                                        <path d="M62.1406897,64.3163218 C60.8501149,65.2570115 59.7678161,67.0073563 59.7995402,68.2652874 C59.8142529,68.828046 60.0478161,69.1705747 60.5595402,69.3751724 L60.6335632,69.4082759 C60.634023,69.4087356 60.6583908,69.4206897 60.7218391,69.4206897 C61.0041379,69.4206897 61.514023,69.1972414 61.9668966,68.7062069 C62.4289655,68.2036782 62.6685057,67.5908046 62.6216092,67.0243678 L62.6137931,66.9273563 L62.6252874,66.8303448 C62.7342529,65.8891954 62.4910345,64.9788506 62.1406897,64.3163218 Z M60.7218391,71.3908046 L60.7209195,71.3908046 C60.3871264,71.3908046 60.0749425,71.3232184 59.7926437,71.1903448 C58.5783908,70.6896552 57.863908,69.6436782 57.8303448,68.3149425 C57.7733333,66.0629885 59.7278161,63.1641379 62.0128736,62.1121839 L62.6671264,61.8105747 L63.1526437,62.3429885 C64.1811494,63.4708046 64.7535632,65.3163218 64.5917241,66.9627586 C64.6510345,68.0450575 64.2257471,69.1613793 63.4151724,70.0409195 C62.6363218,70.8864368 61.6298851,71.3908046 60.7218391,71.3908046 L60.7218391,71.3908046 Z" id="Fill-148" fill="#1F2C46"></path>
                                        <path d="M71.0050575,65.0565517 C70.6662069,65.4068966 70.491954,65.7278161 70.5558621,65.8827586 C70.7025287,66.2372414 71.6685057,66.6698851 72.5852874,66.6698851 C72.7002299,66.6698851 72.8064368,66.6625287 72.9011494,66.6450575 C73.8445977,66.5131034 74.6965517,66.1255172 75.3287356,65.6864368 C74.4344828,65.08 73.445977,64.5383908 72.5062069,64.5383908 C71.9797701,64.5383908 71.4878161,64.708046 71.0050575,65.0565517 Z M72.5862069,68.6395402 L72.5852874,68.6395402 C71.3710345,68.6395402 69.343908,68.1062069 68.736092,66.6367816 C68.4551724,65.9595402 68.3885057,64.8855172 69.6611494,63.6133333 L69.7655172,63.5222989 C70.6087356,62.8891954 71.5305747,62.5687356 72.5062069,62.5687356 C74.4289655,62.5687356 76.0845977,63.7811494 77.4151724,64.7554023 L78.3195402,65.417931 L77.6547126,66.2229885 C76.6777011,67.4050575 74.8942529,68.3558621 73.216092,68.5889655 C73.0542529,68.6202299 72.8275862,68.6395402 72.5862069,68.6395402 L72.5862069,68.6395402 Z" id="Fill-150" fill="#1F2C46"></path>
                                        <path d="M68.7310345,58.2445977 C67.8055172,59.0841379 67.1521839,60.8556322 67.336092,62.274023 C67.4482759,63.143908 67.8354023,63.6832184 68.4882759,63.8809195 C69.4593103,63.4491954 69.9002299,62.4956322 69.8712644,60.9075862 C69.7416092,59.9006897 69.2528736,58.8937931 68.7310345,58.2445977 Z M68.6413793,65.9195402 L68.4004598,65.8790805 C66.7218391,65.5995402 65.6216092,64.377931 65.382069,62.5268966 C65.0827586,60.2197701 66.2478161,57.0818391 68.4574713,56.0878161 L68.9990805,55.8441379 L69.4671264,56.2091954 C70.6565517,57.136092 71.6289655,58.9912644 71.8335632,60.7213793 L71.84,60.8128736 C71.92,64.125977 70.2708046,65.3765517 68.8735632,65.8418391 L68.6413793,65.9195402 L68.6413793,65.9195402 Z" id="Fill-152" fill="#1F2C46"></path>
                                        <path d="M76.7793103,58.0983908 C76.982069,58.2091954 77.4386207,58.3604598 78.0712644,58.3604598 C78.4675862,58.3604598 78.868046,58.3011494 79.228046,58.1885057 C79.9135632,57.9751724 80.5590805,57.3025287 81.0202299,56.5724138 C80.4675862,56.3034483 79.9434483,56.2354023 79.5549425,56.2354023 C78.3967816,56.2354023 77.102069,56.8855172 76.7793103,58.0983908 Z M78.0712644,60.3305747 L78.0712644,60.3305747 C76.4018391,60.3305747 75.1498851,59.6836782 74.8027586,58.6427586 L74.7351724,58.4395402 L74.7577011,58.2266667 C75.0004598,55.9682759 77.0616092,54.2652874 79.5549425,54.2652874 C80.7935632,54.2652874 81.9627586,54.6836782 82.9351724,55.4749425 L83.5204598,55.9508046 L83.2137931,56.64 C82.6211494,57.9701149 81.4174713,59.5696552 79.8142529,60.0694253 C79.2675862,60.24 78.6643678,60.3305747 78.0712644,60.3305747 L78.0712644,60.3305747 Z" id="Fill-154" fill="#1F2C46"></path>
                                        <path d="M73.5301149,51.9875862 C73.0662069,53.176092 73.0027586,54.5057471 73.4137931,55.4165517 C73.6689655,55.982069 74.0836782,56.3714943 74.6726437,56.5949425 C74.9710345,55.8882759 75.2032184,54.691954 74.7544828,53.7862069 L74.7144828,53.6942529 C74.4202299,52.9066667 73.9641379,52.3595402 73.5301149,51.9875862 Z M75.5245977,58.7949425 L74.9774713,58.703908 C72.9737931,58.3705747 72.0445977,57.1724138 71.6174713,56.2262069 C70.6993103,54.1889655 71.303908,51.6501149 72.3117241,50.0381609 L72.7848276,49.28 L73.5848276,49.6777011 C74.3733333,50.0694253 75.7990805,51.0147126 76.5429885,52.9581609 C77.4648276,54.8832184 76.7452874,57.3756322 75.885977,58.3747126 L75.5245977,58.7949425 L75.5245977,58.7949425 Z" id="Fill-156" fill="#1F2C46"></path>
                                        <path d="M80.8767816,48.3696552 C81.2395402,48.3691954 81.9305747,48.3131034 82.6832184,47.8354023 C83.2887356,47.4450575 83.6514943,46.7181609 83.7811494,45.6257471 L83.7393103,45.6252874 C82.7131034,45.6252874 81.7489655,46.1273563 81.2211494,46.9351724 C81.0349425,47.2211494 80.7825287,47.7416092 80.8767816,48.3696552 Z M80.9043678,50.3397701 C80.5448276,50.3397701 80.2004598,50.2997701 79.8827586,50.2206897 L79.4137931,50.1034483 L79.2193103,49.6611494 C78.674023,48.4225287 78.8022989,47.0363218 79.5714943,45.8583908 C80.6905747,44.1429885 82.9544828,43.2827586 85.063908,43.8243678 L85.8142529,44.0165517 L85.8041379,44.7912644 C85.7747126,47.0510345 85.0813793,48.6335632 83.743908,49.4947126 C82.8841379,50.0409195 81.8772414,50.3397701 80.9043678,50.3397701 L80.9043678,50.3397701 Z" id="Fill-158" fill="#1F2C46"></path>
                                        <path d="M75.9765517,43.862069 C75.8767816,44.4386207 75.8901149,45.2298851 76.2294253,45.9586207 C76.6225287,46.8018391 77.4965517,47.3622989 78.1995402,47.4850575 C78.2266667,46.8289655 78.068046,45.6386207 77.6418391,45.0767816 C77.1742529,44.4331034 76.5558621,44.068046 75.9765517,43.862069 Z M78.4767816,49.4804598 L78.4767816,49.4804598 C76.8666667,49.4804598 75.1705747,48.3494253 74.4436782,46.7903448 C73.6827586,45.1549425 73.8864368,43.2432184 74.4809195,42.1995402 L74.8193103,41.6055172 L75.4937931,41.7149425 C76.6004598,41.8942529 78.1462069,42.4188506 79.2234483,43.9029885 C80.1526437,45.1282759 80.4170115,47.6418391 79.9347126,48.6841379 C79.663908,49.2698851 79.2091954,49.4114943 78.9613793,49.4436782 C78.8045977,49.4685057 78.6427586,49.4804598 78.4767816,49.4804598 L78.4767816,49.4804598 Z" id="Fill-160" fill="#1F2C46"></path>
                                        <path d="M84.1190805,36.0344828 C82.988046,36.583908 81.8822989,37.5512644 81.9682759,39.2262069 C82.4841379,39.1236782 82.9751724,38.777931 83.4312644,38.1949425 C83.8473563,37.6611494 84.0574713,36.8055172 84.1190805,36.0344828 Z M81.6386207,41.2289655 L81.6386207,41.2289655 C81.4082759,41.2289655 81.1737931,41.2073563 80.9406897,41.1650575 L80.3075862,41.0487356 L80.1590805,40.4211494 C79.2772414,36.6731034 81.9664368,34.4864368 84.7774713,33.6896552 L85.8128736,33.3963218 L86.0137931,34.4533333 C86.2289655,35.582069 86.1388506,37.9255172 84.983908,39.4073563 C83.805977,40.9131034 82.5149425,41.2289655 81.6386207,41.2289655 L81.6386207,41.2289655 Z" id="Fill-162" fill="#1F2C46"></path>
                                        <path d="M54.7048276,77.7650575 C55.6206897,77.8813793 56.7158621,77.6427586 57.5236782,77.2947126 C56.7572414,76.2193103 55.5765517,75.2202299 53.8326437,75.2202299 C53.2501149,75.2202299 52.6363218,75.3328736 52,75.5549425 C52.7324138,76.8611494 53.2698851,77.3862069 54.7048276,77.7650575 Z M55.2206897,79.7668966 L55.2206897,79.7668966 C54.9310345,79.7668966 54.6464368,79.7471264 54.3742529,79.708046 L54.2689655,79.6873563 C51.5466667,78.9866667 50.7935632,77.5347126 49.7517241,75.5255172 L49.2914943,74.6381609 L50.1852874,74.1908046 C51.4335632,73.5664368 52.6606897,73.2501149 53.8326437,73.2501149 C56.3052874,73.2501149 58.416092,74.6524138 59.7747126,77.1986207 L60.1894253,77.9765517 L59.4625287,78.4749425 C58.5926437,79.0708046 56.96,79.7668966 55.2206897,79.7668966 L55.2206897,79.7668966 Z" id="Fill-164" fill="#1F2C46"></path>
                                        <path d="M52.8671264,68.3788506 C51.3144828,69.4372414 50.2202299,71.2965517 50.2464368,72.4804598 C50.2583908,73.0248276 50.4887356,73.3577011 50.9926437,73.5595402 L51.0666667,73.5931034 C51.0758621,73.5977011 51.1048276,73.6055172 51.1563218,73.6055172 C51.4363218,73.6055172 51.948046,73.3843678 52.4105747,72.8983908 C52.891954,72.3921839 53.1531034,71.7751724 53.1245977,71.2050575 L53.1186207,71.091954 L53.1393103,70.9802299 C53.3131034,70.0271264 53.1521839,69.0845977 52.8671264,68.3788506 Z M51.1563218,75.5756322 L51.1563218,75.5756322 C50.8206897,75.5756322 50.508046,75.508046 50.2257471,75.3747126 C49.0156322,74.8758621 48.3062069,73.8390805 48.2767816,72.5241379 C48.2257471,70.2073563 50.3135632,67.2841379 52.8372414,66.1411494 L53.5549425,65.816092 L54.0294253,66.4450575 C54.9586207,67.6749425 55.371954,69.5397701 55.096092,71.2252874 C55.114023,72.2947126 54.6593103,73.3935632 53.8377011,74.2565517 C53.051954,75.0827586 52.0491954,75.5756322 51.1563218,75.5756322 L51.1563218,75.5756322 Z" id="Fill-166" fill="#1F2C46"></path>
                                        <polygon id="Fill-167" fill="#1F2C46" points="41.8110345 13.0321839 43.7806897 13.0321839 43.7806897 0.413333333 41.8110345 0.413333333"></polygon>
                                        <polyline id="Fill-168" fill="#F2B658" points="52.2602299 8.93103448 42.7958621 8.93103448 42.7958621 1.36 52.2602299 1.36 50.3673563 5.05471264 52.2602299 8.93103448"></polyline>
                                        <path d="M43.7806897,7.9462069 L50.6832184,7.9462069 L49.4827586,5.48689655 C49.3466667,5.20827586 49.3494253,4.88183908 49.4910345,4.60597701 L50.6491954,2.34482759 L43.7806897,2.34482759 L43.7806897,7.9462069 Z M52.2602299,9.91632184 L42.7958621,9.91632184 C42.251954,9.91632184 41.8110345,9.4754023 41.8110345,8.93103448 L41.8110345,1.36 C41.8110345,0.815632184 42.251954,0.374712644 42.7958621,0.374712644 L52.2602299,0.374712644 C52.6027586,0.374712644 52.9213793,0.553103448 53.1002299,0.845977011 C53.28,1.13885057 53.2933333,1.50344828 53.1365517,1.80873563 L51.4694253,5.06574713 L53.1452874,8.49885057 C53.2942529,8.8045977 53.2754023,9.16505747 53.0951724,9.45333333 C52.9158621,9.74114943 52.6,9.91632184 52.2602299,9.91632184 L52.2602299,9.91632184 Z" id="Fill-169" fill="#1F2C46"></path>
                                        <path d="M18.708046,46.8285057 C18.2229885,46.8285057 17.7195402,46.7471264 17.2455172,46.5802299 C16.1052874,46.1793103 15.2850575,45.3503448 14.9365517,44.2468966 C14.4349425,42.6588506 14.845977,41.5370115 15.2795402,40.8754023 C15.9305747,39.8813793 17.1066667,39.2266667 18.5057471,39.0790805 C19.3586207,38.9894253 25.4818391,38.9701149 26.1774713,38.9682759 L26.1825287,40.9383908 C23.5944828,40.9452874 19.2781609,40.9788506 18.7121839,41.0386207 C17.903908,41.1236782 17.2533333,41.4574713 16.9278161,41.9549425 C16.6372414,42.3986207 16.5990805,42.9696552 16.8151724,43.6528736 C16.9770115,44.165977 17.342069,44.5255172 17.8993103,44.7218391 C18.5443678,44.9485057 19.2022989,44.8593103 19.4298851,44.7071264 L20.5227586,46.3462069 C20.0455172,46.6648276 19.3954023,46.8285057 18.708046,46.8285057" id="Fill-170" fill="#1F2C46"></path>
                                        <path d="M28.2128736,46.8285057 C27.5255172,46.8285057 26.8754023,46.6648276 26.3977011,46.3466667 L27.4901149,44.7071264 C27.7181609,44.8588506 28.377931,44.948046 29.0229885,44.7213793 C29.5797701,44.5250575 29.9443678,44.165977 30.1066667,43.6528736 C30.3222989,42.9696552 30.2845977,42.3986207 29.994023,41.9549425 C29.668046,41.4574713 29.0174713,41.1236782 28.2096552,41.0386207 C27.6422989,40.9788506 23.3255172,40.9452874 20.7374713,40.9383908 L20.7425287,38.9682759 C21.4381609,38.9701149 27.5618391,38.9894253 28.416092,39.0790805 C29.8147126,39.2266667 30.9908046,39.8813793 31.6418391,40.8754023 C32.0754023,41.5370115 32.4864368,42.6588506 31.9848276,44.2468966 C31.6363218,45.3498851 30.8170115,46.177931 29.6777011,46.5797701 C29.2027586,46.7466667 28.6983908,46.8285057 28.2128736,46.8285057" id="Fill-171" fill="#1F2C46"></path>
                                        <path d="M20.0813793,56.2914943 C19.5374713,56.2914943 19.096092,55.8505747 19.096092,55.3062069 L19.096092,43.8698851 L19.0970115,43.8022989 C18.6845977,43.708046 18.3581609,43.3577011 18.3245977,42.9186207 C18.2836782,42.3811494 18.6675862,41.9121839 19.2036782,41.8634483 C19.7126437,41.8188506 20.1770115,41.9751724 20.5144828,42.3066667 C21.1071264,42.8887356 21.0763218,43.7696552 21.063908,43.9406897 L21.0666667,55.3062069 C21.0666667,55.8505747 20.6252874,56.2914943 20.0813793,56.2914943" id="Fill-172" fill="#1F2C46"></path>
                                        <path d="M27.8105747,42.8445977 L27.7213793,43.8257471 L27.7218391,43.8257471 L27.8105747,42.8445977 Z M27.0216092,58.8151724 C26.4777011,58.8151724 26.0367816,58.3737931 26.0367816,57.8298851 L26.0367816,43.8698851 C26.0271264,43.7696552 25.9958621,42.8887356 26.5885057,42.3066667 C26.9264368,41.9751724 27.3921839,41.8211494 27.8993103,41.8634483 C28.4409195,41.9126437 28.8404598,42.3917241 28.7917241,42.9333333 C28.7517241,43.3783908 28.4211494,43.7273563 28.0041379,43.8110345 L28.0068966,57.8298851 C28.0068966,58.3737931 27.565977,58.8151724 27.0216092,58.8151724 L27.0216092,58.8151724 Z" id="Fill-173" fill="#1F2C46"></path>
                                        <path d="M23.5733333,57.5535632 C23.0294253,57.5535632 22.588046,57.1121839 22.588046,56.5682759 L22.588046,42.6873563 C22.588046,42.1429885 23.0294253,41.702069 23.5733333,41.702069 C24.1172414,41.702069 24.5586207,42.1429885 24.5586207,42.6873563 L24.5586207,56.5682759 C24.5586207,57.1121839 24.1172414,57.5535632 23.5733333,57.5535632" id="Fill-174" fill="#1F2C46"></path>
                                        <path d="M66.7011494,47.4597701 C66.0133333,47.4597701 65.3636782,47.2956322 64.8855172,46.9774713 L65.9783908,45.337931 C66.2055172,45.4891954 66.8634483,45.5797701 67.5112644,45.3521839 C68.0675862,45.1563218 68.4326437,44.7967816 68.5944828,44.2845977 C68.8101149,43.6009195 68.7714943,43.0294253 68.4818391,42.5857471 C68.1554023,42.0882759 67.5048276,41.7544828 66.6974713,41.6698851 C66.1301149,41.6096552 61.8128736,41.576092 59.2248276,41.5691954 L59.2303448,39.5990805 C59.925977,39.6009195 66.0496552,39.6202299 66.9034483,39.7103448 C68.3016092,39.8574713 69.4777011,40.5117241 70.1291954,41.5062069 C70.5632184,42.1678161 70.9742529,43.2896552 70.4726437,44.8777011 C70.1241379,45.9806897 69.3048276,46.8091954 68.1655172,47.2105747 C67.6905747,47.3774713 67.1862069,47.4597701 66.7011494,47.4597701" id="Fill-175" fill="#1F2C46"></path>
                                        <path d="M57.1958621,47.4597701 C56.7108046,47.4597701 56.2064368,47.3774713 55.7314943,47.2105747 C54.5917241,46.8091954 53.7728736,45.9806897 53.4243678,44.8772414 C52.9227586,43.2905747 53.3337931,42.1687356 53.7673563,41.5066667 C54.4183908,40.5121839 55.5949425,39.8574713 56.9931034,39.7103448 C57.8473563,39.6202299 63.9696552,39.6009195 64.6652874,39.5990805 L64.6708046,41.5691954 C62.0827586,41.576092 57.7668966,41.6096552 57.1995402,41.6698851 C56.3917241,41.7544828 55.7411494,42.0887356 55.4156322,42.5862069 C55.1245977,43.0298851 55.0868966,43.6009195 55.3029885,44.2836782 C55.4643678,44.7967816 55.8294253,45.1563218 56.3857471,45.3521839 C57.0331034,45.5797701 57.6905747,45.4891954 57.9186207,45.337931 L59.0114943,46.9774713 C58.5333333,47.2956322 57.8836782,47.4597701 57.1958621,47.4597701" id="Fill-176" fill="#1F2C46"></path>
                                        <path d="M65.5094253,56.9222989 C64.965977,56.9222989 64.5245977,56.4813793 64.5245977,55.9374713 L64.5245977,44.5011494 C64.5149425,44.3995402 64.4850575,43.5177011 65.0786207,42.9370115 C65.4156322,42.6064368 65.8822989,42.4496552 66.388046,42.4956322 C66.9245977,42.5443678 67.3089655,43.0147126 67.2666667,43.5521839 C67.2326437,43.9917241 66.9052874,44.3416092 66.4928736,44.4349425 L66.4928736,44.4455172 L66.4942529,55.9374713 C66.4942529,56.4813793 66.0533333,56.9222989 65.5094253,56.9222989" id="Fill-177" fill="#1F2C46"></path>
                                        <path d="M58.5691954,59.445977 C58.0252874,59.445977 57.5843678,59.0050575 57.5843678,58.4611494 L57.5843678,44.5011494 L57.5852874,44.4335632 C57.1733333,44.3388506 56.8464368,43.9894253 56.8128736,43.5503448 C56.771954,43.0137931 57.1544828,42.5443678 57.6914943,42.4956322 C58.1958621,42.4482759 58.6648276,42.6064368 59.0032184,42.9383908 C59.5954023,43.52 59.5641379,44.4013793 59.5517241,44.571954 L59.554023,58.4611494 C59.554023,59.0050575 59.1126437,59.445977 58.5691954,59.445977" id="Fill-178" fill="#1F2C46"></path>
                                        <path d="M62.0616092,58.183908 C61.5177011,58.183908 61.0767816,57.7429885 61.0767816,57.1990805 L61.0767816,43.3181609 C61.0767816,42.7742529 61.5177011,42.3328736 62.0616092,42.3328736 C62.6050575,42.3328736 63.0464368,42.7742529 63.0464368,43.3181609 L63.0464368,57.1990805 C63.0464368,57.7429885 62.6050575,58.183908 62.0616092,58.183908" id="Fill-179" fill="#1F2C46"></path>
                                        <path d="M38.2675862,46.8285057 C37.7816092,46.8285057 37.2772414,46.7466667 36.8018391,46.5793103 C35.6625287,46.177931 34.8432184,45.3494253 34.4947126,44.2464368 C33.994023,42.657931 34.4055172,41.536092 34.8395402,40.8749425 C35.4910345,39.8809195 36.6666667,39.2266667 38.0652874,39.0790805 C38.9181609,38.9894253 45.0418391,38.9701149 45.7374713,38.9682759 L45.7429885,40.9383908 C43.1549425,40.9452874 38.8377011,40.9788506 38.2717241,41.0386207 C37.463908,41.1236782 36.8133333,41.4574713 36.4868966,41.9549425 C36.1963218,42.3981609 36.1581609,42.9701149 36.3737931,43.6537931 C36.5356322,44.165977 36.8993103,44.5250575 37.4565517,44.7213793 C38.1002299,44.9485057 38.7613793,44.8583908 38.9908046,44.7071264 L40.0822989,46.3466667 C39.6050575,46.6648276 38.9544828,46.8285057 38.2675862,46.8285057" id="Fill-180" fill="#1F2C46"></path>
                                        <path d="M47.7724138,46.8285057 C47.0845977,46.8285057 46.4349425,46.6648276 45.9577011,46.3462069 L47.0505747,44.7071264 C47.2786207,44.8593103 47.936092,44.9485057 48.5811494,44.7218391 C49.1383908,44.5255172 49.5029885,44.165977 49.6648276,43.6533333 C49.8809195,42.9691954 49.8432184,42.3977011 49.5521839,41.9544828 C49.2266667,41.4574713 48.576092,41.1236782 47.7673563,41.0386207 C47.2022989,40.9788506 42.8855172,40.9452874 40.2974713,40.9383908 L40.3034483,38.9682759 C40.9986207,38.9701149 47.1222989,38.9894253 47.9742529,39.0795402 C49.3728736,39.2262069 50.5494253,39.8809195 51.2004598,40.8749425 C51.6335632,41.536092 52.0450575,42.657931 51.5434483,44.2468966 C51.1949425,45.3498851 50.3751724,46.1788506 49.2354023,46.5802299 C48.7613793,46.7466667 48.2574713,46.8285057 47.7724138,46.8285057" id="Fill-181" fill="#1F2C46"></path>
                                        <path d="M39.3029885,63.2317241 C38.7590805,63.2317241 38.3181609,62.7908046 38.3181609,62.2468966 L38.3181609,43.8698851 L38.3186207,43.8022989 C37.9071264,43.7085057 37.5806897,43.3586207 37.5471264,42.9195402 C37.5052874,42.382069 37.8896552,41.9121839 38.4262069,41.8634483 C38.9342529,41.8197701 39.3981609,41.9751724 39.736092,42.3062069 C40.3287356,42.8878161 40.2974713,43.7696552 40.2855172,43.9406897 L40.2873563,62.2468966 C40.2873563,62.7908046 39.8464368,63.2317241 39.3029885,63.2317241" id="Fill-182" fill="#1F2C46"></path>
                                        <path d="M47.7085057,42.8445977 L47.6193103,43.8257471 L47.6197701,43.8257471 L47.7085057,42.8445977 Z M46.9186207,63.2317241 C46.3751724,63.2317241 45.9337931,62.7908046 45.9337931,62.2468966 L45.9337931,43.8698851 C45.9241379,43.7691954 45.8933333,42.8882759 46.485977,42.3066667 C46.823908,41.9751724 47.2864368,41.8188506 47.7967816,41.8634483 C48.3388506,41.9126437 48.737931,42.3917241 48.6896552,42.9333333 C48.6487356,43.3783908 48.3190805,43.7273563 47.902069,43.8110345 L47.902069,43.8137931 L47.9034483,62.2468966 C47.9034483,62.7908046 47.4625287,63.2317241 46.9186207,63.2317241 L46.9186207,63.2317241 Z" id="Fill-183" fill="#1F2C46"></path>
                                        <path d="M43.1337931,65.1245977 C42.5898851,65.1245977 42.1489655,64.6832184 42.1489655,64.1393103 L42.1489655,43.1052874 C42.1489655,42.5613793 42.5898851,42.1204598 43.1337931,42.1204598 C43.6772414,42.1204598 44.1181609,42.5613793 44.1181609,43.1052874 L44.1181609,64.1393103 C44.1181609,64.6832184 43.6772414,65.1245977 43.1337931,65.1245977" id="Fill-184" fill="#1F2C46"></path>
                                    </g>
                                </g>
                            </g>
                        </g>
                    </g>
                </g>
            </g>
        </g>
    </g>
</svg>