<?xml version="1.0" encoding="UTF-8"?>
<svg width="75px" height="70px" viewBox="0 0 75 70" version="1.1" xmlns="http://www.w3.org/2000/svg" xmlns:xlink="http://www.w3.org/1999/xlink">
    <!-- Generator: sketchtool 54.1 (76490) - https://sketchapp.com -->
    <title>1A2E5CA8-E882-4533-A0C3-9FC602BBDDFB</title>
    <desc>Created with sketchtool.</desc>
    <g id="Docent" stroke="none" stroke-width="1" fill="none" fill-rule="evenodd">
        <g id="home-333a" transform="translate(-779.000000, -3737.000000)">
            <g id="Features" transform="translate(405.000000, 3541.000000)">
                <g id="Group-14-Copy-9" transform="translate(0.000000, 136.000000)">
                    <g id="Group-4">
                        <g id="Group-7" transform="translate(285.000000, 0.000000)">
                            <g id="emotionless_man_twus3e__1_-removebg-hd-copy-2" transform="translate(1.000000, 60.000000)">
                                <g id="Group-5" transform="translate(88.000000, 0.000000)">
                                    <path d="M69.3303614,25.383012 L67.5892169,24.9001807 C67.6073494,24.8339759 69.3826506,18.1966265 66.4898795,12.2310241 C64.6509036,8.43753012 59.5792771,4.46608434 50.7415663,4.6423494 L50.7023494,2.83626506 C60.360241,2.61277108 66.0319277,7.14421687 68.1159036,11.4428916 C71.3135542,18.0363855 69.4125904,25.0861446 69.3303614,25.383012" id="Fill-239" fill="#1F2C46"></path>
                                    <path d="M47.3478313,63.5996386 L42.2740964,63.5996386 L42.2740964,53.5609639 L30.2281928,53.5609639 L30.2281928,63.5996386 L25.9801205,63.5996386 C24.373494,63.5996386 22.8668072,64.7158434 22.8668072,66.3220482 L22.8668072,68.9533735 L49.6359036,68.9533735 L49.6359036,66.3220482 C49.6359036,64.7158434 48.9540361,63.5996386 47.3478313,63.5996386" id="Fill-240" fill="#E2ECF2"></path>
                                    <path d="M24.205241,67.6149398 L48.9662651,67.6149398 L48.9662651,66.3220482 C48.9662651,65.3268675 48.3990964,64.2688554 47.3478313,64.2688554 L41.6048795,64.2688554 L41.6048795,54.2301807 L31.5666265,54.2301807 L31.5666265,64.2688554 L25.9801205,64.2688554 C24.8837349,64.2688554 24.205241,65.3348795 24.205241,66.3220482 L24.205241,67.6149398 Z M50.9743373,69.6225904 L22.1971687,69.6225904 L22.1971687,66.3220482 C22.1971687,64.0833133 23.8944578,62.2612048 25.9801205,62.2612048 L29.5589759,62.2612048 L29.5589759,52.2225301 L43.6125301,52.2225301 L43.6125301,62.2612048 L47.3478313,62.2612048 C49.4149398,62.2612048 50.9743373,64.0065663 50.9743373,66.3220482 L50.9743373,69.6225904 L50.9743373,69.6225904 Z" id="Fill-241" fill="#1F2C46"></path>
                                    <path d="M7.36180723,35.4077711 C7.20831325,33.3018675 6.65168675,30.9943976 6.66391566,28.796988 C6.22072289,28.643494 5.74716867,28.5566265 5.25084337,28.5566265 C2.86283133,28.5566265 0.926445783,30.4921687 0.926445783,32.8818675 C0.926445783,35.2698795 2.86283133,37.2062651 5.25084337,37.2062651 C6.05078313,37.2062651 6.79801205,36.9861446 7.43981928,36.6074699 C7.41620482,36.2077108 7.3913253,35.8075301 7.36180723,35.4077711" id="Fill-244" fill="#4779B0"></path>
                                    <path d="M5.25084337,29.4598795 C3.36463855,29.4598795 1.83012048,30.9948193 1.83012048,32.8818675 C1.83012048,34.7680723 3.36463855,36.303012 5.25084337,36.303012 C5.67927711,36.303012 6.10391566,36.2212048 6.50114458,36.0639157 C6.48891566,35.866988 6.47542169,35.6704819 6.46108434,35.4735542 C6.40120482,34.6563253 6.27891566,33.8083133 6.14903614,32.9105422 C5.98753012,31.7943373 5.82138554,30.646506 5.77373494,29.5016265 C5.60042169,29.4742169 5.42584337,29.4598795 5.25084337,29.4598795 Z M5.25084337,38.1095181 C2.36819277,38.1095181 0.0227710843,35.7645181 0.0227710843,32.8818675 C0.0227710843,29.9987952 2.36819277,27.6533735 5.25084337,27.6533735 C5.8289759,27.6533735 6.40415663,27.7507831 6.95951807,27.943494 C7.32512048,28.0704217 7.56927711,28.4153614 7.56759036,28.8024699 C7.56042169,30.0451807 7.75228916,31.3705422 7.93740964,32.6524699 C8.0660241,33.5409639 8.19885542,34.4606627 8.26295181,35.3415663 C8.29246988,35.7455422 8.31777108,36.1499398 8.34138554,36.554759 C8.36162651,36.8925301 8.19042169,37.2134337 7.89861446,37.3859036 C7.0953012,37.8590361 6.17981928,38.1095181 5.25084337,38.1095181 L5.25084337,38.1095181 Z" id="Fill-245" fill="#1F2C46"></path>
                                    <path d="M8.81283133,39.165 C8.81283133,40.4629518 7.76156627,41.5150602 6.46445783,41.5150602 L5.80704819,41.5150602 C4.51036145,41.5150602 3.45909639,40.4629518 3.45909639,39.165 L3.45909639,27.1342771 C3.45909639,25.836747 4.51036145,24.7842169 5.80704819,24.7842169 L6.46445783,24.7842169 C7.76156627,24.7842169 8.81283133,25.836747 8.81283133,27.1342771 L8.81283133,39.165" id="Fill-246" fill="#4779B0"></path>
                                    <path d="M6.14186747,25.4534337 C5.40054217,25.4534337 4.79753012,26.0572892 4.79753012,26.7998795 L4.79753012,38.8301807 C4.79753012,39.5727711 5.40054217,40.1766265 6.14186747,40.1766265 L6.79927711,40.1766265 C7.54018072,40.1766265 8.14361446,39.5727711 8.14361446,38.8301807 L8.14361446,26.7998795 C8.14361446,26.0572892 7.54018072,25.4534337 6.79927711,25.4534337 L6.14186747,25.4534337 Z M6.79927711,42.1842771 L6.14186747,42.1842771 C4.29361446,42.1842771 2.78987952,40.6796988 2.78987952,38.8301807 L2.78987952,26.7998795 C2.78987952,24.9503614 4.29361446,23.4457831 6.14186747,23.4457831 L6.79927711,23.4457831 C8.64753012,23.4457831 10.1512651,24.9503614 10.1512651,26.7998795 L10.1512651,38.8301807 C10.1512651,40.6796988 8.64753012,42.1842771 6.79927711,42.1842771 L6.79927711,42.1842771 Z" id="Fill-247" fill="#1F2C46"></path>
                                    <path d="M66.9579518,34.2510843 C67.1114458,32.1443373 67.6680723,29.8377108 67.6558434,27.6403012 C68.0990361,27.4868072 68.5725904,27.3999398 69.0689157,27.3999398 C71.4569277,27.3999398 73.3933133,29.3354819 73.3933133,31.724759 C73.3933133,34.1131928 71.4569277,36.0495783 69.0689157,36.0495783 C68.2689759,36.0495783 67.521747,35.8290361 66.8799398,35.4503614 C66.9035542,35.0501807 66.9284337,34.6508434 66.9579518,34.2510843" id="Fill-248" fill="#4779B0"></path>
                                    <path d="M67.8186145,34.9072289 C68.2158434,35.0640964 68.6400602,35.1463253 69.0689157,35.1463253 C70.9546988,35.1463253 72.4900602,33.6109639 72.4900602,31.724759 C72.4900602,29.8381325 70.9546988,28.3031928 69.0689157,28.3031928 C68.8943373,28.3031928 68.7189157,28.3175301 68.5460241,28.3449398 C68.4983735,29.4893976 68.3322289,30.6368072 68.1707229,31.753012 C68.0412651,32.6512048 67.9185542,33.4987952 67.8590964,34.3168675 C67.844759,34.5137952 67.8308434,34.7103012 67.8186145,34.9072289 Z M69.0689157,36.9524096 C68.1395181,36.9524096 67.2231928,36.7023494 66.4207229,36.2279518 C66.1289157,36.0559036 65.9585542,35.735 65.9779518,35.3972289 C66.0015663,34.9928313 66.0272892,34.5888554 66.0563855,34.1848795 C66.1213253,33.3031325 66.2541566,32.3838554 66.3827711,31.4949398 C66.5674699,30.2134337 66.7593373,28.888494 66.7525904,27.6453614 C66.7500602,27.2586747 66.9946386,26.9137349 67.3598193,26.7868072 C67.9160241,26.5940964 68.4903614,26.4966867 69.0689157,26.4966867 C71.9515663,26.4966867 74.2965663,28.8421084 74.2965663,31.724759 C74.2965663,34.6078313 71.9515663,36.9524096 69.0689157,36.9524096 L69.0689157,36.9524096 Z" id="Fill-249" fill="#1F2C46"></path>
                                    <path d="M70.3816265,26.4650602 C70.3816265,25.1671084 69.3303614,24.115 68.0328313,24.115 L67.3766867,24.115 C66.0795783,24.115 65.0278916,25.1671084 65.0278916,26.4650602 L65.0278916,38.4957831 C65.0278916,39.7937349 66.0795783,40.8458434 67.3766867,40.8458434 L68.0328313,40.8458434 C69.3303614,40.8458434 70.3816265,39.7937349 70.3816265,38.4957831 L70.3816265,26.4650602" id="Fill-250" fill="#4779B0"></path>
                                    <path d="M67.711506,24.7842169 C66.969759,24.7842169 66.3663253,25.3880723 66.3663253,26.1306627 L66.3663253,38.1609639 C66.3663253,38.9035542 66.969759,39.5074096 67.711506,39.5074096 L68.3676506,39.5074096 C69.1093976,39.5074096 69.7124096,38.9035542 69.7124096,38.1609639 L69.7124096,26.1306627 C69.7124096,25.3880723 69.1093976,24.7842169 68.3676506,24.7842169 L67.711506,24.7842169 Z M68.3676506,41.5150602 L67.711506,41.5150602 C65.8624096,41.5150602 64.3586747,40.0104819 64.3586747,38.1609639 L64.3586747,26.1306627 C64.3586747,24.2811446 65.8624096,22.7765663 67.711506,22.7765663 L68.3676506,22.7765663 C70.2163253,22.7765663 71.7200602,24.2811446 71.7200602,26.1306627 L71.7200602,38.1609639 C71.7200602,40.0104819 70.2163253,41.5150602 68.3676506,41.5150602 L68.3676506,41.5150602 Z" id="Fill-251" fill="#1F2C46"></path>
                                    <path d="M9.70638554,50.9418675 L64.391988,50.9418675 L64.391988,16.7169277 C64.391988,15.8537349 63.7004217,15.1503614 62.8503012,15.1503614 L11.9649398,15.1503614 C11.031747,15.1503614 9.70638554,15.9608434 9.70638554,16.7169277 L9.70638554,50.9418675 Z M65.295241,52.7479518 L8.80313253,52.7479518 C8.30385542,52.7479518 7.89945783,52.3435542 7.89945783,51.8446988 L7.89945783,16.7169277 C7.89945783,14.8172289 10.0850602,13.3442771 11.9649398,13.3442771 L62.8503012,13.3442771 C64.6964458,13.3442771 66.198494,14.8568675 66.198494,16.7169277 L66.198494,51.8446988 C66.198494,52.3435542 65.7936747,52.7479518 65.295241,52.7479518 L65.295241,52.7479518 Z" id="Fill-253" fill="#1F2C46"></path>
                                    <path d="M8.80313253,48.9523494 L8.80313253,53.1350602 C8.80313253,54.4987952 9.33319277,56.616506 12.2398795,56.4718675 L62.3413253,56.4718675 C64.5724699,56.183012 65.3918072,54.2095181 65.3918072,52.8453614 L65.3918072,48.9523494 L8.80313253,48.9523494" id="Fill-254" fill="#E2ECF2"></path>
                                    <path d="M9.70638554,49.8556024 L9.70638554,53.1350602 C9.70638554,55.5753614 11.4049398,55.5753614 11.9628313,55.5753614 C12.0383133,55.5753614 12.1154819,55.573253 12.1951807,55.5694578 L62.2789157,55.5686145 C64.0246988,55.3105422 64.4885542,53.6798795 64.4885542,52.8453614 L64.4885542,49.8556024 L9.70638554,49.8556024 Z M11.9628313,57.3822892 C8.96716867,57.3822892 7.89945783,55.188253 7.89945783,53.1350602 L7.89945783,48.0490964 L66.2950602,48.0490964 L66.2950602,52.8453614 C66.2950602,54.8458434 64.9768675,57.041988 62.4568675,57.3679518 L62.3413253,57.3751205 L12.2398795,57.3751205 C12.1745181,57.379759 12.0674096,57.3822892 11.9628313,57.3822892 L11.9628313,57.3822892 Z" id="Fill-255" fill="#1F2C46"></path>
                                    <path d="M15.3493976,52.8369277 C15.3493976,53.4551205 14.8488554,53.9556627 14.2306627,53.9556627 C13.6124699,53.9556627 13.1119277,53.4551205 13.1119277,52.8369277 C13.1119277,52.2187349 13.6124699,51.7181928 14.2306627,51.7181928 C14.8488554,51.7181928 15.3493976,52.2187349 15.3493976,52.8369277" id="Fill-256" fill="#1F2C46"></path>
                                    <path d="M19.3284337,52.8369277 C19.3284337,53.4551205 18.8270482,53.9556627 18.2088554,53.9556627 C17.5910843,53.9556627 17.0901205,53.4551205 17.0901205,52.8369277 C17.0901205,52.2187349 17.5910843,51.7181928 18.2088554,51.7181928 C18.8270482,51.7181928 19.3284337,52.2187349 19.3284337,52.8369277" id="Fill-257" fill="#1F2C46"></path>
                                    <path d="M23.3062048,52.8369277 C23.3062048,53.4551205 22.805241,53.9556627 22.1874699,53.9556627 C21.5692771,53.9556627 21.0678916,53.4551205 21.0678916,52.8369277 C21.0678916,52.2187349 21.5692771,51.7181928 22.1874699,51.7181928 C22.805241,51.7181928 23.3062048,52.2187349 23.3062048,52.8369277" id="Fill-258" fill="#1F2C46"></path>
                                    <path d="M59.9984337,48.748253 L59.9984337,48.4623494 C59.9984337,44.3475301 56.8024699,40.4456627 52.1154217,40.4456627 L48.1009639,40.4456627 C43.456506,40.4456627 40.4136145,44.0561446 40.3237952,48.748253 L59.9984337,48.748253" id="Fill-259" fill="#4779B0"></path>
                                    <path d="M41.2873494,47.8454217 L59.066506,47.8454217 C58.7687952,44.6119277 56.1678313,41.3489157 52.1154217,41.3489157 L48.1009639,41.3489157 C44.4225904,41.3489157 41.7233735,43.9760241 41.2873494,47.8454217 Z M60.9012651,49.651506 L39.403253,49.651506 L39.4209639,48.7313855 C39.5238554,43.3207229 43.0938554,39.5424096 48.1009639,39.5424096 L52.1154217,39.5424096 C57.5421084,39.5424096 60.9012651,44.1725301 60.9012651,48.4623494 L60.9012651,49.651506 L60.9012651,49.651506 Z" id="Fill-260" fill="#1F2C46"></path>
                                    <path d="M59.1251205,47.8922289 C59.1251205,44.7696386 57.1908434,42.2631325 53.5348193,41.4340964 C55.9493976,42.861506 57.3422289,44.66 57.3422289,47.7956627 L59.1251205,47.8922289" id="Fill-261" fill="#3D69A4"></path>
                                    <path d="M50.1309639,44.4166867 C51.575241,42.7320482 52.6581325,41.1085542 52.6581325,41.1085542 C52.6581325,41.1085542 52.6222892,40.1205422 49.825241,40.1205422 C47.7155422,40.1205422 47.1226506,40.9871084 47.1226506,40.9871084 C47.1226506,40.9871084 48.9881928,43.0934337 50.1309639,44.4166867" id="Fill-262" fill="#E2ECF2"></path>
                                    <path d="M48.5091566,41.1920482 C48.9586747,41.7014458 49.5578916,42.3828916 50.1153614,43.0209036 C50.6846386,42.3128916 51.1615663,41.6651807 51.4799398,41.2194578 C51.1936145,41.1233133 50.688012,41.0233735 49.825241,41.0233735 C49.2428916,41.0233735 48.8153012,41.0988554 48.5091566,41.1920482 Z M50.133494,45.801506 L49.4474096,45.0074699 C48.3071687,43.6875904 46.4462651,41.5854819 46.4462651,41.5854819 L45.9790361,41.0583735 L46.3771084,40.4772892 C46.5209036,40.2668675 47.3638554,39.2172892 49.825241,39.2172892 C53.2286747,39.2172892 53.5453614,40.6400602 53.5609639,41.0760843 L53.5719277,41.3674699 L53.41,41.6099398 C53.3640361,41.6778313 52.2798795,43.2979518 50.8174699,45.0049398 L50.133494,45.801506 L50.133494,45.801506 Z" id="Fill-263" fill="#1F2C46"></path>
                                    <polygon id="Fill-264" fill="#E2ECF2" points="47.7248193 41.3476506 52.4173494 41.3476506 52.4173494 34.3088554 47.7248193 34.3088554"></polygon>
                                    <path d="M52.4173494,42.2509036 C51.918494,42.2509036 51.5140964,41.846506 51.5140964,41.3476506 L51.5140964,35.2121084 L48.6280723,35.2121084 L48.6280723,41.3476506 C48.6280723,41.846506 48.223253,42.2509036 47.7248193,42.2509036 C47.2259639,42.2509036 46.8215663,41.846506 46.8215663,41.3476506 L46.8215663,34.3088554 C46.8215663,33.8104217 47.2259639,33.4060241 47.7248193,33.4060241 L52.4173494,33.4060241 C52.9157831,33.4060241 53.3201807,33.8104217 53.3201807,34.3088554 L53.3201807,41.3476506 C53.3201807,41.846506 52.9157831,42.2509036 52.4173494,42.2509036" id="Fill-265" fill="#1F2C46"></path>
                                    <polyline id="Fill-266" fill="#A7C7D7" points="51.8759036 40.7973494 51.8759036 35.2643976 51.1539759 35.2643976 51.1539759 41.6765663 51.8759036 40.7973494"></polyline>
                                    <path d="M56.0278313,33.5418072 C56.0278313,36.756747 53.7136145,39.3627711 50.8592169,39.3627711 L50.0044578,39.3627711 C47.1500602,39.3627711 44.8366867,36.756747 44.8366867,33.5418072 L44.8366867,28.2175904 C44.8366867,25.0026506 47.1500602,22.3957831 50.0044578,22.3957831 L50.8592169,22.3957831 C53.7136145,22.3957831 56.0278313,25.0026506 56.0278313,28.2175904 L56.0278313,33.5418072" id="Fill-267" fill="#E2ECF2"></path>
                                    <path d="M50.0044578,23.2990361 C47.6527108,23.2990361 45.7399398,25.5053012 45.7399398,28.2175904 L45.7399398,33.5418072 C45.7399398,36.253253 47.6527108,38.4595181 50.0044578,38.4595181 L50.8592169,38.4595181 C53.2113855,38.4595181 55.1245783,36.253253 55.1245783,33.5418072 L55.1245783,28.2175904 C55.1245783,25.5053012 53.2113855,23.2990361 50.8592169,23.2990361 L50.0044578,23.2990361 Z M50.8592169,40.2660241 L50.0044578,40.2660241 C46.6566867,40.2660241 43.9334337,37.2501205 43.9334337,33.5418072 L43.9334337,28.2175904 C43.9334337,24.5092771 46.6566867,21.4925301 50.0044578,21.4925301 L50.8592169,21.4925301 C54.2074096,21.4925301 56.9310843,24.5092771 56.9310843,28.2175904 L56.9310843,33.5418072 C56.9310843,37.2501205 54.2074096,40.2660241 50.8592169,40.2660241 L50.8592169,40.2660241 Z" id="Fill-268" fill="#1F2C46"></path>
                                    <path d="M55.4863855,27.965 C55.4863855,25.2181325 53.5103614,22.9545181 51.0814458,22.6930723 C52.7062048,23.8156024 53.7216265,25.781506 53.7216265,27.965 L54.1437349,32.8359036 C54.1437349,35.7274096 52.996747,37.4824699 51.0675301,38.4198795 C53.5525301,38.4983133 55.4863855,35.8408434 55.4863855,33.0948193 L55.4863855,27.965" id="Fill-269" fill="#A7C7D7"></path>
                                    <path d="M44.87,33.9862651 C44.87,33.9862651 42.9028313,32.0271084 42.7008434,29.9368072 C42.1943976,24.6956627 45.8246988,22.0343976 49.5237349,22.0343976 L49.5342771,22.0343976 C51.9513855,22.0343976 54.0804819,23.2366265 55.2869277,25.1359036 C52.793494,28.2323494 50.321988,26.3840964 45.7568072,27.0706024 C45.1040361,27.1692771 44.87,31.0905422 44.87,33.9862651" id="Fill-270" fill="#FFFFFF"></path>
                                    <path d="M49.5342771,22.9372289 C47.7488554,22.9372289 46.1076506,23.6237349 45.0218072,24.8200602 C43.8937952,26.0619277 43.4021084,27.8009639 43.6003012,29.8499398 C43.6454217,30.3137952 43.8073494,30.7903012 44.023253,31.2385542 C44.2471687,26.3849398 45.0888554,26.2575904 45.6218675,26.1770482 C46.4196988,26.0572892 47.2339759,25.9990964 48.111506,25.9990964 C48.7558434,25.9990964 49.3369277,26.0286145 49.8986145,26.0572892 C50.3624699,26.0809036 50.7989157,26.1036747 51.2151205,26.1036747 C52.395,26.1036747 53.2569277,25.9261446 54.1293976,25.0730723 C53.0296386,23.7249398 51.3572289,22.9372289 49.5342771,22.9372289 Z M44.87,34.8895181 C44.6355422,34.8895181 44.4053012,34.7984337 44.231988,34.6259639 C44.1425904,34.536988 42.0324699,32.41 41.8018072,30.0236747 C41.5534337,27.4539157 42.2040964,25.2345783 43.6837952,23.6051807 C45.1116265,22.0331325 47.2403012,21.1311446 49.5237349,21.1311446 C52.213253,21.1311446 54.6489157,22.4463855 56.049759,24.6518072 C56.2572289,24.9781928 56.2331928,25.4011446 55.9907229,25.7026506 C54.4279518,27.6428313 52.771988,27.9110241 51.2159639,27.9110241 C50.770241,27.9110241 50.3021687,27.8874096 49.8062651,27.8616867 C48.705241,27.8056024 47.3866265,27.7743976 46.2392169,27.9160843 C46.0026506,28.6806024 45.773253,31.0196988 45.773253,33.9862651 C45.773253,34.3514458 45.5535542,34.6803614 45.2166265,34.8207831 C45.1048795,34.8671687 44.9872289,34.8895181 44.87,34.8895181 L44.87,34.8895181 Z" id="Fill-271" fill="#1F2C46"></path>
                                    <path d="M55.8536747,34.1848795 C55.8536747,34.1848795 58.128253,31.2195783 57.5766867,27.2907229 C57.1174699,24.0209639 53.8034337,21.2589157 49.42,21.4592169 C46.9653614,21.5713855 44.5676506,23.1974096 43.4898193,25.8658434 C46.1342169,29.4872892 48.3974096,31.0218072 53.8924096,31.1036145 C54.6248795,31.1133133 56.1977711,32.6680723 55.8536747,34.1848795" id="Fill-272" fill="#FFFFFF"></path>
                                    <path d="M44.5301205,25.7515663 C46.8072289,28.7611446 48.8304819,30.1244578 53.9059036,30.2003614 C54.6818072,30.2109036 55.4716265,30.8653614 55.951506,31.4751205 C56.0172892,31.5581928 56.0788554,31.6425301 56.1370482,31.7281325 C56.5659036,30.6199398 56.9201205,29.1103012 56.6822892,27.4159639 C56.2606024,24.4181928 53.1405422,22.1786145 49.4613253,22.3616265 C47.398012,22.456506 45.5092771,23.7692169 44.5301205,25.7515663 Z M55.8528313,35.0889759 C55.7233735,35.0889759 55.5926506,35.0607229 55.4699398,35.0025301 C55.0857831,34.8220482 54.8783133,34.3986747 54.9723494,33.985 C55.1718072,33.1053614 54.1981325,32.0962651 53.8295783,32.0022289 C47.8762048,31.9178916 45.4249398,30.0481325 42.7603012,26.3984337 C42.5760241,26.1462651 42.5351205,25.8169277 42.6519277,25.5272289 C43.8178916,22.6412048 46.4580723,20.6904819 49.3786747,20.5563855 C53.9839157,20.3577711 57.9220482,23.2518072 58.471506,27.1650602 C59.0690361,31.4203012 56.6721687,34.6010843 56.5705422,34.7343373 C56.3946988,34.9637349 56.1273494,35.0889759 55.8528313,35.0889759 L55.8528313,35.0889759 Z" id="Fill-273" fill="#1F2C46"></path>
                                    <path d="M56.7919277,27.5095783 C56.7037952,26.3444578 55.8696988,25.151506 55.0039759,24.2646988 C53.8679518,23.1029518 51.9290361,22.4729518 50.0103614,22.4729518 C49.8787952,22.4729518 49.7459639,22.476747 49.6114458,22.4826506 C49.2272892,22.4995181 48.8456627,22.5610843 48.4686747,22.6643976 C50.5125904,22.7440964 52.3093976,23.4824699 53.5626506,24.7648193 C54.6059036,25.8312651 55.1621084,27.2000602 55.1292169,28.6194578 C55.1026506,29.8284337 55.3181325,29.6074699 54.9213253,30.5343373 C55.0330723,30.7734337 56.0535542,31.6492771 56.113012,31.9250602 C56.510241,30.9315663 56.9901205,30.1586145 56.7919277,27.5095783" id="Fill-274" fill="#FFFFFF"></path>
                                    <path d="M39.528494,36.5408434 L35.8425301,32.1430723 C35.9087349,31.7150602 36.0470482,28.7957229 36.0470482,28.35 L36.0470482,26.9019277 C36.0470482,22.1010241 32.1493976,18.1586747 27.349759,18.1586747 L23.773012,18.1586747 C18.9725301,18.1586747 15.323253,22.1010241 15.323253,26.9019277 L15.323253,28.35 C15.323253,33.1496386 18.9725301,37.2459036 23.773012,37.2459036 L27.349759,37.2459036 C28.8889157,37.2459036 31.7268675,36.5016265 33.2866867,34.9422289 L39.528494,36.5408434" id="Fill-275" fill="#47B48F"></path>
                                    <path d="M23.773012,19.0619277 C19.5418072,19.0619277 16.2269277,22.5054217 16.2269277,26.9019277 L16.2269277,28.35 C16.2269277,32.7570482 19.6118072,36.3430723 23.773012,36.3430723 L27.349759,36.3430723 C28.6637349,36.3430723 31.2562651,35.6945181 32.648253,34.3029518 C32.873012,34.0781928 33.200241,33.9879518 33.5110241,34.0672289 L37.0321084,34.9692169 L35.1505422,32.7237349 C34.9831325,32.5242771 34.9101807,32.2628313 34.9498193,32.0051807 C35.0042169,31.653494 35.1442169,28.7885542 35.1442169,28.35 L35.1442169,26.9019277 C35.1442169,22.5792169 31.6475904,19.0619277 27.349759,19.0619277 L23.773012,19.0619277 Z M27.349759,38.1491566 L23.773012,38.1491566 C18.6157831,38.1491566 14.42,33.753494 14.42,28.35 L14.42,26.9019277 C14.42,21.4925301 18.528494,17.2554217 23.773012,17.2554217 L27.349759,17.2554217 C32.6436145,17.2554217 36.9503012,21.5827711 36.9503012,26.9019277 L36.9503012,28.35 C36.9503012,28.7206627 36.8558434,30.8611446 36.7786747,31.8529518 L40.2209036,35.9606024 C40.4730723,36.2612651 40.5025904,36.6905422 40.2934337,37.0224096 C40.0842771,37.3546988 39.6836747,37.5128313 39.3045783,37.4158434 L33.5363253,35.9390964 C31.6416867,37.541506 28.7957229,38.1491566 27.349759,38.1491566 L27.349759,38.1491566 Z" id="Fill-276" fill="#1F2C46"></path>
                                    <path d="M22.4012651,27.8325904 C22.4012651,28.4178916 21.9260241,28.8931325 21.3398795,28.8931325 C20.7537349,28.8931325 20.278494,28.4178916 20.278494,27.8325904 C20.278494,27.2468675 20.7537349,26.7712048 21.3398795,26.7712048 C21.9260241,26.7712048 22.4012651,27.2468675 22.4012651,27.8325904" id="Fill-277" fill="#1F2C46"></path>
                                    <path d="M26.3689157,27.803494 C26.3845181,28.3892169 25.9231928,28.8766867 25.3370482,28.8927108 C24.7513253,28.9087349 24.2638554,28.446988 24.248253,27.8604217 C24.2318072,27.2755422 24.6939759,26.7880723 25.2801205,26.7724699 C25.8658434,26.7556024 26.3533133,27.2181928 26.3689157,27.803494" id="Fill-278" fill="#1F2C46"></path>
                                    <path d="M30.233253,27.8325904 C30.233253,28.4178916 29.7584337,28.8931325 29.1727108,28.8931325 C28.5865663,28.8931325 28.111747,28.4178916 28.111747,27.8325904 C28.111747,27.2468675 28.5865663,26.7712048 29.1727108,26.7712048 C29.7584337,26.7712048 30.233253,27.2468675 30.233253,27.8325904" id="Fill-279" fill="#1F2C46"></path>
                                    <path d="M37.1341566,35.0539759 L33.4422892,34.1089759 C33.3760843,34.0921084 33.3090361,34.0836747 33.2428313,34.0836747 C33.0345181,34.0836747 32.8291566,34.166747 32.6777711,34.3181325 C31.3005422,35.6953614 28.7362651,36.3375904 27.4370482,36.3375904 L23.9387349,36.3375904 C19.8062048,36.3375904 16.443253,32.7933133 16.1759036,28.7919277 L16.3546988,25.2253012 C17.5092771,21.3145783 19.1201205,20.9224096 19.1441566,20.6436747 C17.633253,23.6659036 17.7804217,29.0048795 18.488012,30.5604819 C19.8205422,33.4941566 21.8653012,34.2046988 24.0875904,34.2038554 L28.7990964,34.2038554 C28.8593976,34.2038554 33.2436747,33.404759 35.0577711,30.4053012 C35.0126506,31.3131928 34.9696386,31.9191566 34.9493976,32.0503012 C34.9139759,32.278012 34.9793373,32.4985542 35.1269277,32.6739759 L37.1341566,35.0539759" id="Fill-280" fill="#31B08E"></path>
                                    <path d="M34.9127108,42.1842771 L16.8434337,42.1842771 C16.2889157,42.1842771 15.8398193,41.734759 15.8398193,41.180241 C15.8398193,40.6261446 16.2889157,40.1766265 16.8434337,40.1766265 L34.9127108,40.1766265 C35.4668072,40.1766265 35.9163253,40.6261446 35.9163253,41.180241 C35.9163253,41.734759 35.4668072,42.1842771 34.9127108,42.1842771" id="Fill-281" fill="#1F2C46"></path>
                                    <path d="M28.889759,45.5303614 L16.8434337,45.5303614 C16.2889157,45.5303614 15.8398193,45.0808434 15.8398193,44.5263253 C15.8398193,43.9722289 16.2889157,43.5227108 16.8434337,43.5227108 L28.889759,43.5227108 C29.4442771,43.5227108 29.8933735,43.9722289 29.8933735,44.5263253 C29.8933735,45.0808434 29.4442771,45.5303614 28.889759,45.5303614" id="Fill-282" fill="#1F2C46"></path>
                                    <path d="M34.243494,64.2688554 L28.889759,64.2688554 C28.335241,64.2688554 27.8857229,63.8189157 27.8857229,63.2648193 C27.8857229,62.7107229 28.335241,62.2612048 28.889759,62.2612048 L34.243494,62.2612048 C34.7975904,62.2612048 35.2471084,62.7107229 35.2471084,63.2648193 C35.2471084,63.8189157 34.7975904,64.2688554 34.243494,64.2688554" id="Fill-283" fill="#1F2C46"></path>
                                    <path d="M38.928012,64.2688554 L37.5895783,64.2688554 C37.0354819,64.2688554 36.5855422,63.8189157 36.5855422,63.2648193 C36.5855422,62.7107229 37.0354819,62.2612048 37.5895783,62.2612048 L38.928012,62.2612048 C39.4821084,62.2612048 39.9320482,62.7107229 39.9320482,63.2648193 C39.9320482,63.8189157 39.4821084,64.2688554 38.928012,64.2688554" id="Fill-284" fill="#1F2C46"></path>
                                    <path d="M50.3046988,5.86355422 C50.3046988,6.70355422 49.6240964,7.38457831 48.7836747,7.38457831 L24.3878313,7.38457831 C23.5478313,7.38457831 22.8668072,6.70355422 22.8668072,5.86355422 L22.8668072,2.88222892 C22.8668072,2.04222892 23.5478313,1.36120482 24.3878313,1.36120482 L48.7836747,1.36120482 C49.6240964,1.36120482 50.3046988,2.04222892 50.3046988,2.88222892 L50.3046988,5.86355422" id="Fill-285" fill="#4779B0"></path>
                                    <path d="M24.7226506,2.03042169 C24.4375904,2.03042169 24.205241,2.26277108 24.205241,2.54740964 L24.205241,5.52915663 C24.205241,5.81379518 24.4375904,6.04614458 24.7226506,6.04614458 L49.1180723,6.04614458 C49.4035542,6.04614458 49.6359036,5.81379518 49.6359036,5.52915663 L49.6359036,2.54740964 C49.6359036,2.26277108 49.4035542,2.03042169 49.1180723,2.03042169 L24.7226506,2.03042169 Z M49.1180723,8.05379518 L24.7226506,8.05379518 C23.330241,8.05379518 22.1971687,6.92114458 22.1971687,5.52915663 L22.1971687,2.54740964 C22.1971687,1.15542169 23.330241,0.0227710843 24.7226506,0.0227710843 L49.1180723,0.0227710843 C50.5109036,0.0227710843 51.6435542,1.15542169 51.6435542,2.54740964 L51.6435542,5.52915663 C51.6435542,6.92114458 50.5109036,8.05379518 49.1180723,8.05379518 L49.1180723,8.05379518 Z" id="Fill-286" fill="#1F2C46"></path>
                                    <path d="M4.75114458,25.383012 C4.66849398,25.0861446 2.76837349,18.0363855 5.96518072,11.4428916 C8.04957831,7.14463855 13.7090361,2.62668675 23.3795783,2.83626506 L23.3403614,4.6423494 C14.5359639,4.4546988 9.4310241,8.43710843 7.59120482,12.2310241 C4.69885542,18.1966265 6.47415663,24.8339759 6.49228916,24.9006024 L4.75114458,25.383012" id="Fill-287" fill="#1F2C46"></path>
                                </g>
                            </g>
                        </g>
                    </g>
                </g>
            </g>
        </g>
    </g>
</svg>