<?xml version="1.0" encoding="UTF-8"?>
<svg width="80px" height="80px" viewBox="0 0 80 80" version="1.1" xmlns="http://www.w3.org/2000/svg" xmlns:xlink="http://www.w3.org/1999/xlink">
    <!-- Generator: sketchtool 54.1 (76490) - https://sketchapp.com -->
    <title>0AD58E96-8724-4488-A1B8-B76E63D0FA08</title>
    <desc>Created with sketchtool.</desc>
    <g id="Docent" stroke="none" stroke-width="1" fill="none" fill-rule="evenodd">
        <g id="home-333a" transform="translate(-494.000000, -3727.000000)">
            <g id="Features" transform="translate(405.000000, 3541.000000)">
                <g id="Group-14-Copy-9" transform="translate(0.000000, 136.000000)">
                    <g id="Group-4">
                        <g id="Group-6">
                            <g id="Group-4" transform="translate(89.000000, 50.000000)">
                                <path d="M39.9428571,2.66597403 C34.0394805,2.66597403 27.7194805,16.8742857 27.7194805,38.025974 C27.7194805,59.1776623 34.0394805,73.385974 39.9428571,73.385974 C45.8451948,73.385974 52.1651948,59.1776623 52.1651948,38.025974 C52.1651948,16.8742857 45.8451948,2.66597403 39.9428571,2.66597403 Z M39.9428571,75.6114286 C31.84,75.6114286 25.492987,59.1018182 25.492987,38.025974 C25.492987,16.9496104 31.84,0.44 39.9428571,0.44 C48.0446753,0.44 54.3911688,16.9496104 54.3911688,38.025974 C54.3911688,59.1018182 48.0446753,75.6114286 39.9428571,75.6114286 L39.9428571,75.6114286 Z" id="Fill-428" fill="#1F2C46"></path>
                                <path d="M37.5792208,79.3818182 L37.8997403,78.3158442 L37.534026,79.3683117 C36.6431169,79.0997403 36.2358442,78.9776623 35.2701299,78.3392208 C34.7568831,78 34.6161039,77.3101299 34.9548052,76.7974026 C35.2935065,76.2862338 35.9838961,76.1438961 36.4966234,76.4825974 C37.1901299,76.9407792 37.36,76.9911688 38.1750649,77.2363636 L37.8997403,78.3158442 L37.5792208,79.3818182" id="Fill-429" fill="#1F2C46"></path>
                                <path d="M41.7085714,79.6644156 C41.1890909,79.6644156 40.7246753,79.2981818 40.6187013,78.7693506 C40.4976623,78.1667532 40.8888312,77.5797403 41.4914286,77.4602597 C45.612987,76.6337662 48.8425974,71.9371429 50.4909091,67.8166234 C50.718961,67.2446753 51.3677922,66.9688312 51.9376623,67.1958442 C52.5085714,67.4244156 52.785974,68.0722078 52.5574026,68.6425974 C50.1423377,74.6815584 46.1688312,78.7932468 41.9283117,79.6420779 C41.8550649,79.6571429 41.7812987,79.6644156 41.7085714,79.6644156" id="Fill-430" fill="#1F2C46"></path>
                                <path d="M78.6088312,21.852987 C78.027013,21.852987 77.5371429,21.401039 77.4992208,20.8119481 C77.4457143,19.9849351 77.3844156,19.8202597 77.0893506,19.0254545 L78.1137662,18.5864935 L79.1568831,18.1994805 L78.1137662,18.5864935 L79.1761039,18.2498701 C79.4987013,19.118961 79.6462338,19.5158442 79.7205195,20.6685714 C79.76,21.2820779 79.2950649,21.8109091 78.6815584,21.8514286 L78.6088312,21.852987" id="Fill-431" fill="#1F2C46"></path>
                                <path d="M75.9974026,16.5215584 C75.7355844,16.5215584 75.4722078,16.4296104 75.2602597,16.2420779 C71.8057143,13.1849351 65.494026,13.6472727 60.8067532,14.574026 C60.2057143,14.692987 59.6181818,14.3018182 59.4992208,13.6981818 C59.3802597,13.0950649 59.7719481,12.5096104 60.3750649,12.3906494 C65.5553247,11.3657143 72.598961,10.9137662 76.7355844,14.5755844 C77.1958442,14.9828571 77.2384416,15.6867532 76.8311688,16.1464935 C76.6114286,16.3953247 76.3049351,16.5215584 75.9974026,16.5215584" id="Fill-432" fill="#1F2C46"></path>
                                <path d="M14.1974026,17.7688312 C11.4680519,17.7688312 7.95116883,18.2451948 6.69974026,20.5122078 C3.84727273,25.6794805 14.1636364,38.5927273 34.067013,49.5797403 C45.6966234,56 57.8384416,59.9885714 65.7522078,59.9885714 C68.4815584,59.9885714 71.9974026,59.5127273 73.2483117,57.2462338 C76.1012987,52.0774026 65.7849351,39.1636364 45.881039,28.1776623 C34.252987,21.7568831 22.1122078,17.7688312 14.1974026,17.7688312 Z M65.7522078,62.2145455 C57.358961,62.2145455 45.1116883,58.2197403 32.9916883,51.5283117 C13.2405195,40.6254545 0.835844156,26.5288312 4.75064935,19.4368831 C6.15688312,16.8893506 9.42337662,15.5433766 14.1974026,15.5433766 C22.5916883,15.5433766 34.8384416,19.5381818 46.9568831,26.2296104 C66.7080519,37.1303896 79.1127273,51.227013 75.1974026,58.3215584 C73.7916883,60.8685714 70.5257143,62.2145455 65.7522078,62.2145455 L65.7522078,62.2145455 Z" id="Fill-433" fill="#1F2C46"></path>
                                <path d="M47.4711688,38.6483117 C47.4711688,42.9444156 43.987013,46.4280519 39.6909091,46.4280519 C35.3948052,46.4280519 31.9116883,42.9444156 31.9116883,38.6483117 C31.9116883,34.3511688 35.3948052,30.8685714 39.6909091,30.8685714 C43.987013,30.8685714 47.4711688,34.3511688 47.4711688,38.6483117" id="Fill-434" fill="#4779B0"></path>
                                <path d="M39.6909091,31.9812987 C36.0150649,31.9812987 33.0249351,34.9719481 33.0249351,38.6483117 C33.0249351,42.3241558 36.0150649,45.3153247 39.6909091,45.3153247 C43.3667532,45.3153247 46.3579221,42.3241558 46.3579221,38.6483117 C46.3579221,34.9719481 43.3667532,31.9812987 39.6909091,31.9812987 Z M39.6909091,47.5407792 C34.7875325,47.5407792 30.798961,43.5511688 30.798961,38.6483117 C30.798961,33.7449351 34.7875325,29.7558442 39.6909091,29.7558442 C44.5942857,29.7558442 48.5838961,33.7449351 48.5838961,38.6483117 C48.5838961,43.5511688 44.5942857,47.5407792 39.6909091,47.5407792 L39.6909091,47.5407792 Z" id="Fill-435" fill="#1F2C46"></path>
                                <path d="M39.6909091,32.0067532 L39.5542857,32.014026 C41.3766234,33.6493506 42.5314286,36.014026 42.5314286,38.6483117 C42.5314286,41.2825974 41.3766234,43.6457143 39.5542857,45.28 L39.6909091,45.2872727 C43.3522078,45.2872727 46.3309091,42.3090909 46.3309091,38.6483117 C46.3309091,34.9864935 43.3522078,32.0067532 39.6909091,32.0067532" id="Fill-436" fill="#3D69A4"></path>
                                <path d="M21.0649351,17.7044156 C21.0649351,19.8119481 19.3548052,21.5220779 17.2462338,21.5220779 C15.1366234,21.5220779 13.427013,19.8119481 13.427013,17.7044156 C13.427013,15.5942857 15.1366234,13.8841558 17.2462338,13.8841558 C19.3548052,13.8841558 21.0649351,15.5942857 21.0649351,17.7044156" id="Fill-437" fill="#F2B658"></path>
                                <path d="M17.2462338,14.9963636 C15.7537662,14.9963636 14.5402597,16.2114286 14.5402597,17.7044156 C14.5402597,19.1953247 15.7537662,20.4093506 17.2462338,20.4093506 C18.7381818,20.4093506 19.9522078,19.1953247 19.9522078,17.7044156 C19.9522078,16.2114286 18.7381818,14.9963636 17.2462338,14.9963636 Z M17.2462338,22.6348052 C14.5262338,22.6348052 12.3137662,20.4228571 12.3137662,17.7044156 C12.3137662,14.9838961 14.5262338,12.7714286 17.2462338,12.7714286 C19.9657143,12.7714286 22.1781818,14.9838961 22.1781818,17.7044156 C22.1781818,20.4228571 19.9657143,22.6348052 17.2462338,22.6348052 L17.2462338,22.6348052 Z" id="Fill-438" fill="#1F2C46"></path>
                                <path d="M35.5262338,67.3714286 C35.5262338,69.4774026 33.8161039,71.1875325 31.707013,71.1875325 C29.5984416,71.1875325 27.8877922,69.4774026 27.8877922,67.3714286 C27.8877922,65.2612987 29.5984416,63.5511688 31.707013,63.5511688 C33.8161039,63.5511688 35.5262338,65.2612987 35.5262338,67.3714286" id="Fill-439" fill="#F2B658"></path>
                                <path d="M31.707013,64.6638961 C30.2145455,64.6638961 29.001039,65.8784416 29.001039,67.3714286 C29.001039,68.8612987 30.2145455,70.0748052 31.707013,70.0748052 C33.198961,70.0748052 34.4135065,68.8612987 34.4135065,67.3714286 C34.4135065,65.8784416 33.198961,64.6638961 31.707013,64.6638961 Z M31.707013,72.3002597 C28.9875325,72.3002597 26.7750649,70.0893506 26.7750649,67.3714286 C26.7750649,64.6509091 28.9875325,62.4384416 31.707013,62.4384416 C34.4264935,62.4384416 36.6394805,64.6509091 36.6394805,67.3714286 C36.6394805,70.0893506 34.4264935,72.3002597 31.707013,72.3002597 L31.707013,72.3002597 Z" id="Fill-440" fill="#1F2C46"></path>
                                <path d="M65.7433766,17.8597403 C57.7111688,17.8597403 45.8841558,21.7085714 34.105974,28.1568831 C25.0436364,33.1163636 17.1942857,38.9709091 12.0020779,44.6415584 C7.14857143,49.9423377 5.19272727,54.4935065 6.63584416,57.1293506 C7.88831169,59.4176623 11.4431169,59.8981818 14.2046753,59.8981818 C22.2374026,59.8981818 34.0649351,56.0483117 45.8436364,49.6 C54.9054545,44.6405195 62.7548052,38.7864935 67.9464935,33.1168831 C72.8,27.8161039 74.7563636,23.2649351 73.3137662,20.6290909 C72.0602597,18.3402597 68.5049351,17.8597403 65.7433766,17.8597403 Z M14.2046753,62.1241558 C9.3812987,62.1241558 6.08883117,60.7667532 4.68363636,58.1984416 C2.72571429,54.6233766 4.74181818,49.2748052 10.3605195,43.1376623 C15.7132468,37.2924675 23.7667532,31.2784416 33.0374026,26.2036364 C45.1277922,19.5849351 57.3548052,15.6332468 65.7433766,15.6332468 C70.5667532,15.6332468 73.8597403,16.9916883 75.265974,19.56 C77.2233766,23.1361039 75.2067532,28.4846753 69.5880519,34.6202597 C64.2358442,40.4654545 56.1828571,46.478961 46.9122078,51.5532468 C34.8207792,58.1719481 22.5937662,62.1241558 14.2046753,62.1241558 L14.2046753,62.1241558 Z" id="Fill-441" fill="#1F2C46"></path>
                                <path d="M74.5506494,31.7080519 C74.5506494,33.8176623 72.8405195,35.5283117 70.7303896,35.5283117 C68.6218182,35.5283117 66.9122078,33.8176623 66.9122078,31.7080519 C66.9122078,29.5994805 68.6218182,27.8893506 70.7303896,27.8893506 C72.8405195,27.8893506 74.5506494,29.5994805 74.5506494,31.7080519" id="Fill-442" fill="#F2B658"></path>
                                <path d="M70.7303896,29.0020779 C69.2384416,29.0020779 68.0254545,30.2166234 68.0254545,31.7080519 C68.0254545,33.201039 69.2384416,34.4155844 70.7303896,34.4155844 C72.2228571,34.4155844 73.4374026,33.201039 73.4374026,31.7080519 C73.4374026,30.2166234 72.2228571,29.0020779 70.7303896,29.0020779 Z M70.7303896,36.641039 C68.0109091,36.641039 65.798961,34.4285714 65.798961,31.7080519 C65.798961,28.9885714 68.0109091,26.7771429 70.7303896,26.7771429 C73.4503896,26.7771429 75.6638961,28.9885714 75.6638961,31.7080519 C75.6638961,34.4285714 73.4503896,36.641039 70.7303896,36.641039 L70.7303896,36.641039 Z" id="Fill-443" fill="#1F2C46"></path>
                                <path d="M2.07116883,59.6561039 C1.6961039,59.6561039 1.33038961,59.465974 1.12051948,59.1231169 C-2.01974026,53.9828571 2.50077922,47.7579221 2.69454545,47.4955844 C3.06025974,47.0020779 3.75688312,46.8971429 4.25090909,47.2623377 C4.74545455,47.6275325 4.85038961,48.3241558 4.48519481,48.8181818 C4.42493506,48.9012987 0.670649351,54.1168831 3.01974026,57.9620779 C3.34025974,58.4867532 3.17454545,59.1719481 2.65038961,59.4924675 C2.46961039,59.6025974 2.26909091,59.6561039 2.07116883,59.6561039" id="Fill-444" fill="#1F2C46"></path>
                            </g>
                        </g>
                    </g>
                </g>
            </g>
        </g>
    </g>
</svg>